<svg id="Layer_1" data-name="Layer 1" xmlns="http://www.w3.org/2000/svg" width="59.37" height="59.3" viewBox="0 0 59.37 59.3">
  <defs>
    <style>
      .cls-1 {
        fill: #fff;
      }

      .cls-2, .cls-3 {
        fill: #0c2858;
      }

      .cls-3 {
        fill-rule: evenodd;
      }

      .cls-4 {
        fill: #b00925;
      }
    </style>
  </defs>
  <title>favicon</title>
  <g id="Group_655-2" data-name="Group 655-2">
    <path id="Path_107737" data-name="Path 107737" class="cls-1" d="M.25,29.69A29.44,29.44,0,1,1,29.69,59.13h0A29.44,29.44,0,0,1,.25,29.69"/>
    <path id="Path_107738" data-name="Path 107738" class="cls-1" d="M29.69,53.16A23.48,23.48,0,1,0,6.21,29.69,23.47,23.47,0,0,0,29.69,53.16"/>
    <path id="Path_107761" data-name="Path 107761" class="cls-2" d="M0,29.69A29.69,29.69,0,1,0,29.69,0h0A29.73,29.73,0,0,0,0,29.69m.49,0a29.2,29.2,0,1,1,29.2,29.2A29.2,29.2,0,0,1,.49,29.69"/>
    <path id="Path_107762" data-name="Path 107762" class="cls-2" d="M6,29.69A23.72,23.72,0,1,0,29.69,6h0A23.73,23.73,0,0,0,6,29.69m.49,0A23.23,23.23,0,1,1,29.69,52.92,23.23,23.23,0,0,1,6.46,29.69"/>
    <rect id="Rectangle_219" data-name="Rectangle 219" class="cls-2" x="16.18" y="38.07" width="27.13" height="4.25"/>
    <rect id="Rectangle_220" data-name="Rectangle 220" class="cls-2" x="16.17" y="13.39" width="27.14" height="7.87"/>
    <rect id="Rectangle_221" data-name="Rectangle 221" class="cls-2" x="16.18" y="13.39" width="27.14" height="7.87"/>
    <path id="Path_107763" data-name="Path 107763" class="cls-2" d="M56.16,24.91V26l-.67-.9-1.07.35.66-.9-.66-.9,1.07.36.68-.91v1.11l1,.34Z"/>
    <path id="Path_107764" data-name="Path 107764" class="cls-2" d="M3,24.24V23.12l.67.9,1.08-.34-.67.89.66.9-1.07-.35L3,26V24.91l-1-.34Z"/>
    <path id="Path_107765" data-name="Path 107765" class="cls-2" d="M5.16,15.81l1.64.81a1.39,1.39,0,0,1,.73,1.83,1.35,1.35,0,0,1-.15.26,1.44,1.44,0,0,1-2,.82l-1.65-.82L4.08,18l1.67.82a.73.73,0,0,0,1-.31l0-.08a.75.75,0,0,0-.24-1l-.12-.06-1.61-.8Z"/>
    <path id="Path_107766" data-name="Path 107766" class="cls-2" d="M10.23,14.07l-.39.55-2.73.28,1.7,1.19-.46.66L5.7,14.89l.43-.6L8.74,14,7.12,12.87l.46-.66Z"/>
    <rect id="Rectangle_222" data-name="Rectangle 222" class="cls-2" x="9.33" y="10.6" width="0.81" height="3.24" transform="translate(-5.87 11.48) rotate(-48.73)"/>
    <path id="Path_107767" data-name="Path 107767" class="cls-2" d="M12,8.55l-.85.8,1.81,1.92-.59.55L10.53,9.9l-.85.8-.41-.43,2.29-2.16Z"/>
    <path id="Path_107768" data-name="Path 107768" class="cls-2" d="M16,8.83,14.1,10.24,12.19,7.63l1.9-1.39.35.48-1.25.91.4.54,1.19-.87.35.48-1.19.87.46.63,1.28-.93Z"/>
    <path id="Path_107769" data-name="Path 107769" class="cls-2" d="M16.15,5a1.6,1.6,0,0,1,2.23.38,1.18,1.18,0,0,1,.11.19c.45.82.26,1.7-.87,2.31l-1.18.64L14.89,5.7Zm.71,2.62.46-.25a1,1,0,0,0,.52-1.25A.53.53,0,0,0,17.76,6,1,1,0,0,0,16.5,5.5l-.16.09-.46.25Z"/>
    <path id="Path_107770" data-name="Path 107770" class="cls-2" d="M22.22,3.4a2.53,2.53,0,0,0-1.06.05c-.27.09-.42.25-.37.4.15.46,1.68-.18,2,.89.19.59-.19,1.1-.88,1.32a2.14,2.14,0,0,1-1.2.07l-.22-.66a1.91,1.91,0,0,0,1.18,0c.29-.1.42-.25.36-.43-.17-.5-1.67.19-2-.91-.18-.53.17-1,.88-1.27A2.65,2.65,0,0,1,22,2.81Z"/>
    <path id="Path_107771" data-name="Path 107771" class="cls-2" d="M25.9,2.36l-1.15.23.51,2.59-.79.16L24,2.74,22.81,3l-.12-.58,3.09-.61Z"/>
    <path id="Path_107772" data-name="Path 107772" class="cls-2" d="M29.56,4.73l-.87.06-.32-.62-1.44.12-.19.65L25.89,5l1.05-3.33.93-.07ZM27.48,2.42,27.1,3.71l1-.08Z"/>
    <path id="Path_107773" data-name="Path 107773" class="cls-2" d="M32.32,2.23l-1.18,0L31,4.82l-.8,0,.1-2.64-1.17,0,0-.6,3.15.12Z"/>
    <path id="Path_107774" data-name="Path 107774" class="cls-2" d="M35,5.32l-2.35-.39.52-3.19,2.32.38-.09.58-1.53-.25-.11.67,1.46.24-.1.58-1.46-.23-.12.76,1.55.26Z"/>
    <path id="Path_107775" data-name="Path 107775" class="cls-2" d="M38.22,3.73a2.52,2.52,0,0,0-.91-.56c-.28-.08-.49,0-.53.13-.13.47,1.49.78,1.18,1.87-.17.6-.77.8-1.46.61a2.22,2.22,0,0,1-1-.62l.19-.67a1.84,1.84,0,0,0,1,.69c.3.09.48,0,.53-.15.15-.51-1.49-.78-1.17-1.89.15-.54.72-.77,1.44-.56a2.66,2.66,0,0,1,1,.54Z"/>
    <path id="Path_107776" data-name="Path 107776" class="cls-2" d="M41.91,7.91l-.79-.37,0-.69-1.31-.61-.49.47-.77-.36L41.13,4l.85.4Zm-.67-3-1,.94.9.42Z"/>
    <path id="Path_107777" data-name="Path 107777" class="cls-2" d="M45.81,7.72A2.65,2.65,0,0,0,45,6.81a1,1,0,0,0-1.46.08L43.41,7a1,1,0,0,0,.32,1.36l.09.05a1.11,1.11,0,0,0,.51.2l.21-.31-.39-.26.32-.5,1.07.7-.73,1.11A2.16,2.16,0,0,1,43.44,9a1.73,1.73,0,0,1-.77-2.33.37.37,0,0,1,0-.11,1.75,1.75,0,0,1,2.43-.43l.12.1a3.14,3.14,0,0,1,.93.92Z"/>
    <path id="Path_107778" data-name="Path 107778" class="cls-2" d="M46.87,11.63l-1.81-1.55,2.11-2.46L49,9.16l-.39.45-1.17-1L47,9.11l1.11,1-.38.45-1.12-1-.51.59,1.2,1Z"/>
    <path id="Path_107779" data-name="Path 107779" class="cls-2" d="M49.42,14.42,49,13.91l.37-2.71-1.55,1.37-.53-.6,2.42-2.15.49.56L49.83,13l1.48-1.31.54.6Z"/>
    <path id="Path_107780" data-name="Path 107780" class="cls-2" d="M51.66,17.28a2.44,2.44,0,0,1-1-.89A1.7,1.7,0,0,1,50.94,14l.11-.09a1.76,1.76,0,0,1,2.41.63.41.41,0,0,1,0,.09,2.34,2.34,0,0,1,.4,1.14l-.6.39A2.18,2.18,0,0,0,53,15.05a1,1,0,1,0-1.84.78,1,1,0,0,0,.18.28,2.58,2.58,0,0,0,.94.79Z"/>
    <path id="Path_107781" data-name="Path 107781" class="cls-2" d="M53.43,18.09l1-1.89.42.89-.62,1.06,1.22.21.41.88-2.1-.42-1.37.64-.34-.73Z"/>
    <rect id="Rectangle_223" data-name="Rectangle 223" class="cls-2" x="1.63" y="30.34" width="3.23" height="0.81" transform="translate(-1.18 0.15) rotate(-2.21)"/>
    <path id="Path_107782" data-name="Path 107782" class="cls-2" d="M2.15,35.43l-.1-.67,1.79-2.07-2,.3-.12-.8,3.2-.47.11.73-1.7,2,2-.29.12.8Z"/>
    <path id="Path_107783" data-name="Path 107783" class="cls-2" d="M5.76,38.48l-.33-1.13-2.54.76-.23-.77,2.53-.75-.33-1.13.56-.17.9,3Z"/>
    <path id="Path_107784" data-name="Path 107784" class="cls-2" d="M4.48,42.13,3.52,40l3-1.3.95,2.15L6.89,41l-.63-1.42-.62.28.6,1.35-.54.23-.59-1.35-.72.32L5,41.89Z"/>
    <path id="Path_107785" data-name="Path 107785" class="cls-2" d="M8.4,42.51a1,1,0,0,1-.21,1.35l0,0a.85.85,0,0,1-1-.07c0,.37-.27.66-.85,1.53l-.45-.76c.42-.65.89-1.08.66-1.46l-.11-.2-1.14.67-.41-.7,2.79-1.64Zm-1.46.12.21.37c.12.19.31.33.55.19s.23-.32.08-.58l-.21-.35Z"/>
    <path id="Path_107786" data-name="Path 107786" class="cls-2" d="M8.76,48.47l-.43-.53.5-2.69-1.61,1.3-.5-.63,2.52-2,.46.58-.46,2.58,1.54-1.23.5.62Z"/>
    <path id="Path_107787" data-name="Path 107787" class="cls-2" d="M11.91,51.5l-.63-.59.24-.65-1.06-1-.61.31L9.22,49l3.16-1.48.69.63Zm.29-3.09L11,49l.73.68Z"/>
    <path id="Path_107788" data-name="Path 107788" class="cls-2" d="M15.9,51.12l-1-.7-1.56,2.13-.65-.48L14.3,50l-.94-.69.35-.48,2.54,1.87Z"/>
    <rect id="Rectangle_224" data-name="Rectangle 224" class="cls-2" x="14.53" y="52.02" width="3.24" height="0.81" transform="translate(-37.15 39.45) rotate(-59.2)"/>
    <path id="Path_107789" data-name="Path 107789" class="cls-2" d="M18.05,55.29a1.67,1.67,0,0,1,1-3.18,1.77,1.77,0,0,1,.34.16,1.67,1.67,0,1,1-1.05,3.17,1.87,1.87,0,0,1-.32-.15m1.1-2.41a1,1,0,0,0-.76,1.83,1,1,0,0,0,1.28-.51,1,1,0,0,0-.43-1.28l-.09,0"/>
    <path id="Path_107790" data-name="Path 107790" class="cls-2" d="M23.79,57.19,23.13,57,22,54.54l-.55,2-.78-.21.86-3.12.71.2,1.14,2.36.53-1.9.78.21Z"/>
    <path id="Path_107791" data-name="Path 107791" class="cls-2" d="M28.13,57.78l-.86-.1L27.08,57l-1.44-.17-.31.61-.85-.1,1.68-3.06.93.11Zm-1.59-2.67-.62,1.19,1,.12Z"/>
    <path id="Path_107792" data-name="Path 107792" class="cls-2" d="M31.25,57.76H28.79l0-3.23h.8l0,2.64h1.66Z"/>
    <path id="Path_107793" data-name="Path 107793" class="cls-2" d="M34.21,54.13a1.6,1.6,0,0,1,2,1.07,1.17,1.17,0,0,1,0,.2c.17.91-.29,1.69-1.55,1.93l-1.32.24-.58-3.18Zm-.13,2.71.51-.1a1,1,0,0,0,.88-1.15,1,1,0,0,0-1.16-.88l-.1,0-.5.1Z"/>
    <path id="Path_107794" data-name="Path 107794" class="cls-2" d="M39.67,56l-2.27.73-1-3.07,2.24-.73.18.57L37.35,54l.21.65,1.4-.46.18.57-1.4.45.24.74,1.5-.48Z"/>
    <path id="Path_107795" data-name="Path 107795" class="cls-2" d="M41.93,55.07l-.32.15-2.8-2.31.79-.37,1.55,1.31,0-2,.78-.37Z"/>
    <path id="Path_107796" data-name="Path 107796" class="cls-2" d="M45.83,52.79l-2,1.27-1.73-2.74,2-1.25.31.5-1.3.82.36.58,1.25-.79.31.5-1.25.79.42.66,1.34-.84Z"/>
    <path id="Path_107797" data-name="Path 107797" class="cls-2" d="M48.45,50.73l-1.92,1.54-2-2.51.63-.5,1.66,2.05,1.29-1Z"/>
    <path id="Path_107798" data-name="Path 107798" class="cls-2" d="M50.23,49a1.67,1.67,0,1,1-2.17-2.53,1.66,1.66,0,0,1,2.22.05,1.71,1.71,0,0,1,0,2.43l-.05,0M48.3,47.2a1,1,0,1,0,1.41-.07.94.94,0,0,0-1.33,0l-.08.08"/>
    <path id="Path_107799" data-name="Path 107799" class="cls-2" d="M50.19,43.85a1,1,0,1,1,1.69,1l-.1.15-.37.52,1.06.75-.46.66L49.36,45Zm.73,1.29.22-.3c.21-.3.18-.49,0-.63s-.4-.09-.65.27l-.16.23Z"/>
    <path id="Path_107800" data-name="Path 107800" class="cls-2" d="M52.31,40.15l.32-.62L55.51,41l-.37.72-1.8-.92L53.85,42l-.05.11-1.3.32,1.8.92-.37.71-2.88-1.46.32-.63,1.54-.38Z"/>
    <path id="Path_107801" data-name="Path 107801" class="cls-2" d="M56.64,37.77,55.87,40,52.81,39l.76-2.23.56.19-.5,1.47.64.22.48-1.4.56.19-.47,1.4.73.25.51-1.49Z"/>
    <path id="Path_107802" data-name="Path 107802" class="cls-2" d="M57.54,33.67l-.13.67L55,35.69l2,.4-.16.79-3.16-.62.14-.72,2.27-1.32-1.94-.38.16-.79Z"/>
    <path id="Path_107803" data-name="Path 107803" class="cls-2" d="M55.17,29.59l-.07,1.17,2.64.14,0,.81-2.64-.15L55,32.73l-.59,0,.17-3.15Z"/>
    <path id="Path_107804" data-name="Path 107804" class="cls-3" d="M25.46,32.41l-.07-.08v0l0,0a.05.05,0,0,1,0,0s-.06,0-.07,0,.05,0,.05,0,0,.09,0,.14l0,0a1.29,1.29,0,0,0-.18.16,1.55,1.55,0,0,0,.23-.08h0l.05,0h0l.06,0h0a.05.05,0,0,1,0,0s0,0,0,0"/>
    <path id="Path_107805" data-name="Path 107805" class="cls-3" d="M26.86,24.82l.05.05s0,0,0,0l0,0,0,0L27,25l.07.16a0,0,0,0,0,0,0v0l0,0a.07.07,0,0,0,0-.05.06.06,0,0,0,0,0,.19.19,0,0,0,0-.08.09.09,0,0,0,0-.05s0,0,0,0a.21.21,0,0,0-.07-.13l-.07,0,0,0h-.12v0"/>
    <path id="Path_107806" data-name="Path 107806" class="cls-3" d="M27.15,25.7l0,0v0s0,0,0,0h0s0,0,0,0l0,0,0,0v0l-.1.09-.05,0s-.09.09-.14.08a.08.08,0,0,1-.07,0c0-.05,0-.09,0-.13a.43.43,0,0,0,0-.05.17.17,0,0,0,0-.05s-.05.05-.07.08l-.06,0,0,0-.07.07-.09.08-.06.07s0,.05-.08.06l-.05,0a.09.09,0,0,0-.06,0s0,0,0,0h.29l.11,0,.13-.05.12,0s0,0,0,0l.06,0,0,0h0s0,0,0,0a.1.1,0,0,1,0-.05l0-.05,0,0a.1.1,0,0,1,0-.05s0,0,0-.06,0,0,0-.06,0-.1.07-.16a.19.19,0,0,0,0-.13,1.67,1.67,0,0,1-.12.16"/>
    <path id="Path_107807" data-name="Path 107807" class="cls-3" d="M26.21,25.89h0l-.1.08-.1.1-.05.05-.1.1-.06,0s0,0,0,0,0,0,0,0,0,0,0,0h0a.14.14,0,0,0,0,.06h.12l.21-.24a1.07,1.07,0,0,0,.19-.28l0,0"/>
    <path id="Path_107808" data-name="Path 107808" class="cls-3" d="M25.63,26h0l0,0h0l0,0s0,0,0,0l-.1.07-.06.05a.21.21,0,0,0,0,.11h.12l0,0,0,0,0,0,0,0,0,0v0l0-.05s0,0,0,0a.06.06,0,0,1,0,0l0,0h0"/>
    <path id="Path_107809" data-name="Path 107809" class="cls-3" d="M25.19,26.12h0l-.1,0-.06,0s-.05,0-.06,0h0l0,0,.05,0a.06.06,0,0,0,.06,0l0,0,0,0s0,0,0,0h0v0h0l0,0s0,0,0,0h0"/>
    <path id="Path_107810" data-name="Path 107810" class="cls-3" d="M40.81,26.5h-.05a0,0,0,0,0,0,0h-.07s0,0,0,0h0l-.07.05,0,0s0,0,0,0l0,0s0,0,0,0l.05,0,0,0,.06,0,.2-.1h0"/>
    <path id="Path_107811" data-name="Path 107811" class="cls-3" d="M41.31,26.55s0,0,0,.05l0,0a.53.53,0,0,0,.12,0l0,0h0l0,0h0v0h0s0,0,0,0l-.21,0"/>
    <path id="Path_107812" data-name="Path 107812" class="cls-3" d="M29.65,27.37a.43.43,0,0,0-.12-.11l-.07-.07h0v0l-.09-.07-.07-.05h0l0,0-.13-.07-.05,0-.05,0-.15,0a1.24,1.24,0,0,0-.16,0l-.11,0h-.1l-.15,0h-.2l.27.07a1,1,0,0,1,.23.11s0,.05,0,.11a0,0,0,0,1,0,0l0,.05,0,.05a0,0,0,0,0,0,0l0,.06h0l0,0s0,0,0,0l.05,0,0,0a.27.27,0,0,1,.1-.06l.11-.06.06,0,.05,0,.06,0v0s0,.07,0,.1h0a.16.16,0,0,1,0,.07.76.76,0,0,0-.11.14c.05,0,.06,0,.1,0l.09,0,.08-.05a.31.31,0,0,1,.2-.09.29.29,0,0,1,0,.09h0s0,0,0,0l-.05.07,0,0v0h0s0,0,0,0l0,.05s0,0,0,0l-.05,0v0s0,0,0,0l.16-.09.05,0v0a.14.14,0,0,0,.08-.05s0,0,0,0h0l0,0h0a.08.08,0,0,1,.08,0s0,.05,0,.08a.11.11,0,0,0,0,.08l.2-.09s.07,0,.09-.09-.09-.08-.14-.1"/>
    <path id="Path_107813" data-name="Path 107813" class="cls-3" d="M37,27.06l0,0,0,0s0,0,0,0l-.06,0,0,0h0l-.05.05,0,0,0,0h-.06l0,0h.12l0,0,.05,0h0l0,0h0v0h0l0,0h0s0,0,0,0l0,0c0-.05,0-.07,0-.11Z"/>
    <path id="Path_107814" data-name="Path 107814" class="cls-3" d="M29.61,27.91l-.09,0h0l-.07,0h0l-.12.07a0,0,0,0,0,0,0s0,0,0,0l.05,0h.15l.09-.05h.05l.08-.05c.06-.06.12-.14.17-.18s0,0,0,0l-.27.12"/>
    <path id="Path_107815" data-name="Path 107815" class="cls-3" d="M23.05,28.58h0a0,0,0,0,1,0,0h0l-.07,0s0,0,0,0l0,0h-.05l0,0,0,0h0l-.17.11,0,0h0l-.07.05s0,0,0,0l0,0s0,0,0,0l-.12.11a.35.35,0,0,0-.05.08s0,0,0,0,0,0,0,0,0,0,.05,0l.05,0v0h0l0,0,.05,0h0l0,0h0l.07-.05h0l.05,0,0,0h0l.11-.06.1-.07a.05.05,0,0,0,0,0,0,0,0,0,1,0,0s0,0,0,0h0l0-.05a.13.13,0,0,1,0-.06s0,0,0,0"/>
    <path id="Path_107816" data-name="Path 107816" class="cls-3" d="M23.55,28.65l-.09,0a.23.23,0,0,1-.1.07v0h0l-.05,0-.05,0h0l-.08.06-.09.05a1.55,1.55,0,0,0-.24.19s0,0,0,0,0,0,0,.05,0,0,.09,0,0,0,0,0l0,0h0l0,0,.07,0,0,0s.05,0,.06,0l.05,0c.06,0,.14-.07.19-.11a.56.56,0,0,1,.18-.07.06.06,0,0,0,0,0,.16.16,0,0,0,.06-.08.08.08,0,0,0-.07-.05"/>
    <path id="Path_107817" data-name="Path 107817" class="cls-3" d="M23.63,29h0a0,0,0,0,0,0,0h-.14l0,0h0l-.18.14-.08.07s0,0,0,0,0,0,0,0a4.25,4.25,0,0,1,.46-.27s0,0,0-.05,0,0,0,0"/>
    <path id="Path_107818" data-name="Path 107818" class="cls-3" d="M36.66,29.14h-.1l-.21,0c-.14,0-.27,0-.41,0h0l-.1,0h0a1.5,1.5,0,0,0-.2,0l0,0a.12.12,0,0,0-.1,0,.09.09,0,0,0,0,.07l0,0v0l0,0h0s0,0,0,.05h.09l0,0h0l.08,0h.37l.13,0h.08l.08,0h.08c.05,0,.09,0,.11-.07a.07.07,0,0,0,.07-.07s0,0,0,0h-.1"/>
    <path id="Path_107819" data-name="Path 107819" class="cls-3" d="M25.37,29.16l-.07.06-.18.14-.08,0,0,0h0l-.1.07h-.05l0,0h0s0,0,0,0l0,0s-.07,0-.09.06h0l-.1.1,0,0s0,0,0,0l.05,0,.05,0h.06l0,0h0s0,0,0,0,0,0,0,0v0l.08-.05.06,0,.06,0a.05.05,0,0,1,0,0l0,0s0,0,0,0l0,0h0s0,0,0,0,0,0,0,0a.27.27,0,0,1,.08-.07l0,0,0,0h0l0,0h0l0,0,0,0a.05.05,0,0,0,0,0s0,0,0,0"/>
    <path id="Path_107820" data-name="Path 107820" class="cls-3" d="M32.39,29.36s0,0,0,0l0,0-.11.06a.6.6,0,0,0-.11.06l-.06,0H32s0,0,0,0h0l0,0,0,0s0,0,0,0a.06.06,0,0,0,0,0H32l0,0,0,0,0,0,0,0a.46.46,0,0,1,.07-.07.15.15,0,0,1,.06,0l0,0h0l0,0,0-.05a.1.1,0,0,0,.05,0s0,0,0,0,0,0,0,0"/>
    <path id="Path_107821" data-name="Path 107821" class="cls-3" d="M24,29.41s0,0,0,0l-.09,0a.09.09,0,0,1-.05,0s0,0-.05,0l0,0a3.83,3.83,0,0,0-.28.29.09.09,0,0,0-.05,0h0l-.06.05s0,0,0,0,0,0,0,0,0,0,0,0h0l0,0h0l.08,0h0l.06-.05h0l0,0,.12-.07h0l0,0a0,0,0,0,1,0,0h0s0-.05.06-.07h0l0,0h0l0,0a.08.08,0,0,0,0-.06s0,0,0,0"/>
    <path id="Path_107822" data-name="Path 107822" class="cls-3" d="M26.31,29.53l-.16.07-.07,0h0a0,0,0,0,1,0,0h0l0,0,0,0,0,0a.06.06,0,0,0,0,.07h0l.12-.1,0,0h0a0,0,0,0,0,0,0h0l0,0,0,0s.1,0,.08-.08,0,0,0,0"/>
    <path id="Path_107823" data-name="Path 107823" class="cls-3" d="M32.53,29.62s0,0-.05,0h-.06l0,0h-.06l0,0-.18.06h0s0,0,0,0,0,0,0,0,0,0,0,0,0,0,0,.06A.24.24,0,0,0,32,30l.06,0h.08s0,0,0,0,0,0,.07-.05l0,0,0,0v0h0v0l.07-.06.2-.18s0,0,0,0-.09,0-.12.07"/>
    <path id="Path_107824" data-name="Path 107824" class="cls-3" d="M32.91,29.68h0l-.1.07,0,0s0,0,0,0h0a.05.05,0,0,1,0,0l0,0-.06,0-.06,0,0,0h0l0,0h0l0,0,0,0s0,0,0,0v0h0l0,0h0s0,0,0,0v0a.09.09,0,0,0,0,.05s0,0,0,0a.2.2,0,0,0,.11,0,.19.19,0,0,0,.12,0l0,0h0s0,0,0,0l0,0,0,0h0l0,0h0a.87.87,0,0,1,.1-.08l.14-.15a0,0,0,0,1,0,0l0-.06h0a0,0,0,0,1,0,0l0-.07s0,0,0,0a.18.18,0,0,1-.07.05"/>
    <path id="Path_107825" data-name="Path 107825" class="cls-3" d="M17.89,31.46H18s0,0,0,0l0,0,.1-.06h0l0,0h0l.05-.05h0l.08-.06.09-.07.15-.11,0,0s0,0,0,0v0s0,0,0,0h0l.06-.05,0,0h0a.46.46,0,0,1,.07-.07s0,0,0,0,0,0,0,0l.12-.11.13-.09h0v0h0s0,0,0,0l.06-.06s.05,0,.07-.06l0,0v0l0,0,0,0,0,0,0,0,0,0c.07-.07.16-.14.23-.22l0,0h0l0,0h0a0,0,0,0,0,0,0h0l0,0,0,0h0l0,0h0l0,0s0,0,0,0l-.15.11,0,0,0,0s-.05,0-.06,0,0,0-.05,0a.08.08,0,0,1-.05.05H19l-.07.06h0l0,0h0l-.05,0s0,0,0,0l0,0,0,0h-.06l0,0-.13.1h0a.19.19,0,0,1-.1.05l-.11.09-.1.07h0s0,0,0,0h0l0,0h0l-.08.08s0,0,0,0,0,0,0,0v0h0a1.62,1.62,0,0,0-.18.2s0,0,0,0l.15,0"/>
    <path id="Path_107826" data-name="Path 107826" class="cls-3" d="M39.91,30.17l-.11.1-.06.05-.09.09h0l0,0-.13.12h0l0,0,0,0h0l0,0,0,0h0l-.12.12-.05,0,0,0a1.29,1.29,0,0,1-.17.16l-.07.05h0s0,0,0,0h0l0,0-.06,0,0,0h0v0s0,0,0,0l0,0h0l0,0-.07.05h0l-.19.13s0,0,0,0c.26,0,.55,0,.79.07a.22.22,0,0,0,.14,0,.48.48,0,0,0,.11-.09l0-.05a2.09,2.09,0,0,1,.22-.2l.06-.05,0,0,.08-.07.06-.05a3.2,3.2,0,0,0,.27-.25h0l.07-.08,0,0s0,0,0,0l.08-.09.11-.11h0l.08-.1.06-.08a.05.05,0,0,0,0,0l-.09.07-.08.06,0,.06-.1.07,0,0s0,0,0,0l-.08.05h0l0,0,0,0h0l-.15.12,0,0h0s0,0,0,0l-.06.05-.06,0a0,0,0,0,0,0,0h0l0,.05,0,0h0l0,0-.08.08h0l0,0-.09.08h0l0,0,0,0h-.05s0,0,0,0l0,0,0,0h0l0,0h-.16a.08.08,0,0,1,0-.08h0l.19-.16h0l0,0,.09-.07s0,0,0,0l.08-.08.06,0,0,0a0,0,0,0,0,0,0s0,0,0,0l.06-.06,0,0s.05,0,.06,0,0,0,0,0l.05-.05.15-.15a0,0,0,0,1,0,0,0,0,0,0,1,0,0l0,0v0s0,0,0,0a.15.15,0,0,0,.05-.06h0v0h0v0l0,0s0,0,0,0,0,0,0,0v0l0-.05,0,0s0,0,0,0,0,0,0,0a.31.31,0,0,1-.11.09"/>
    <path id="Path_107827" data-name="Path 107827" class="cls-3" d="M38.69,30.17l-.13.08,0,0s0,0,0,0a.69.69,0,0,0-.13.11s0,0,0,0l-.05,0h0l-.08.07-.07,0s0,0,0,0h0l0,0-.13.11a2.75,2.75,0,0,1-.26.22s0,0,0,0-.13.1-.19.15l0,0-.09.08,0,0-.09.07,0,0-.07.06s0,0,0,0a.21.21,0,0,0,.11,0l.12,0h.17l.21,0h.23a.27.27,0,0,0,.08-.07l.16-.15.17-.15.08-.07.1-.09s0,0,0,0h0l0,0s0,0,0,0,0,0,0,0l.09-.08v0h0l0,0,.1-.11.07-.08,0,0a0,0,0,0,1,0,0,.09.09,0,0,0,.06-.05l0,0,0-.05v0h0s0,0,0,0,.05-.05.05-.08,0,0-.07.05l0,0,0,0,0,0h0l-.1.09a1.42,1.42,0,0,1-.13.12l-.13.12,0,0,0,0h0s0,0,0,.05a.09.09,0,0,0-.06,0l0,0-.08.06h0l-.06.06s0,0-.05,0l-.14.11a.28.28,0,0,1-.13,0l-.11,0-.25.06a.08.08,0,0,1-.07,0,.16.16,0,0,1,.08-.06.23.23,0,0,0,.07-.07s0-.05.09-.05l.14-.13L37.9,31l.2-.2,0,0a.47.47,0,0,0,.1-.1,1.58,1.58,0,0,0,.13-.13s0,0,0,0l.1-.09s0,0,.05-.05a.23.23,0,0,1,.07-.07l0-.05.07-.06.06-.08s0,0,0,0-.05,0-.06.05"/>
    <path id="Path_107828" data-name="Path 107828" class="cls-3" d="M18.75,30.17l-.07,0h0l-.05,0-.06.05-.07,0,0,0,0,0h0a0,0,0,0,1,0,0h-.07l-.06.05h0l-.08.05s0,0,0,0h0l0,0,0,0-.15.12a.18.18,0,0,1-.07,0h0l0,0s0,0,0,0h0a.94.94,0,0,0-.1.1l-.07.06,0,0a.1.1,0,0,0,0,0h0s-.06,0-.08.06l0,0,0,0s0,0,0,0l0,0s0,0,0,0a.27.27,0,0,0-.07.08s0,0,0,.06.08,0,.12,0h.14l.06,0s0,0,.06,0h0s0,0,0,0h0v0h0l0,0,0,0,0,0,0,0h0a0,0,0,0,0,0,0l0,0,.09-.08L18,31s0,0,0,0l0,0,0,0a.18.18,0,0,0,.07-.05l0,0,.07-.09h0v0h0v0h0l0,0v0l.07-.07h0v0l0,0a.34.34,0,0,1,.12-.12,1.06,1.06,0,0,1,.15-.15l.07-.06.07-.08h0s-.06,0-.09,0"/>
    <path id="Path_107829" data-name="Path 107829" class="cls-3" d="M30.22,30.32l-.23.13-.1.06h0l0,0a.12.12,0,0,0,0,.05h0v0h0l0,0,0,0-.06.05,0,0a.09.09,0,0,0,0,0s0,0,.07,0h0l.1,0s0,0,0,0h0l0,0,.12-.11.12-.11.19-.19a.07.07,0,0,1,.05,0s0,0,0,0,0,0,0,0,0,0-.05.05"/>
    <path id="Path_107830" data-name="Path 107830" class="cls-3" d="M41.11,30.33h0s0,0,0,0,0,0,0,0l-.06,0a0,0,0,0,1,0,0s0,0,0,0h0l-.09.07a.47.47,0,0,0-.1.1h0a.35.35,0,0,1,0,.11l0,.06a.08.08,0,0,0,0,.07s0-.05.06-.07l.07-.07s0,0,0,0l0-.05v0l0,0,.09-.13,0,0,.06-.07,0-.07h0l0,0"/>
    <path id="Path_107831" data-name="Path 107831" class="cls-3" d="M17.88,30.38h-.05l-.09,0a0,0,0,0,0,0,0l-.07.06,0,0h0l-.07.06,0,0h0l-.19.16h0v0l-.05,0,0,0-.09.08-.06.05,0,0H17l0,0h0l0,0h0s0,0,0,0l-.07.05h0l-.09.13a1.09,1.09,0,0,0-.08.15l.12,0a.47.47,0,0,0,.15-.06l.09-.06a.05.05,0,0,0,0,0s0,0,.05-.06a.52.52,0,0,0,.11-.1l.11-.11.1-.11.1-.12,0,0,0,0v0h0v0h0s0,0,0,0h0l0-.05a2.18,2.18,0,0,1,.22-.21s0,0,0,0Z"/>
    <path id="Path_107832" data-name="Path 107832" class="cls-3" d="M41.55,30.49h0l-.07,0h0s0,0,0,0h0l0,0,0,0-.05,0-.12.09a.21.21,0,0,1-.06.1l0,0h0L41,31l0,0s0,0,0,0h0l0,0h0l0,0c0,.05-.11.06-.15.1l-.31.2-.16.12h0l-.07.06s0,0,0,0,0,0,0,0,0,0,.08,0l.1,0h0l.1,0h0s0,0,0,0h0a.05.05,0,0,1,0,0v0h0l0,0h0a.05.05,0,0,1,0,0h0l0,0a.57.57,0,0,1,.13-.1l0-.05h0l0,0,0,0,0-.05,0,0s0,0,0,0h0l0,0h0v0h0s0,0,0,0,0,0,0,0a.15.15,0,0,0,.06-.05s0,0,0,0l.05,0,0-.07,0,0,0,0h0v0l0,0v0a.21.21,0,0,1,0-.06s0,0,0,0l0,0s0,0,0-.05,0,0,0,0h0"/>
    <path id="Path_107833" data-name="Path 107833" class="cls-3" d="M41.11,31.59l.18-.11.05,0,0,0h0l0,0,0,0h0l0,0s0,0,0,0h0a.1.1,0,0,1,0-.05l0,0,0,0s0,0,0,0h0l0,0h0v0h0v0l0,0,.09-.1,0,0s0,0,0,0a.6.6,0,0,0,.08-.08v0s0,0,.05-.08,0,0,0,0h0s0,0,0-.06h0l0,0h0l0,0h0a.76.76,0,0,0-.09.09l0,0,0,0,0,0,0,0h0l-.06.05-.09.06-.06,0v0h0l0,0-.12.1,0,0,0,0-.08.06-.09.07-.18.11h0l0,0-.14.11,0,0-.06.07s0,0,0,0a.94.94,0,0,0,.43-.13"/>
    <path id="Path_107834" data-name="Path 107834" class="cls-3" d="M30.58,30.54l-.2.1h-.05l-.07.05h-.07l0,0h0l0,0-.08,0h0s0,0,0,0a.46.46,0,0,1-.07.07h0s0,0,0,0L29.8,31a.09.09,0,0,0,.06.06h.08l0,0,.1-.05,0,0,0,0,.06,0a.27.27,0,0,0,.08-.07l0,0,0,0,0,0,.07-.06,0,0a0,0,0,0,1,0,0h0l0,0,0,0,0,0s0,0,0,0Z"/>
    <path id="Path_107835" data-name="Path 107835" class="cls-3" d="M30.84,30.71l-.11.07,0,0,0,0-.05,0h-.05l-.07,0,0,0h0l-.06.06,0,0-.15.11h0s-.06,0-.07.05a.53.53,0,0,0,.17.08l0,0h0s0,0,0,0h0l0,0h0l.07-.05,0,0,0,0s.1-.06.14-.1a.81.81,0,0,1,.14-.12s0,0,0-.05l0,0a.36.36,0,0,0,.08-.12s0,0,0,0a.21.21,0,0,1-.1.06"/>
    <path id="Path_107836" data-name="Path 107836" class="cls-3" d="M40.57,30.77h0l-.08.06-.07.05,0,0-.1.07,0,0,0,0-.06,0,0,0h0l0,0h0l0,0,0,0h0a.24.24,0,0,1-.09.08h0l-.07.06h0l0,0-.08.09a.14.14,0,0,0-.07.08h.09l0,0h0l.05-.05.09,0h0l.05,0,.08,0,.07,0a.1.1,0,0,1,0,0h0l0,0h0l0,0s0,0,0,0l.06-.06.09-.09,0-.05a0,0,0,0,0,0,0h0v0s0,0,0,0,0-.09,0-.15Z"/>
    <path id="Path_107837" data-name="Path 107837" class="cls-3" d="M41.47,31.77s0,0,0,0a1.48,1.48,0,0,0,.29-.12l0,0,.1-.09h0l0,0h0l0,0,0,0,0,0h0v0h0l0,0h0s0,0,0,0h0l.07-.07,0,0,0,0,0,0,.09-.12a.83.83,0,0,0,.08-.12s0,0,0-.05,0,0-.08,0-.06.06-.1.09l-.1.1s0,0,0,0l0,0,0,0-.06,0-.05.05a.09.09,0,0,0,0,0s0,0,0,0h0l0,0h0l0,0-.1.07,0,0-.27.18h0l-.05,0,0,0s0,0,0,0a.16.16,0,0,0-.06.08s.11,0,.15,0"/>
    <path id="Path_107838" data-name="Path 107838" class="cls-3" d="M31.17,30.89a0,0,0,0,0,0,0l-.05,0L31,31,31,31s0,0,0,0H30.9s-.06.05-.09.06,0,0,0,0l-.08.06a.51.51,0,0,1-.16.13l0,0a.08.08,0,0,0,0,0,.1.1,0,0,0,0,.05s.06,0,.1,0,0,0,.05,0h0v0h0s0,0,0,0h0l0,0,0,0h0s0,0,0,0,0-.07.1-.08a.22.22,0,0,1,.05-.08.87.87,0,0,0,.09-.11h0a0,0,0,0,1,0,0s.05,0,.06-.07l0,0s0,0,0,0l0,0"/>
    <path id="Path_107839" data-name="Path 107839" class="cls-3" d="M31.43,31.19l-.13.07-.14.06s0,0,0,0a.07.07,0,0,0-.05,0h0a.5.5,0,0,1-.07.08l-.06,0a.1.1,0,0,1-.05,0l-.06,0-.05,0,0,0a.21.21,0,0,0,.1.06h.06a.15.15,0,0,0,.11,0s0,0,0,0l.06,0,.08,0,0,0s0,0,0,0h0s0-.05.06-.08h0s0,0,0,0h0l0,0,0,0h0a.18.18,0,0,1,.05-.07h0"/>
    <path id="Path_107840" data-name="Path 107840" class="cls-3" d="M32,31.24l-.09.07,0,0s0,0,0,0l-.09.06,0,0-.1.06,0,0-.08.06,0,0-.05,0-.06,0s0,0-.07,0l-.07,0,0,0h-.05v0s0,0,0,0l0,0a.09.09,0,0,0,0,.06.24.24,0,0,0,.22,0l.09,0h.05v0s.08,0,.1,0l0,0h0v0l0,0s0,0,0,.07l-.08.06h0a.1.1,0,0,0-.05,0,.06.06,0,0,0-.06,0h.11a1.38,1.38,0,0,0,.2,0l.13-.05h0s0,0,0,0,0,0,0,.06,0,0,0,0,0,0,0,0a.05.05,0,0,0,0,0,1.21,1.21,0,0,1-.16.16l-.05,0s-.05,0-.05,0a.21.21,0,0,0,.15,0l.07,0,.08,0h0l.08-.06h0l.14-.11,0,0s0,0,.05,0h0l0,0a.76.76,0,0,1,.09-.09h0s0,0,0,0,0,0,0,0a.36.36,0,0,0,0-.09l-.05,0s0,0,0,0l-.08,0-.08,0h-.11s0,0,0,0,.05-.05.07-.09l.09-.08s0,0,0-.06,0,0,0-.06,0,0,0-.05,0,0,0,0h0v0s0-.05,0-.07a.11.11,0,0,0,0,0s0,0,0,0l0,0-.14.12-.1.09s0,0,0,0h0l-.08.06-.06,0h0s0,0,0,0a.12.12,0,0,1-.1,0,.16.16,0,0,1,0-.09s0,0,0,0l0,0a.08.08,0,0,0,0,0,.15.15,0,0,0,.06-.09s0,0,.05-.05h0l.06-.09a.93.93,0,0,0,0-.1Z"/>
    <path id="Path_107841" data-name="Path 107841" class="cls-3" d="M28.57,28.71h0a.56.56,0,0,1-.05.08l0,.05h0s0,0,0,0l0,0a.08.08,0,0,0,0,.05v0h0a.06.06,0,0,0,0,0,.24.24,0,0,0,.08.06.34.34,0,0,0,.18,0l.3-.11,0,0,0,0,0,0,0,0,0,0,0,0-.05.06s-.05,0-.06.05,0,0,0,0,0,0,0,0a.06.06,0,0,0,0,.06.43.43,0,0,0,.13-.05h.05l.09,0,.09,0s0,0,0,.05l-.09.11a.05.05,0,0,0,0,0l-.09.09,0,0a.07.07,0,0,0,0,.06s0,0,0,0h0v0s0,0,0,0,0,0,0,.05,0,0,0,.06l0,.05s0,0,0,.07-.07,0-.12,0,0,0-.07,0,0,0,0,0h0l-.09.08-.07,0s0,0-.06.05,0,0,0,0,0,0,0,0,0,0,0,0,0,0-.06,0l-.11.07s0,0,0,0h0s0,0-.07,0h-.1s0,0,0,0a.11.11,0,0,0,.07-.06l.12-.11.1-.1h0s0,0,0,0h0a.46.46,0,0,1,.07-.07l.07-.05s0,0,0,0,0,0,0,0h0l0-.06.05-.05a0,0,0,0,1,0,0s0,0,0,0,0-.11,0-.14a1.18,1.18,0,0,0-.19.11l-.06.05h0s0,0,0,0h0l-.12.08-.35.24s0,0,0,0,0-.07,0-.09l0,0,0,0,.14-.15s0,0,0,0l.2-.22.06-.05a.18.18,0,0,1,.05-.07.1.1,0,0,0-.05-.12l-.23.15-.17.12a.09.09,0,0,1-.06,0l0-.05v0l0,0v0l0,0s0,0,0,0l.06-.08h0l0-.05a.22.22,0,0,0,.05-.08.08.08,0,0,0,0-.05l0,0h0a.27.27,0,0,0-.14.05h0l0,0h0s-.08.06-.13,0,0,0,0,0v0h0l0,0s0,0,0,0l0,0,0,0h-.23l0,0h-.06s0,0,0,0,0,0,0,0l0-.05h0l0,0,.06,0,.14-.05h0l0,0,.05,0,.06,0,.19-.1.27-.15a1,1,0,0,0-.15.25s0,0,0,0,0,0,0,0,0,0,0,0a.11.11,0,0,0,.06,0h.06l.06,0,.15-.08.1-.06"/>
    <path id="Path_107842" data-name="Path 107842" class="cls-3" d="M29.39,29.62h0a.22.22,0,0,1-.05.08l-.07.08h0l-.06.06v0l-.06.06s0,0-.06.05,0,0,0,0l-.07.07s0,0-.07,0l-.06.06-.05,0h0l-.07.06,0,0,0,0h0v0h0l0,0-.08,0,0,0h0l-.1.06c-.06,0-.08.05-.13.06s0,0,0,0a1.17,1.17,0,0,1,.16-.15l0,0,0,0v0h0a0,0,0,0,1,0,0s0,0,0,0l.12-.12h0l0,0h0a.16.16,0,0,0,0-.07s0,0,0,0,0,0,0,0l0,0,0,0,.05,0,.05,0h0s0,0,0,0l0,0h0l0,0h0l.09-.05.18-.12"/>
    <path id="Path_107843" data-name="Path 107843" class="cls-3" d="M21.8,29.68s0,0,0,0l0,0-.13.1a0,0,0,0,1,0,0s0,0,0,0l0,0,0,0,0,0h0l0,0,0,0,0,0,0,0,0,0,0,0a.05.05,0,0,1,0,0,.27.27,0,0,1-.07.08l0,0h0l0,0H21s0,0-.07,0,0,0,.06-.06l.06-.06.05,0,.1-.1h0L21.3,30h0l.07-.05h0a0,0,0,0,1,0,0s0,0,0,0l0,0,.27-.13"/>
    <path id="Path_107844" data-name="Path 107844" class="cls-3" d="M20.46,29.82s0,0,0,0,0,0,0,0v0l0,0-.13.13-.19.19-.07.07-.06.06,0,0-.12.11s0,0,0,0l0,0s0,0,0,.05l-.15.11-.1.08,0,0h0l0,0,0,0-.08.06v0h0l0,0-.07.05h0l0,0-.07.05-.07.08,0,0v0s-.08,0-.09.07a.1.1,0,0,0,0,.09h0a.07.07,0,0,0,.07,0H19l0,0,0,0h0l.12-.1s0,0,0,0h0l.1-.09.05,0,.05,0a.81.81,0,0,1,.1-.09l.11-.09a.23.23,0,0,1,.07-.07,0,0,0,0,1,0,0h0l0,0,.12-.12h0l.1-.08h0l0,0h0a.24.24,0,0,0,.08-.06l0,0h0l.05-.05h0s0,0,0,0h0s0,0,0,0,0,0,0,0l.07,0,0,0s0,0,0,0l0,0h0a.65.65,0,0,1,.15-.1l-.17.18v0s0,0,0,0,0,0,0,0a.06.06,0,0,0-.05,0h0a0,0,0,0,1,0,0v0h0a.39.39,0,0,0-.08.1.45.45,0,0,0-.13.1l-.1.08v0a2.73,2.73,0,0,0-.25.23l0,0-.1.06-.07.06,0,0s0,0,0,0l0,0h0s0,0,0,0l-.06.05-.1.1a.8.8,0,0,0-.13.13s0,0-.05,0l-.06,0s0,0,0,0h-.2c-.24,0-.55,0-.8,0,0,0,0,0,0,0v0h0a.18.18,0,0,1,.07-.05h0l0,0a.1.1,0,0,0,.05,0h0s0,0,0,0l0,0h0l0,0,0,0h0v0h0l0,0,.09,0,0-.05h0s0,0,0,0l.05,0a.39.39,0,0,1,.1-.08c.1-.1.21-.18.32-.28l0,0,.12-.1.06-.05h0s0,0,0,0h0l0,0,.07-.06,0,0h0l0,0h0s.05,0,.08-.06l.06,0a.71.71,0,0,1,.09-.07l0,0L20,30.2h0l0,0,0,0,.06,0,0,0s0,0,0,0l.05,0h0l.06,0h0l0,0,0,0,.06,0s0-.05.06,0"/>
    <path id="Path_107845" data-name="Path 107845" class="cls-3" d="M37.49,30.56s0,0,.06,0l.1-.07s0,0,0,0a.18.18,0,0,0,.07-.05h0l.06,0s0,0,.05,0,0,0,0,0l0,0,0,0s0,0,0,0l.15-.11s.05-.05.09-.05l-.11.13a.87.87,0,0,1-.08.1s0,0,0,0h0l-.07.08-.06,0a.31.31,0,0,0-.09.07.2.2,0,0,0-.08,0,.2.2,0,0,0-.08,0h0l-.14,0"/>
    <path id="Path_107846" data-name="Path 107846" class="cls-3" d="M16.85,30.68l-.06,0h-.06s0,0-.05.05l-.05,0h0l0,0-.08.07-.17.15-.06.05-.06,0-.07.06,0,0v.23h0l.08,0h0s0,0,0,0l0,0h0l0,0,0,0h0v0h0v0h0l0,0h0s0,0,.06-.07,0,0,0,0a.21.21,0,0,0,0-.06s.05-.05.05-.06l0,0a.21.21,0,0,1,0-.06v0h0s0,0,0,0h0v0h0s0,0,0,0v0l0,0v0h0l0,0s0,0,0,0"/>
    <path id="Path_107847" data-name="Path 107847" class="cls-3" d="M43.26,32.14l-.3,0-.22,0-.23,0h-.1s0,0,0,0h-.11l-.15,0h-.34l-.32,0-.38,0h-.4l-.33,0-.12,0h-.07l-.26,0-.26,0h-.59a8.81,8.81,0,0,1-.89,0h-.39l-.23,0h-.21l-.13,0h-.14s0,0,0,0H37a.19.19,0,0,0-.13,0,.22.22,0,0,0-.14,0,2.13,2.13,0,0,0-.25,0l0,0a.15.15,0,0,1,0-.07s0,0,.07-.06,0,0,.06,0l0,0,0,0h0s0,0,0,0l0,0s0,0,0,0,0,0,0-.06l.06,0v0s0,0,0,0h0l.05,0s0,0,0,0l.05,0,.07-.08,0,0v0l.1-.08a.08.08,0,0,1,0,0h0a.1.1,0,0,0,.05,0l0,0s0,0,0,0,.06-.05.09-.08,0,0,0,0a1,1,0,0,0-.32.13l-.06,0h0a1.07,1.07,0,0,0-.16.14l0,0,0,0-.08.06,0,0,0,0,0,0,0,0-.11.08,0,0h0l-.05,0-.17.1s-.16.11-.2.06l0,0s0,0,0,0,0,0,0,0a.05.05,0,0,1,0,0l0-.06a0,0,0,0,1,0,0,.81.81,0,0,1,.1-.09l0-.05.15-.13.06,0,0-.05s0,0,0,0l.13-.11.18-.16h0s0,0,0,0h0l.17-.15v0l0,0v0h0a.05.05,0,0,1,0,0s0,0,0,0l0,0,0-.06.06-.07,0,0,0,0s0,0,0,0h0s.07-.06.09-.11l-.09.06-.14.1-.06.06h0l-.11.1,0,0-.05,0h0v0s0,0,0,0l0,0s0,0,0,0l-.08.06-.07.06,0,0,0,0h0l0,0-.05,0h0l0,0h0l0,0h0a.94.94,0,0,1-.12.09l-.06,0,0,0-.05,0a.94.94,0,0,1-.12.09l-.07.05,0,0,0,0,0,0,0,0h0l0,0h0v0h-.05l-.08,0-.06,0h-.07s0,0,0,0,0,0,0,0a.17.17,0,0,1,.06-.06l.07,0s0,0,0,0h0a0,0,0,0,1,0,0l0,0,0,0h0v0l0,0,0,0,0,0h0l.07-.06.16-.14s0,0,0,0v0l0,0s0,0,0,0a.86.86,0,0,0,.14-.13l.07-.07,0-.05,0,0h0l0,0h0v0h0a0,0,0,0,1,0,0l0-.07,0,0,0,0h0s0,0,0,0a.05.05,0,0,0,0,0l-.05,0-.08.05-.09.06a.44.44,0,0,0-.11.09h0s0,0,0,0h-.06l0,0s0,0-.06,0l0,0h0l-.06.05,0,0h0s0,0,0,0l0,0,0,0-.31.19-.14.08-.06,0s0,0,0,0h0s0,0,0,0h0a.07.07,0,0,1,0-.06h0a0,0,0,0,0,0,0l0,0h0l0,0,0,0h0l.08-.07s0,0,0,0a.6.6,0,0,1,.08-.08h0s0,0,0,0,0,0,0,0l0,0,0,0,0,0a.43.43,0,0,1,.11-.12h0a.45.45,0,0,1,.07-.07l0,0s0,0,0,0,0,0,0,0l0,0h0s0,0,0,0,0,0,0,0v0l0,0s0,0,0,0h0l0,0h0v0h0l-.08,0s0,0,0,0v0h0l0,0-.05,0h0l0,0a0,0,0,0,1,0,0,1.07,1.07,0,0,1-.22.15h0l0,0-.15.08a.19.19,0,0,1-.1,0s0-.06,0-.09h0a.08.08,0,0,1,0,0,.24.24,0,0,1,.08-.06s0,0,0-.07a0,0,0,0,0,0,0l.06-.05,0,0a1.37,1.37,0,0,0,.17-.17l0,0h0l0,0a.1.1,0,0,1,.05-.06s0,0,0-.06,0,0,0,0-.06,0-.08,0h0l0,0h0l-.07.06h0l0,0-.05,0,0,0h0s0,0,0,0l0,0h-.05a.08.08,0,0,0,0,0l0,0h0l-.06,0a.08.08,0,0,1-.06,0s-.11,0-.12,0,0,0,0,0a.08.08,0,0,1,0-.05h0l0,0h0a.05.05,0,0,0,0,0l0,0,0,0,0,0h0l.06-.08,0,0,0,0,.06-.08s0,0,0-.06,0,0-.07,0l-.1.06h0l-.06,0,0,0s0,0,0,0h-.05a0,0,0,0,0,0,0h0v0h0A.1.1,0,0,1,35,30c-.06,0-.07,0-.08-.09a.33.33,0,0,0,.07-.13,0,0,0,0,0,0,0l0,0s0,0,0,0h0v0l.09-.09s0,0,0,0l0,0s0,0,0,0a.19.19,0,0,1-.08,0l-.06,0h0l0,0h0l0,0,0,0s0,0,0,0h0s0,0,0,0H34.8s0,0,0,0l0,0a.12.12,0,0,0,0,.08l0,.07s0,0,0,0l0,.07v0s0,0,0,0,0,0,0,0a.26.26,0,0,0,0,.08s0,0,0,0,0,0,0,0a.22.22,0,0,1,0,.08s0,0,0,.06,0,0,0,.07a.2.2,0,0,0,0,.11.36.36,0,0,0,0,.09l0,.09h0s0,0,0,0a.06.06,0,0,1,0,0h0s0,0,0,.06,0,.1,0,.1h0a.25.25,0,0,0,0,.08v.05a.09.09,0,0,0,0,.05s0,0,0,0a.41.41,0,0,1,0,.11v0a.22.22,0,0,1,0,.08.59.59,0,0,1,0,.08.11.11,0,0,1,0,0v0a.12.12,0,0,1,0,0h0l-.07.07-.08.05h0l-.06,0h-.13s0,0,0,0,0,0,0,0h0s0,0,0,0,0,0,0,0l0-.05s0-.06.07-.06,0,0,0,0a.12.12,0,0,0,.06-.06l0,0s0,0,0,0a.36.36,0,0,1,0-.11s0,0,0,0h0l0,0s0,0-.05,0-.1,0-.1,0a.11.11,0,0,1,0-.08l.06-.08s0,0,0,0l0,0v0l0-.05a.07.07,0,0,0,0,0s0-.05,0-.07,0,0,0,0a.26.26,0,0,0-.09.05.19.19,0,0,1-.1.05.08.08,0,0,1-.07,0,0,0,0,0,1,0,0v0a.31.31,0,0,1,.07-.09h0a.43.43,0,0,1,.1-.09s0,0,0,0h-.2s0,0-.05,0,0,0,0-.06a0,0,0,0,0,0,0,1.34,1.34,0,0,0-.07-.18s0,0,0-.05,0,0,0,0a.34.34,0,0,0-.06-.12c0-.07-.06-.1-.06-.18a.21.21,0,0,1,0-.07s0,0,0-.06l0,0s0,0,0-.05a.16.16,0,0,1,0-.09.08.08,0,0,1,0,0,.09.09,0,0,1,0-.05s0-.05,0-.08a.45.45,0,0,0,.1-.13s0,0,0,0h-.05a.23.23,0,0,1-.11,0v-.2l.05-.05.07-.05,0,0a.1.1,0,0,1,0,0,.2.2,0,0,1,.09-.09s0,0,0,0h0s0,0,0,0l0-.08,0,0s0,0,0,0a0,0,0,0,0,0,0,.08.08,0,0,0,0-.07l0,0s0,0,0,0l-.17.17-.14.1-.15.08c0-.08-.1-.14-.08-.24a.22.22,0,0,0,.09-.07h0s0,0,0-.05a.08.08,0,0,0,0,0h.05l.17-.13s0,0,0,0,0,0,0,0,0,0,0,0h0a.45.45,0,0,0,.13-.1l.05,0s0-.05.06-.06h0a0,0,0,0,1,0,0l0,0a.31.31,0,0,1,0,.08v0a.61.61,0,0,1,0,.14v0h0v0s0,0,0,.05,0,0,0,0a.46.46,0,0,0,0,.2v.05a.13.13,0,0,1,0,.06s0,.08,0,.11v.07s0,0,0,0,0,0,0,0,0-.1,0-.15,0,0,0,0l0,0s0,0,0-.05l0,0a.2.2,0,0,0,0-.08v0a.54.54,0,0,1,.07-.13l0,0,0,0s0,0,0,0a.08.08,0,0,1,0,0h0s0,0,0-.06l0-.08v-.12a.25.25,0,0,0,0-.08v-.08s0-.05,0-.07,0-.05,0-.07a.09.09,0,0,1,0-.05.07.07,0,0,1,0-.05s0,0,0,0a.34.34,0,0,1,0-.1v0a.49.49,0,0,1,0-.11v0h0a1.17,1.17,0,0,0-.05-.11.91.91,0,0,0-.07-.14s0,0,0,0,0,0,0,0l-.06-.08,0,0,0,0,0-.06s0,0,0,0l0,0L34.25,27v0h0s0,0,0,0l-.14-.13a0,0,0,0,0,0,0,2.14,2.14,0,0,0,.13.19l.12.19,0,.06h0l0,0v0l.06.13s0,0,0,.06a.34.34,0,0,1,.05.11s0,0,0,0v.09l0,.09a.14.14,0,0,1,0,.07s0,0,0,0l.21-.08a.1.1,0,0,1,0,.09.08.08,0,0,1,0,0,.14.14,0,0,0,0,.06,0,0,0,0,0,0,0h0a.3.3,0,0,0,0,.08l0,0a0,0,0,0,1,0,0h0l0,0a.21.21,0,0,1-.06.1l-.08.1-.09.1,0,0,0,0s0,0,0,0l0,0-.13.1,0,0s-.05.06-.09.06a1.27,1.27,0,0,0-.1-.12s.06,0,.07-.06l0-.05h0s0,0,0,0l0,0,0,0a0,0,0,0,0,0,0,1.13,1.13,0,0,0,.1-.13l0-.05s.05,0,.05,0a.05.05,0,0,1,0,0s0,0,0,0,0,0,0,0l0,0s0,0,0,0,0,0,0,0,0,0,0,0l0,0,0,0h0l0,0-.06,0h0l-.24.13,0,0a.43.43,0,0,1-.1-.09l.06,0a.35.35,0,0,1,.11-.1.1.1,0,0,0,.05,0l0,0h0l0,0a.29.29,0,0,0,.1-.12h0s0,0,0,0,0,0,0,0A.13.13,0,0,1,34,28s0,0,0,0l0,0s0-.05,0-.07h0l0,0h0s0,0,0,0,0,0,0-.06-.1.13-.16.18a.24.24,0,0,0-.09.08l-.18.14-.09.07h0a.18.18,0,0,1-.07.05h0l0,0-.05,0,0,0-.07,0-.06,0,0,0s0,0-.06,0a.1.1,0,0,1,0,0s0,0,0,0,0,0,0,0l0,0,0,0,0,0h0s0,0,0,0h0l.05,0,0,0h0v0h0l0,0,0-.05.07-.06,0,0s0,0,0,0l0,0v0l.06-.06s0,0,0-.06a.09.09,0,0,0-.07,0h0a1.57,1.57,0,0,1-.24.21.24.24,0,0,1-.12.07,1.2,1.2,0,0,1-.26.18s-.05,0-.07,0-.05,0-.08-.06-.06,0-.07,0a.36.36,0,0,1,.14-.16v0l.07,0,0,0h0s0,0,0,0h0l.12-.11s0,0,0,0l-.17.08-.17.08-.24.14-.09,0s0,0-.07,0-.06,0-.07,0,0,0,0,0,0-.1.06-.14l0,0,0,0a0,0,0,0,0,0,0h0l0,0a.3.3,0,0,0,.08-.08h0l0,0h0v0h0l0,0h0s0,0,0,0a.56.56,0,0,0-.17.09l-.13.06-.06,0h0l-.21.12-.05,0,0,0H32l0,0s0,0,0-.06l0,0,0,0,0,0,0,0h0l.06-.06h0l0-.06,0,0h0l0,0h0l0,0s0,0,0,0l-.2.09-.05,0h0l-.07,0-.1.05H31.8s-.05,0-.08,0,0,0,0-.06,0,0,0,0,0,0,0,0h0v0h0l.05-.06,0,0s0,0,0,0h-.06l-.05,0h-.05a.29.29,0,0,0-.1,0l-.22.05s0,0,0,0,0-.06,0-.09l.06-.05.06,0s0,0,0,0,0,0,0,0l0,0s0,0,0,0,0,0,0,0l-.29.1-.09,0h0a.09.09,0,0,1-.1,0s0,0,0,0l-.06,0-.05,0-.06,0h0l-.05,0-.1-.07-.06,0h0l0,0h0l-.09-.09-.08-.05s0,0,0,0h0l0,0s0,0,0,0h0a.08.08,0,0,1,0-.09h0l0,0,.09-.06.06-.06a.25.25,0,0,0,0-.07l-.07,0,0,0,0,0-.08,0-.07,0h-.07l0,0a.25.25,0,0,1-.12,0l0,0s0-.06,0-.1l.05-.05.05,0h0l0,0h0l0,0,0,0h0l0,0s0,0,0,0,0,0,0-.05a.91.91,0,0,0-.14.07l0,0-.11.06-.1,0-.06,0h-.07l-.06,0h-.05s-.05,0-.06,0,0,0,0,0v0a.08.08,0,0,0,0,0l0,0a.94.94,0,0,0,.1-.1s0,0,.05-.05l.05-.06h0l.06-.07s0,0,0,0l-.1.06-.08.05,0,0-.16.08v0h0a.08.08,0,0,0,0,0h0l0,0-.09,0h0l0,0h0l0,0-.06,0,0,0a.08.08,0,0,1,0-.08l0-.05.17-.21v0s0,0,0,0l-.18.12-.19.1-.22.1a.17.17,0,0,1-.14,0,.07.07,0,0,1,0-.08h0s0,0,0,0l0,0s0,0,0,0a.16.16,0,0,0,.06-.08l.05-.09.06-.08s.05,0,.06-.07l-.12.05-.09.06-.06,0h0v0h0l-.07.06h0l0,0-.08,0,0,0h0l-.11,0h-.09a.12.12,0,0,1,0-.05s0,0,0-.05h0l0,0,.07-.09v0l0,0,0-.05h0l0-.05h0l-.06,0-.09,0,0,0a1.24,1.24,0,0,1-.2.1l0,0a.2.2,0,0,1-.11,0,.08.08,0,0,1,0-.1.24.24,0,0,1,.09-.08l0,0h0l0,0,.05,0s0,0,0,0h0s0-.05.07-.06a.12.12,0,0,1,.05,0l0,0,.06,0s0,0,0,0a1.4,1.4,0,0,1-.35.1.3.3,0,0,1,0-.08c0-.05,0-.1,0-.15a.61.61,0,0,1,0-.11s0,0,0,0a.69.69,0,0,1,0,.2v0a.78.78,0,0,1,0,.14l-.06.12,0,0-.07.11,0,0,0,0a.1.1,0,0,0,0,.05l0,0a.27.27,0,0,1-.07.08s0,0-.07,0-.12.07-.17.12a.91.91,0,0,1-.17.09l-.06,0,0,0h0a.19.19,0,0,1-.1,0l-.08,0-.4.05h-.42a.17.17,0,0,1-.1,0s-.06,0-.07,0,0,0,0,0l-.07,0s0,0,0,0,0,0,0,0h-.06c-.06,0-.13,0-.17,0l-.09,0L25,26.38h0l-.06,0s0,0,0,0l-.08,0h0l-.05,0,0,0h0v0h0a0,0,0,0,0,0,0l-.06-.1a.93.93,0,0,1,0-.1s0-.05,0-.07h0v0l0,0a.31.31,0,0,0,0-.09.17.17,0,0,1,0-.07s0,0,.1,0l.16,0h.09l0,0,.21.13.06,0,.18,0h.12l.07,0a.16.16,0,0,1,.07,0h0s0,0,0,0l.07,0,.05,0,0,0h0l0,0h0l0,0h0l.11-.08.09-.08h0a1.19,1.19,0,0,0,.07-.27l0-.09,0,0s0,0,0,0l.07-.06.08-.05.05,0,0,0,0,0,.08,0s.05,0,.06,0,0,0,0,0h.07l.1,0h.05s0,0,.07,0,0,0,0,0,0,0,0,0,0,0,0,0,0,0,0,0h0l.1,0s0,0,0,0,.07,0,.1,0l0,0h0l.1,0,.24.07h.08l0,0h0L28,25l.3,0,.15,0h.1l.11,0h.21a1.76,1.76,0,0,0,.23,0h.23l.39,0h.19l.15,0h.47l.18,0,.07,0,.08,0h0l0,0h.1l0,0,.05,0,0,0s0,0,0,0h0l.07,0,.11,0s0,0,0,0l.25.07h.06l.13,0H32s.05,0,.06.05a.12.12,0,0,1,0,.09s0,0,0,0l0,0a.35.35,0,0,0-.05.08s0,0,0,0l0,0,.13,0,.13-.05h.23s0,0,0,0a.17.17,0,0,1,0,.1l0,.05s0,0,0,0l0,0,0,.05a.29.29,0,0,0,.13-.05l.11,0,.08,0,.1,0h.11a.09.09,0,0,1,.06.09v0a.27.27,0,0,1-.08.07h0l0,0,0,0s0,0,0,0h.06s0,0,0,0l.16-.06.08,0c.08,0,.15,0,.16,0a.32.32,0,0,0,0,.09h0v0s-.05,0-.05.07l.05,0h.06l.06,0,.11,0h.13s0,0,0,.06,0,.07-.05.1h.2a.81.81,0,0,1,.22,0,.19.19,0,0,1,.1,0,.11.11,0,0,1,.08,0s0,0,.06,0h0l0,0,.06.06v0h0l.05,0a0,0,0,0,0,0,0l0,0h0l0,0h0l0,.05s0,0,0,0a.35.35,0,0,1,0,.08,1.34,1.34,0,0,0,.06.12l0,0s0,0,0,0h0s0,0,0,0a.13.13,0,0,0,0,.05h0l0,0,0,.05,0,0s0,0,0,0,0,0,0,0,0,.06.06.07v-.07l0-.13a.79.79,0,0,0,0-.13A.52.52,0,0,0,34.8,27a1,1,0,0,0-.07-.15l0-.05,0-.05,0,0,0-.07s0,0,0,0,0,0,0,0a.08.08,0,0,1,.07,0h0l.06,0,0,.06s0,0,0,0,.06,0,.1,0l0,0,0,0a.21.21,0,0,1,.07-.05.06.06,0,0,1,.08,0,.15.15,0,0,1,0,.11s0,0,0,0a.33.33,0,0,1,0,.06h0s0,0,0,0v0h0v0s0,0,0,.07.07,0,.08,0l0,0,.11-.07.08-.06.09-.05h0l0,0a.29.29,0,0,1,.13-.05s0,0,0,0v0s0,0,0,.05a.27.27,0,0,1-.07.08h0v0h0s0,0,0,0l0,0,0,0c-.05,0-.08.09-.12.12h0l.08,0,.05,0,.09-.06.07,0h.05l.08,0h0s0,0,0,0,0,0,0,0l.09-.07s0,0,0,0h0l0,0,.09,0,.09-.05s0,0,0,0,.06,0,.07.05,0,0,0,0l0,.06,0,0a.18.18,0,0,0-.05.07h0l-.06.06h0l0,0,0,0s0,0,0,0h0v0a.09.09,0,0,0,0,0s0,0,0,0l-.1.1-.06.06-.17.15,0,.05s0,0,0,.05,0,0,0,0l0,0v0h0l0,0h0l.16-.1,0,0,.13-.09a.83.83,0,0,0,.15-.11l.14-.1h0l0,0,.05-.05.08-.06c.06,0,.1-.07.15-.1l.17-.1s.11-.05.17-.07a.44.44,0,0,1,.16,0,.15.15,0,0,1,0,.06.23.23,0,0,1-.07.07l-.07.09-.09.09-.12.1L36.5,27l0,0h0s0,0,0,0h0l0,0a.08.08,0,0,0,0,0h0l0,0h0v0l0,0-.05,0s0,0,0,0a2.64,2.64,0,0,1,.29-.15l.06,0,.14-.09,0,0h0l.13-.08.14-.08.13-.09.06,0,.07-.05.07,0a.07.07,0,0,0,0,0l.15-.06h.07l.07,0a.09.09,0,0,1,.1,0s0,.07,0,.1v0l0,0,0,.05-.05,0h0l-.1.1-.09.07s0,0,0,0l.21-.08.06,0,.09-.05.06,0h0l.13-.08.12-.06.11-.05.06-.05,0,0h.19s.06,0,.09,0a.38.38,0,0,1-.09.13l0,.06-.06.06h0v0s0,0,0,0,.08,0,.1,0l.13-.07.06,0h0l0,0a0,0,0,0,0,0,0h0l.08,0,.15-.09.09,0a.18.18,0,0,1,.1,0s0,0,0,0l0,.05v0a.15.15,0,0,0,0,.08l0,.05v0s.07,0,.09,0l0,0,.12-.08.06,0,.05,0,.12,0c.08-.09.25-.06.37-.05a.16.16,0,0,1,.1,0,.21.21,0,0,1,0,.06h0l0,0-.06,0,0,0h-.05s0,0,0,0l-.06.09a0,0,0,0,0,0,0s0,0,.07,0l.06-.05a.6.6,0,0,0,.11-.06l.06,0,.06,0h0l.05,0,0,0,.14-.07.07,0h0l0,0h.11l.05,0h.31a2,2,0,0,1,.24,0h.25c.14,0,.28,0,.41,0h.83a.14.14,0,0,1,0,.09.34.34,0,0,0-.06.06h0a.57.57,0,0,1-.13.14s0,0,0,0a.12.12,0,0,0,.08,0l.1-.06,0,0h0l.23-.15.17-.08s0,0,0,0v0a.07.07,0,0,1,0,.05s0,0,0,.05,0,0,0,0l0,0s0,0,0,0a0,0,0,0,1,0,0s0,0,0,0,0,0,0,0,.06,0,.09,0l.12-.07h0l0,0h0V26H43a1.31,1.31,0,0,1-.28,0h0c-.21,0-.42,0-.64,0l-.43,0h-.09l-.1,0h-.11l-.2,0H39.3a.06.06,0,0,0-.06,0h-.31l-.62,0h-.08s0,0,0,0h-.8l-.13,0h-.08l-.27,0h-.07s0,0,0,0H35.8l0,0h-.15l-.11,0h-.25l0,0h-.06l-.46,0h-.61a.8.8,0,0,1-.15,0h-.06l-.11,0,0,0h-.13l-.06,0-.06,0-.06,0h-.06l-.06,0-.09,0h-.08l-.12,0h0l-.09,0h-.12l0,0-.2-.06h0l-.05,0-.12,0h-.07l0,0-.15,0-.09,0-.14-.05h-.05l-.08,0-.11-.05h0l0,0h0l0,0h0l-.05,0s0,0,0,0H31.3l-.07,0h-.07l0,0h0l0,0h0L31,25.14h0l-.06,0h-.13a1.74,1.74,0,0,0-.29-.07h-.08s0,0-.07,0a.13.13,0,0,0-.08,0,0,0,0,0,0,0,0h-.15l-.1,0h-.18l-.05,0a.2.2,0,0,1-.11,0h-.39l-.21,0h-.25l-.22,0h-.13a.64.64,0,0,1-.2,0h-.16a1,1,0,0,1-.25-.05h0a.35.35,0,0,0-.11,0h-.06l-.05,0H27.5l-.06,0h-.07l0,0h-.15l-.2,0h-.45l-.06,0h0l-.06,0h0l-.06,0-.3.17-.05,0,0,0h0l0,0h0l0,0v0h0l0,0-.06,0h0l-.2.08h0l0,0h-.07c-.12,0-.24.09-.36.12a1.7,1.7,0,0,1-.31.06l-.33,0s0,0,0,0a0,0,0,0,0,0,0,0,0,0,0,1,0,0,.41.41,0,0,0-.05.09.49.49,0,0,0,0,.12.19.19,0,0,0,0,.08s0,0,0,0,0,0,0,.06a.17.17,0,0,1,0,.1h0a0,0,0,0,0,0,0h-.06l-.05,0h0l0,0H24l-.06,0H23.9l-.13,0-.12,0h-.06l-.39,0H22.12s-.05,0-.05,0h-.73l-.09,0h-.17l-.47,0-.14,0H18.31l-.26,0H16.12v.44l.14-.08.08,0,.09,0a.11.11,0,0,1,.08,0s.06,0,.09,0-.05.1-.08.13l0,0h0l-.05.05-.13.14s-.06.05-.07.09h.11l0,0h0l.09-.05h.07a.09.09,0,0,1,.06,0l.08-.05,0,0h0v0h.05l0-.06h.07l.06,0,.12-.07s.06,0,.11,0a.08.08,0,0,1,0,.07s0,.05-.06.08l0,0,0,0,0,0h0l0,0h0l0,.05s0,0,0,0,0,0,0,0l-.06,0h0l0,0s0,0,0,0h.05l0,0,.05,0,.14-.07.15-.08h0v0l.08,0,0,0,.08,0s0,0,0,0h0l.12-.06s0,0,0,0,.08,0,.12,0a.14.14,0,0,1,.11,0,.1.1,0,0,1-.05.06h0l0,0a.18.18,0,0,0-.08.07s-.05,0-.06.05h0l0,0a.81.81,0,0,0-.18.19l.05,0,.06,0s0,0,0,0l0,0h0l.08,0,.11-.05.06,0,.22-.1.11-.05.1,0h.21l0,0h0l0,0a.57.57,0,0,0-.11.11l-.05,0h0l0,0h0l0,0-.17.15.12-.05.05,0,.05,0h0s0,0,0,0l.08-.05h.07l.15-.08.15-.07h0l0,0s0,0,0,0l.07,0H19s.06,0,.08,0-.07.09-.1.12a0,0,0,0,0,0,0l-.05,0h0l-.06.05,0,0s0,0-.05.05h0l0,.05s-.05,0-.05.06l.22-.1.12-.05h0l0,0,.11-.06h0v0h0l.1,0,0,0,.12,0h0l.09,0h.08s.05,0,.06,0a.11.11,0,0,1,0,.05v0l-.06.05-.08.07v0h0l-.06,0h0l-.08.06,0,0s0,0-.05.06a.49.49,0,0,0,.17-.06l.06,0,.19-.08,0,0,.07,0,.1,0,.08,0,.06,0,.06,0h.06a.67.67,0,0,1,.2,0h1.19c.18,0,.36,0,.54,0a.15.15,0,0,1,0,.09h0s0,0,0,0l.06,0,.05,0a.09.09,0,0,0,.05,0l.09,0,.12-.05h.25a.26.26,0,0,1,0,.08.15.15,0,0,0,0,.07l.13-.05a.34.34,0,0,1,.14-.05s0,0,0,0h0l0,0h0l.05,0H23l.1,0s.06,0,.08,0l-.06.12.09,0,.06,0,.11-.05.05,0h.28s0,.05,0,.07a.08.08,0,0,0,0,0l0,.05h0l0,0s0,0,0,0a1.86,1.86,0,0,0,.19-.11l.11-.07h0l.05,0h0a.15.15,0,0,1,.06,0l0,0h.13s0,0,0,0h0a.24.24,0,0,1,0,.08l-.07.07,0,0-.05,0h0l-.07.06,0,0s0,0,0,0l.1,0h0l.11,0,.21-.07a.12.12,0,0,1,.08,0s0,0,0,0h0s0,0,0,.07a.12.12,0,0,1-.05,0,.75.75,0,0,1-.15.16s0,0,0,.06a2.53,2.53,0,0,1,.23-.12l.11-.06a.42.42,0,0,1,.24-.07s0,0,0,0,0,0,0,0l0,.06-.06,0v0l-.09.07h0a.6.6,0,0,1-.08.08l0,0a.12.12,0,0,1-.05.05l0,0,0,0a.62.62,0,0,0,.19-.07l.24-.1.05,0h0l0,0,.09,0s.08,0,.1,0,0,0,0,0,.05,0,.05.05-.05.09-.06.11l-.05,0-.08.06,0,0h-.07v0h0a.23.23,0,0,0-.07.07l0,0a.09.09,0,0,0,0,.05l.09,0,.08,0,.08,0,.09,0a1.62,1.62,0,0,1,.18-.1h0v0l.06,0h.06l.06,0h0a.39.39,0,0,1,.15-.06l.15-.08a0,0,0,0,1,0,0h0a.05.05,0,0,1,0,0s.06.06,0,.08h0l0,0-.06.07-.07.09h0s0,0,0,0a.18.18,0,0,0,.1,0l.08,0h0l.1-.05.1-.05h0s0,0,0,0h.05s0,0,0,0l0,0,0,0,.11,0,0,0h0l0,0s.09,0,.13,0,.05,0,.06,0a.14.14,0,0,1,0,.07h0v0s0,0,0,0a.42.42,0,0,0,.14-.06l.07,0,0,0h.11l.07,0h0a.25.25,0,0,1,.11,0s0,0,0,0h0l.05,0h.16s0,0,0,0l.11,0h.5l.22,0,.21,0,.15,0a.45.45,0,0,1,.16,0l.22.06.11,0h0l.17.08h0l.06,0s0,0,0,0h0l0,0h0L30,27H30v0h0l.07.05s0,.05.07.07a.2.2,0,0,1,.07.06l0,0h0l.05.05h0l.08,0,0,0,.06,0h0a.05.05,0,0,0,0,0l.11.08.1,0,.1,0,.05,0,.05,0,.1.05.2.09a1,1,0,0,0,.21.09s0,0,0,0l.15.08.16.07,0,0,.05,0,.09,0,0,0h0l.1.06h.07a.53.53,0,0,1,.15.08l.1.06.05,0,.08.05a.05.05,0,0,1,0,0l0,0h0l0,0h0l0,0,.08.05h0s0,0,0,0h0l0,0,0,0,.15.12,0,0s0,0,0,0,0,0,0,0l.05,0s0,0,0,.05l.08.07,0,0,0,0a.1.1,0,0,1,0,0v0a.18.18,0,0,1,0,.07v0l0,0a.14.14,0,0,0,0,.06s0,0,0,.06h0v0a.75.75,0,0,1,.06.13v0l0,.08h0s0,0,0,0h0a.18.18,0,0,0,0,.1l0,.09h0a.13.13,0,0,0,0,.06h0v0a.93.93,0,0,0,0,.13,0,0,0,0,0,0,0h0s0,0,0,0h0a.24.24,0,0,1,0,.08s0,0,0,.05l0,.1,0,.07s0,0,0,0a.13.13,0,0,0,0,.06l0,0a1.18,1.18,0,0,1,.07.2.58.58,0,0,1,0,.14.11.11,0,0,0,0,.05s0,0,0,0a.31.31,0,0,1,0,.13s0,0,0,.06a.07.07,0,0,1,0,.05v.18l-.08.13h0l0,0s0,0,0,0l0,0h0l0,0h0l0,0h0l0,0h0l-.11.06-.12.05h0l0,0-.12,0s-.15,0-.14,0,0,0,0,0l.12,0s0,0,0,0h0a1.89,1.89,0,0,0,.21-.09l0,0,.05-.05h0l.08-.07.06-.06h0l.06-.07,0,0a.27.27,0,0,0,0-.11s0,0,0,0l0,0-.1.05,0,0-.09.05,0,0h0l-.15.06v0h0l0,0h0l0,0-.05,0a.44.44,0,0,1-.16.06l-.09,0s0,0,0,0a.09.09,0,0,1,0-.09s0,0,0,0h0l0,0h0l0,0,0,0,.15-.08.09-.07.09-.06s0,0,0-.06a.12.12,0,0,0,.05,0s0,0,0,0l-.16,0h-.07l0,0,0,0-.08,0-.08,0-.09,0H33a.18.18,0,0,1-.06-.09l.07-.06,0,0,.18-.1h0l0,0,.09,0s0,0,0,0h0l0,0v0s0,0,0,0,0-.06,0-.08l-.13.05c-.1,0-.2.07-.3.09l-.1,0H32.9s0,0,0-.06,0,0,0-.06l.06-.05H33l0,0,0,0s0,0,0,0l0,0,0,0,.11-.05.2-.19.07-.07s-.06,0-.1,0a.12.12,0,0,1-.05.05h0l-.11.05-.08,0h-.05s0,0,0,0l-.08,0-.06,0h0a.63.63,0,0,1-.27,0s0,0,0,0a0,0,0,0,1,0,0s0,0,0,0h0l.08-.05,0,0h.07s0,0,0,0h0l0,0,0,0,0,0h0s0,0,0,0h0l0,0,0,0,.06-.07.05,0a0,0,0,0,1,0,0s0,0,0,0v0h0a.05.05,0,0,1,0,0,2,2,0,0,0,.07-.23h0s0,0,0,0h0a0,0,0,0,0,0,0l0,0,0,0h0l-.11.06-.06,0s0,0,0,0,0,0,0-.07,0,0,0,0h0s0,0,0-.06l0,0,0,0,0,0s0,0,0,0h0l0,0,0,0s0,0,0,0a.51.51,0,0,0,.09-.16.31.31,0,0,0,0-.08.13.13,0,0,0,0-.06s0,0,0,0l0,0a.42.42,0,0,0,0,.1l0,0a0,0,0,0,0,0,0h0v0h0s0,0,0,0h0l0,.07,0,0h0l-.06.06v0s0,0,0,0h0s0,0,0,0l-.11.08-.12.09-.1.07-.14.08s0,0,0,0-.07,0-.08.05.12,0,.19,0h.06l.09,0h.08a.27.27,0,0,1-.07.08.18.18,0,0,1-.08.07l-.06,0-.14,0-.07,0s-.06,0-.08-.08l-.17-.15s-.06-.07-.09-.08v0h0l0,0-.07,0-.1-.06L31.69,30h0l0,0h0l-.09,0a.61.61,0,0,0-.14-.07s0,0-.05-.06,0,0,.05,0l.12-.09h0l.05-.05a.18.18,0,0,1,.07-.05l0,0h0l.05,0,0,0h0l0,0s0,0,0,0h0l.05,0s0,0,0,0a2.52,2.52,0,0,1-.34.15l0,0-.07,0-.13,0h-.08l-.08,0c0,.06-.07,0-.08,0s0,0,0,0,0,0,0,0a.12.12,0,0,1,.05-.05l0,0h0a0,0,0,0,1,0,0h0l.06,0s0,0,0,0a.74.74,0,0,0,.13-.12h0l-.17,0-.11,0h0l-.09,0h0l-.16.05h0s-.06,0-.08,0,0,0,0-.08a.18.18,0,0,0,.07-.05L31,29.2l.12-.08,0,0s.07,0,.08-.08l-.11,0h0l-.11,0h-.11l-.08,0h0a.11.11,0,0,1-.1,0s0,0,0,0v0s0,0,0,0h0l0,0s0,0,0,0l0,0s0,0,0,0h0s0,0,0,0l.05-.05L31,28.8a.12.12,0,0,0,0-.05l-.26.07-.09,0h-.07l-.08,0c-.06,0-.16,0-.17,0s0-.05.05-.06a.08.08,0,0,1,0,0h0l0,0h0l.08-.07s.08,0,.09-.08l-.13,0-.07,0h-.08l-.05,0h-.12a.11.11,0,0,1-.11,0v0a.28.28,0,0,0,0-.08c0-.07.11-.1.17-.13v0h0l.09-.06,0,0,0,0,0,0h0l0,0h0l0,0s0,0,0,0h0s0,0,0,0a.1.1,0,0,0-.07,0l0,0-.08,0h0l0,0h0l0,0-.19.06-.08,0-.09,0h-.1a.1.1,0,0,1,0-.05s0,0,0-.05h0s0,0,0,0,0,0,.05,0l.12-.09a0,0,0,0,1,0,0l0,0a.41.41,0,0,1,.11-.07l.11-.09h0l-.14.06-.12.06a.38.38,0,0,1-.13.06l0,0h0l-.08,0,0,0-.08,0h0l-.06,0-.07,0a.1.1,0,0,0,.05.06h0l0,0,0,0,0,0a.36.36,0,0,1,.07.1.72.72,0,0,1,.09.2l0,.08v0h0a.09.09,0,0,1,0,.05s0,0,0,0L30,29l.07.06.1.08a.15.15,0,0,0,.06.05l0,0h0l.08.07v0l.08.07.11.08,0,.05h.08l0,0,.06,0,.08.08a.1.1,0,0,1,.05,0l0,0,.05.05h0l.05,0s0,0,0,0h0l0,0,0,0h0l.06.05,0,0,0,0h0l0,0h.08l0,0s0,0,0,0h0s0,0,0,0a.05.05,0,0,1,0,0l0,0s0,0,0,0l.06,0h0l0,0h.09s0,0,0,0h0l0,0h0l0,0h0l0,0h0a0,0,0,0,0,0,0s0,0,.05,0l.06.05h0l0,0,.11.1h0l0,0,0,0s0,.05,0,.06l.05,0a.22.22,0,0,0,0,.08l0,.07a1.11,1.11,0,0,1,.13.27.42.42,0,0,0,0,.1s0,0,0,.05a.3.3,0,0,1,0,.08v.2s0,.08,0,.1l-.06.13-.06.12,0,0a.55.55,0,0,0-.14.12l0,0s0,0,0,0l-.14.09a.87.87,0,0,1-.11.09l0,0h0a.1.1,0,0,0-.05,0s0,0,0,0l.23-.07,0,0,0,0,.08-.05,0,0c0-.05.07-.07.11-.1l0,0,0,0s0-.05.06-.06h0s0,0,0,0h0v0h0l0,0,0,0,0,0s0,0,0,0a.2.2,0,0,1,0,.11.9.9,0,0,0-.05.09l0,.1,0,0v0s0,0,0,0,0,0,0,0h0l0,0h0v0h0l0,0h0l-.05,0h0l0,0-.06,0-.06,0-.08.06s0,0,0,0,0,0,0,0a0,0,0,0,0,0,0h.14l.09,0h.05l.06,0,0,0,.05,0,0,0h0l0,0s.05-.05.07-.07l.05,0,0,0,0,0h0l0,0s0,0,0,0h0l.06-.07s0,0,0,0,0,.07,0,.14v.07s-.05,0-.08.09,0,0,0,0l-.06.06h0l0,0h0l0,0a.53.53,0,0,1-.15.08l0,0-.07,0,0,0h0l0,0h0l0,0s0,0,0,0l.09,0,.15,0a.19.19,0,0,1,.1,0,.12.12,0,0,1,.07,0l0,0s0,0,.05,0a.37.37,0,0,1,.17-.1c.05,0,0,.11,0,.13s0,0,0,0l0,0-.09.08a.12.12,0,0,1-.05,0l-.15.07-.16.08.05,0h.17s.11-.06.13,0,0,0,0,0a.1.1,0,0,1,0,0l-.08.05,0,0,0,0,0,0,0,0-.09,0a.35.35,0,0,1-.14,0l0,0h0l-.05,0v0h0l0,0,0,0,0,0s0-.06-.05-.09l0,0,0,0,0,0a0,0,0,0,0,0,0l0,0s0,0,0,0a.08.08,0,0,0,0,0l0-.06s0,0,0,0l0-.06,0,0s0,0,0-.05l-.06-.08s-.06-.07-.09-.1,0,0,0,0a.27.27,0,0,1-.08-.1l-.06,0s0,0,0,0l0,0v0h0a0,0,0,0,1,0,0l0,0,0,0h0l-.05,0,0,0,0,0,0,0h0s0,0,0,0a.1.1,0,0,0,0-.05s0,0,0,0h0l-.06-.05,0,0,0,0,0,0s0,0,0,0h0a0,0,0,0,0,0,0h0a0,0,0,0,0,0,0l0,0h0l-.11-.1h0l0,0h0l0,0h0l0,0-.05,0h0s0,0-.06,0l-.08-.07,0,0-.06,0h0l-.08-.07,0,0s0,0,0,0h0l-.05,0-.05,0s0,0,0,0h0a0,0,0,0,1,0,0l0,0,0,0v0h0s0,0,0,0h0l0,0h0l0,0h0v0h-.06L29.64,31l0,0h0l0,0h0s0,0,0,0h0s0,0-.05,0a.19.19,0,0,1-.09-.05s0,0,0,0a.13.13,0,0,1-.05-.06l.07,0s0,0,.06,0,0,0,0,0,0,0,0,0a0,0,0,0,1,0,0h0v0h0s0,0,0,0a.27.27,0,0,0,.08-.07l.05-.06s0,0,0,0l0,0c0-.05.1-.08.14-.13s0,0,0,0l-.26.14-.09,0-.08.05-.15.09h0s0,0,0,0-.08,0-.1,0,0,0,0,0,0,0,0,0l.06-.06c.09-.09.18-.15.27-.23l0,0h0v0h0l.06-.06a.08.08,0,0,1,0,0l.07-.09,0,0,0,0s0,0,0,0l-.06,0,0,0-.07,0v0l-.07,0,0,0-.1.06,0,0h0l-.05,0a0,0,0,0,0,0,0h0l0,0-.09.05,0,0s0,0,0,0l-.06.05-.07.06,0,0s0,0,0,0-.05,0-.06.05l.1,0,.09.06s0,0,0,0h0l0,0s0,0,0,0,.06,0,.09.06.06,0,.09.06,0,0,0,0h0c0,.05,0,.07-.05.09h0s0,0,0,0h-.18s0,0,0,0,0,0,.05,0l0,0h0l.06,0c0,.06.17.05.21.12l.08,0,.06,0h0l.05,0a.46.46,0,0,1,.15.09h0s0,0,0,0,0,0,0,0h0l0,0h0l0,0h0l.1.06h0l0,0,0,0,.06,0s0,0,0,0l.07,0s.07,0,.09.08,0,0,0,0l0,0h0l0,0,0,0h0v0h.09a0,0,0,0,0,0,0s0,0,0,0l0,0h0v0h0s0,0,0,0,0,0,0,0a.26.26,0,0,0,.05.09s0,0,0,.07,0,0,0,.06,0,.08,0,.11,0,0,0,0,.07-.06.1,0h0s0,0,0,0,0,0,.05,0,0,0,0,.07v0h0a.13.13,0,0,1,0,.1l0,.08,0,0-.06.05v0s0,0,0,0,0,0,0,0l0,0h-.06l0,0-.08.05a.06.06,0,0,1,0-.09h0l0,0h0l0,0a0,0,0,0,1,0,0s0,0,0,0,0,0,0,0,0,0,0,0,0-.05,0-.08-.06.07-.08.1h0l0,0h0l-.07.08,0,.05h-.05l-.08,0s0,0,0,0h0l0,0h0l-.07,0h-.05a.32.32,0,0,1-.17,0l0,0h0l0,0,0,0,.07-.05.08,0,.06,0h0s0,0,0,0,0,0,0,0l0,0-.06,0s0,0,0,0,0,0-.06,0h-.05s0,0,0,0l0,0-.17.08,0,0-.07,0h-.07l-.13.05h0l0,0-.18,0a.2.2,0,0,1-.11,0s0,0,0-.05a.13.13,0,0,0,.09,0h0l.08-.05.06,0h0l.08,0,0,0a.05.05,0,0,1,.05,0h0l.05,0h0l0,0h0l.05,0s0,0,.05,0,0,0,0,0-.06,0-.08,0l-.09,0-.09,0-.1,0h0l-.07,0h0l-.17.05h-.12s-.05,0-.06-.06v0s0,0,0,0l0,0,.1-.06s.09,0,.12-.07.1-.07.16-.09,0,0,0,0,0,0,.06,0h0l.05,0s0,0,0,0,0,0,0,0a1.16,1.16,0,0,0-.18,0l-.08,0-.06,0,0,0-.13,0-.1,0a.37.37,0,0,1-.14,0h-.09a0,0,0,0,1,0,0l0,0s0,0,0-.06,0,0,0,0h0l.05,0h0l0,0,0,0s.05,0,.06,0l.13-.09.05,0h0s0,0,0,0a1.07,1.07,0,0,1-.27.09l-.19.08h-.15s-.09,0-.12,0h0s0,0,0-.06l.12-.09.06,0,.05,0h0v0l0,0,.07,0s0,0,.07-.06h0s0,0,0,0L29,31.8a.17.17,0,0,0-.1,0h-.05l-.27.1-.1,0-.1,0-.07,0s0,0,0,0,0,0,0,0,0,0,.06-.05l0,0h0s0,0,0,0l0,0,0,0h0l.05,0h0s0,0,0,0l.08,0h0a.53.53,0,0,0,.11-.09l-.17.06h-.05l-.09,0h0l0,0-.08,0h-.05a.28.28,0,0,1-.18,0s0-.1.05-.1l.15-.13h0l.05,0h0l0,0a.61.61,0,0,0,.16-.12H28.5l-.2.08-.11,0-.06,0h0s0,0,0,0h0l0,0h-.17a.14.14,0,0,1,0-.07s0,0,0,0h0a.24.24,0,0,1,.08-.09.09.09,0,0,1,.06,0s0,0,0-.05a.1.1,0,0,1,.05,0,.17.17,0,0,1,.06-.06h0s0,0,0,0h0l.16-.13s0,0,0,0-.26.11-.37.18l-.17.11-.07,0h0a.45.45,0,0,1-.11,0h-.06s0,0,0,0,0,0,0,0h0a.15.15,0,0,1,0-.06l0,0,.11-.09,0,0a.41.41,0,0,1,.11-.07s0,0,0,0a.1.1,0,0,0,0,0l0,0,0,0h0l0,0v0l.08,0,0,0s0,0,0,0-.13,0-.19,0H28l-.09,0h0l0,0h-.07l-.08-.05s-.09,0-.11-.09,0,0,0,0h0l-.08-.05h-.07s0,0,0,0H27.2l-.11,0-.08,0-.06,0h0s0,0,0,0h0l-.08.07h0l0,.05h0l0,0-.09.07a0,0,0,0,0,0,0l0,.05h0l-.06.05a0,0,0,0,0,0,0l0,0h0l0,0-.14.08-.08.05,0,0-.08,0,0,0h0l0,0s-.07.05-.1,0a.05.05,0,0,1,0-.05c0-.06.08-.09.12-.11a.13.13,0,0,1,.07-.06h0s0,0,0,0h0v0h0v0h0l.05,0,.08-.06.07-.08h0s0,0,0,0h0s0-.06.08-.07a.08.08,0,0,1,.05-.05s0,0,0,0h0l0,0h0a0,0,0,0,0,0,0s0,0,0,0,0,0,0,0l0,0,.05,0,0,0h0s0,0,0,0,0,0,0,0l0,0h0l.05,0s0,0,0,0l-.05,0,0,0,0,0-.15.09-.14.07,0,0,0,0,0,0a.05.05,0,0,0,0,0h-.11s0,0,0,0h0l-.07,0-.08.06-.06,0h0l0,0a.12.12,0,0,0-.05.05.31.31,0,0,0-.09.07l0,0,0,0h0l-.06.06h0l0,0h0v0l-.08.05-.08.06,0,0,0,0h0a.47.47,0,0,1-.15.06.11.11,0,0,1,0-.1s0,0,0,0l0,0h0a.46.46,0,0,1,.12-.12l0,0,.06-.05,0,0a2.52,2.52,0,0,1,.25-.21l.16-.14.07-.08.09-.08s0,0,0-.05,0,0,0,0l.11-.11s0,0,.05,0l0,0h0l.06-.08h0l.09-.1-.2.14h0l0,0h0l0,0h0l-.08.06,0,0,0,0-.07.05,0,0s0,0,0,0h0l0,0-.05,0h0l-.08.07c-.05,0-.1.07-.14.09h0l0,0h0l-.05,0,0,0h0l-.09.07,0,0h0a0,0,0,0,1,0,0h0a.24.24,0,0,1-.09.08l-.3.25,0,0v0h0v0h0a.1.1,0,0,1-.05,0,.46.46,0,0,1-.07.07h0l0,0-.06.06h0l-.07.06s0,0,0,0h0a.14.14,0,0,1-.14,0s0,0,0-.05,0-.07,0-.09l0-.05,0,0h0l0,0,.1-.11.3-.27s0,0,0,0l0,0a0,0,0,0,0,0,0l0,0s0,0,0,0l.09-.08.08-.09,0,0,.1-.1.09-.09.05,0,.09-.09.09-.08s0,0,.05,0h0v0h0s0,0,0,0,.09-.05.08-.11a.1.1,0,0,0-.09,0l0,0,0,0-.25.15,0,0h0a.12.12,0,0,0-.05,0s0,0,0,0l0,0s0,0,0,0h0l-.06,0,0,0s0,0,0,0-.08.07-.13.1a.08.08,0,0,1-.05.05s-.06.07-.1.08h0l0,0-.05,0-.1.08-.14.1-.05,0h0l-.05.07h0s0,0,0,0l-.06,0s0,0,0,0l0,0h0l0,0,0,0h0a.05.05,0,0,0,0,0s-.07,0-.07,0,0,0,0,0a.45.45,0,0,1,.11-.13h0s0,0,0,0v0h0a.3.3,0,0,1,.08-.08l.08-.07a.43.43,0,0,0,.09-.1h0s0,0,0,0,0,0,0,0l.07-.08a1.85,1.85,0,0,1,.14-.14h0s.06-.07.09-.08a.14.14,0,0,0,0,0l.05,0,0,0a0,0,0,0,0,0,0l.16-.14.1-.08h0l0,0,0,0s0,0,0-.06h0l0,0s0,0,0-.05,0,0,0,0h0l.12-.11,0-.05s0,0,0,0,0,0,0,0h0l0,0,.06-.06a.12.12,0,0,0-.08,0l0,0s0,0,0,0h0l0,0h0a.19.19,0,0,1-.09.05.28.28,0,0,1-.1.09l0,0-.07.06-.3.24,0,.05s0,0,0,0l-.14.12h0l0,0-.17.14h0l0,.05h0l0,0h0l-.08.06-.05,0a.1.1,0,0,1-.05,0s0,0,0,0l-.06,0,0,.05-.06,0-.06,0a.76.76,0,0,1-.09.09s0,0,0,0a.08.08,0,0,0,0,0h0l-.09,0-.05,0s-.08.05-.11,0,0,0,0,0a.23.23,0,0,1,.07-.07l.05-.06,0,0,.06,0,0,0a.05.05,0,0,0,0,0s0,0,0,0h0a0,0,0,0,0,0,0h0s0,0,0,0h0l0,0,.07-.05s0,0,0,0h0v0l.06-.06h0l0,0,.06,0v0l0,0s0,0,0,0l0,0,0,0,.06-.07h0l.05-.07.16-.13.07-.08h0s0,0,0,0a.35.35,0,0,1-.13.08s0,0,0,0h0l-.06,0,0,0h0l0,0,0,0s-.05,0-.06,0l-.05,0a.07.07,0,0,0-.05,0h0l0,0s0,0-.06.05h-.05v0l-.05,0-.05,0,0,0-.07,0,0,0-.1.09-.1.09h0v0h0s0,0,0,0l0,0h0s-.07.09-.12.13l0,0s0,0,0,0l0,0h0a0,0,0,0,0,0,0s0,0,0,0h0s-.05.05-.08,0a.09.09,0,0,1,0-.08s0-.06,0-.09a.18.18,0,0,1,.07-.05h0a.12.12,0,0,0,.05,0s0,0,0,0l0,0s0,0,0,0a1.14,1.14,0,0,1,.15-.16h0s0,0,0,0a0,0,0,0,1,0,0l0,0a0,0,0,0,1,0,0h0l.18-.18h0l0,0,0,0s0,0,.06-.06h0l0,0v0l0,0h0a0,0,0,0,1,0,0s-.05,0-.06,0h0l0,0h0s0,.05-.06.05l0,0-.14.12-.05,0h0l-.05,0h0l-.07.08-.1.07h0l0,0h0l0,0h0l0,0-.14.11-.08.06-.09.07h0l-.2.19,0,0,0,0-.06.06s-.05.05-.07,0h0l0,0s.05,0,.05-.09,0,0,.05-.05l0,0v0l.08-.09,0,0a.1.1,0,0,0,0-.05s0,0,0,0l.07-.09h0l.06-.06h0l0,0h0v0h0l0,0s0,0,0,0l0,0s0,0,0,0l0,0h0l0,0,.06-.07s0,0,0,0v0s0,0,0,0v0h0s0,0,0,0h0l0,0-.05,0h0s0,0,0,0l-.12.08-.09.07-.13.09,0,0a.86.86,0,0,0-.14.13l-.19.18-.05,0-.05.05-.05,0L22,31a.1.1,0,0,1-.05,0l0,.05s0,0,0,0a.15.15,0,0,0,0,.06l0,0-.1.09,0,.05,0,0,0,0h0l-.07.06s0,0,0,0-.05,0-.06,0-.05,0-.07,0,0,0-.06,0,0,0,0,0a.05.05,0,0,1,0,0s.06-.06.07-.11l.07-.07v0l0,0h0a.52.52,0,0,0,.1-.11l.05,0a.18.18,0,0,0,0-.07l0,0,.08-.07s0,0,.05-.05.05,0,.05-.05l0,0s0,0,0,0h0A.22.22,0,0,1,22,30.7l0-.06,0,0,.05-.05h0l0,0,0,0v0l0,0,.06-.06,0,0,0,0h0l0-.06s0,0,0,0,0,0,0,0,0,0,0,0,0,0,0,0,0,0,0,0v0h0l.08-.07s0,0,0,0h0s0,0,0,0l0,0h0l.1-.09a.12.12,0,0,0,0,0h0s0,0,0,0h0l0,0s.05,0,.05-.07a0,0,0,0,0,0,0l-.05,0-.22.16,0,0,0,0h0a.05.05,0,0,0,0,0l-.09.06h0a.07.07,0,0,1,0,0h0l0,0,0,0-.05,0,0,0-.06,0v0h0v0l0,0,0,0,0,0h0l0,0-.06,0v0h0l-.05,0h0l0,0,0,0s0,0,0,0a.2.2,0,0,1-.07.06l-.06.06,0,0,0,0-.07.05-.12.13h0l-.24.25,0,0,0,0a.39.39,0,0,0-.1.08s0,0,0,0v0l0,0,0,0s0,0,0,0h0a0,0,0,0,0,0,0h0l0,0-.05,0a.11.11,0,0,1-.07,0h-.06a.06.06,0,0,1-.05-.06l.06-.05,0,0a.06.06,0,0,0,0,0l.08-.07.09-.11s0,0,.05-.05l0,0h0l.09-.1,0,0a0,0,0,0,1,0,0l.05-.05c.08-.07.14-.14.21-.21h0l0,0,0,0h0l0,0h0l0,0h0s0,0,0,0l.08-.07,0,0h0l0,0,.06-.05.07-.06s0,0,0,0h0v0h0l0,0L22,30h0s0,0,0,0l0,0,.14-.13v0h0s0,0,0,0l-.09.05h0l-.05,0,0,0h0l0,0H22a.47.47,0,0,1-.12.09s0,0,0,0l-.09.06-.07.05h0l-.1.07-.08.06h0l-.1.06-.11.09-.05,0-.05.05,0,0c-.07.08-.17.14-.25.22l-.07.09s0,0,0,0L20.7,31a.27.27,0,0,0-.07.08h-.05l0,0-.11.11-.13.12s0,.05-.06.06l0,0-.15.13,0,0,0,0h-.08a.08.08,0,0,1,0-.08.21.21,0,0,1,0-.07s0,0,0,0v0l0-.06h0a.2.2,0,0,1,.09-.09h0s0,0,0,0v0h0l0,0a.45.45,0,0,0,.1-.09l0,0s0,0,0,0v0h0l0,0,.07-.05,0,0h0l0,0s0,0,0,0h0v0h0l0,0h0l.07-.07h0a.6.6,0,0,0,.08-.08l0,0,0,0,0,0s0,0,0-.05,0,0,.05,0,0,0,0,0a1.31,1.31,0,0,0-.27.12s0,0,0,0h0l0,0h0a.21.21,0,0,1-.08.06l0,0h0l-.07,0-.06,0-.05.05a.15.15,0,0,0-.06.05l-.06,0-.12.1-.11.1-.21.22,0,0-.08.08,0,0s0,0,0,0,0,.05-.05.06l0,0s0,0,0,0l-.05,0-.1.06h-.42l-.17,0-.07,0H18a0,0,0,0,1,0,0h-.09c-.15,0-.3,0-.45,0a.43.43,0,0,1-.16,0h-.33l-.11,0-.08,0h-.61v.38h.14l.08,0h.09l.4,0H17l.29,0,.39,0h.24l.71,0h.24l.23,0,.78,0,.2,0h.76a2.26,2.26,0,0,0,.45,0,.15.15,0,0,0,.09,0l.88,0a.13.13,0,0,1,0,.06s0,0,0,.05v0s0,.12.06.15h0l.08.13,0,0v0s0,0,0,0h0s0,0,0,0a.39.39,0,0,1,0,.09s0,.07,0,.09a.54.54,0,0,0,.07.13.47.47,0,0,0,.1.1l0,0,.06,0a.1.1,0,0,1,.05,0,1.2,1.2,0,0,0,.2,0l.11,0,.11,0h.13l0,0s0,0,.05,0,0,0,.06,0h.1s.05,0,.06,0,0,0,0,0,0,0,0,0,0,0,0,0l0,0s0,0,0,0a0,0,0,0,0,0,0s0,0,0,0a.93.93,0,0,0,.05.1s0,0,0,.06l0,0,0,0h0s0,0,0,0h0l0,0s0,0,0,0h0l.05,0h0l0,0h0l0,0,0,0h0l.13.07a.51.51,0,0,0,.32.1l.29,0h.21s0,0,0,0a.22.22,0,0,1,0,.08.09.09,0,0,1,0,0l0,.06,0,0s0,0,0,0a.1.1,0,0,0,0,.05v0l.11.1h0l0,0,0,0,.08.06,0,0,0,0,0,0h.11l.13,0,.09,0h0l.13,0h.2l.28-.08s0,0,0,.06,0,0,0,0h0l0,0a1.3,1.3,0,0,0,.1.15l.05.05.05,0,.05.05s.05,0,.08.07h0v0l.05,0h0l.18.08,0,0h0l.14,0,.2,0h.16l.09,0a.09.09,0,0,0,.06,0h.07l.08,0h0l0,0h0l.07,0h0l.07,0a.47.47,0,0,0,.15-.06h0l0,0,.06,0c.08.06.16.1.24.15l.12.07.06,0s0,0,.06,0l0,0h.05l0,0,0,0h.14l.08,0s.08,0,.13,0l.08,0,.07,0h.06l0,0h0s0,0,0,0h.07s0,0,0,0l0,0a0,0,0,0,0,0,0l0,0,0,0h0l.05,0,0,0a.08.08,0,0,1,0,0v0l0,0,0-.05v0s0,0,0,0l0,0s0,0,0,0a0,0,0,0,0,0,0l0,0v0a.14.14,0,0,0,0-.06.86.86,0,0,0,0-.16h0v-.05a.47.47,0,0,1,0-.09s0,0,.05,0a0,0,0,0,1,0,0h0l.05,0,.06,0h.06l0,0,.09,0a.39.39,0,0,0,.28,0l.11,0,.08,0h0s0,0,0,0h0v0a.1.1,0,0,0,.05,0l.1-.07.11-.1h0l0-.07h0s0,0,0-.05,0,0,0,0,0,0,0,0,0,0,.05-.05l.07,0h.06l.06,0h.25l.07,0h.06l.09,0,.06,0,.06,0a.77.77,0,0,0,.19-.17l0-.05,0,0h0l.07-.11a1.27,1.27,0,0,0,.06-.18v0s0,0,0-.07,0,0,0,0l.12,0,.07,0h0s0,0,0,0l.06,0,0,0,.12-.09,0,0a.69.69,0,0,0,.13-.11l.07-.05v0s0,0,0,0h0l0,0,0-.05h0l0,0s0,0,0,0l0,0h0a.22.22,0,0,1,.05-.08s0,0,0,0l.19-.06.13,0,0,0h0a0,0,0,0,0,0,0l.07,0h0v0h0l0,0h0l0,0h0L35,32h0a.23.23,0,0,1,.16,0h.24c.23,0,.44,0,.66,0h.45l.79.05.32,0h.58l1.39.1.25,0H40l.12,0h.2l.27,0,.53,0,2.1.15ZM25.14,25.49l.05,0,.06,0,.09,0,.07,0,.05,0,.1,0,.05,0s0,0,.05,0,0,0,0,0l.06,0,.07,0s0,0,0,0l.08,0,0,0s0,0,0,0h0s0,.05,0,.07,0,0,0,.06h0l0,0-.06.06,0,0,0,0,0,0h0l-.09.05-.05,0h0s0,0,0,0h0l0,0h0l-.09,0a.21.21,0,0,1-.15,0h-.12l-.06,0s-.05,0-.05,0l.09,0m3,7.27.1,0a.46.46,0,0,0,.07.07h0l0,0s0,0,0,0v0h0v0h0v0a.11.11,0,0,1,0,.08.07.07,0,0,1,0,0s-.06,0-.09,0l0,0-.11,0-.16.07s0,0,.06,0h.07l.07,0a.05.05,0,0,1,.05,0s0,0,0,.06l0,0,0,0s0,0,0,0a.24.24,0,0,1-.12.07H28s0,0-.05,0l-.08,0-.08,0h0a0,0,0,0,1,0,0h0s0,0,0,0l-.06,0a.14.14,0,0,1,0-.09s0,0,0,0,0,0,0,0l0,0a.14.14,0,0,0,0-.06s0,0,0,0,0,0,.05,0h0l0,0h0l.1,0,.05,0a.09.09,0,0,0,0,0s0,0,0,0-.1,0-.14,0l0,0s0-.06,0-.09h0v0l.05-.05s0,0,0,0h.1m-.53.94.1,0s0,0,0,0h0s0,0,0,0h0l0,0s0,0,0,0,0,0,0,0l0,0-.12,0h-.05s0,0,0,0a.14.14,0,0,1,0-.06h0s0,0,0,0m-.26-2.84s0,0,0,0l.05-.05s0,0,0,0h.12a.08.08,0,0,1,.08,0s0,0,0,.05,0,0,0,0a.11.11,0,0,1-.06.1.12.12,0,0,1-.05,0s0,0,0,0-.07,0-.08.05l-.05,0a1.18,1.18,0,0,1-.19.11l0,0,0,0h-.06l-.05,0s-.09,0-.11,0a.07.07,0,0,1,0-.06l0,0h0l0,0,.23-.2,0,0m-1.08.49,0,0h0l.07-.07.17-.15.18-.14,0,0s0,0,0,0h0l0,0h0s0,0,0,0h0a.08.08,0,0,1,0,0l0,0,.08-.06.06,0,0,0h0a.22.22,0,0,1,.13,0,0,0,0,0,1,0,.06v0h0l0,0-.13.11-.07.05s0,0,0,0h0s0,0,0,0v0h0s0,0,0,0l-.07,0,0,0h0l-.12.09-.13.09,0,0-.06,0,0,0-.1.07h0s-.07.06-.11,0,0,0,0-.06m.05.32h0l0,0s0,0,0,0h0s0,0,0,0l0,0,.06,0s0,0,.07,0l0,0a.11.11,0,0,1,0,.1l0,0a.19.19,0,0,1-.1,0l-.05,0h0m-1.62.16a.6.6,0,0,1,.13-.09h0l.05,0a0,0,0,0,0,0,0h0l0,0h0l.08,0,0,0h.07l.06,0h0l.17,0h.25l.07,0,.05,0h0s0,0,0,0l0,0s0,.06.05.08,0,0,0,0a.05.05,0,0,0,0,0s0,0,0,0l0,0s.05.09.08.12a.41.41,0,0,1,0,.11v0s0,0,0,0,0,0,0,0a.25.25,0,0,1,0,.07.11.11,0,0,1,0,.05.27.27,0,0,1-.06.1s0,0,0,0h0s0,0,0,.06,0,.06-.07,0v0h0a.31.31,0,0,1,0-.1.13.13,0,0,1,0-.06l0-.07,0,0s0,0,0,0l-.07-.08h0c-.06-.06-.12-.14-.19-.2l-.05-.05-.07-.07h0a.18.18,0,0,0-.09,0,.51.51,0,0,0-.24,0v0h0l-.05,0-.08,0s-.11.07-.15,0,0,0,0,0m1.39,1.08s0,0,.06,0a.1.1,0,0,1,.06-.05l.07,0s.06,0,.09,0l.05,0h0s0,0,0,0l.06,0s0,0,0,0,0,0,0,.06,0,.05-.08.06l-.07,0,0,0h-.07l0,0h-.17a0,0,0,0,0,0,0m-1.44-.75s0,0,.05,0,.06-.06.08-.1l.12-.06H25a.32.32,0,0,1,.09,0h.06l0,0s.06,0,.08,0,0,0,0,0l.09.07s0,0,0,.05l0,0s0,0,0,0h0v0l0,0h0a.17.17,0,0,0,.06.06s0,.06,0,.08,0,0,0,.06,0,0,0,.08l0,.05,0,0h0l0,0,0,0-.08,0-.06,0,0,0h0l-.07,0h-.13l0,0s0,0,0,0a.12.12,0,0,0-.08,0l0,0-.07,0h0l-.09-.07s0,0,0,0l0,0-.07-.08a.14.14,0,0,1,0-.1,1,1,0,0,1,0-.17.24.24,0,0,1,.06-.11m-1.24.7a.31.31,0,0,1-.12,0l-.15,0-.09,0h0l0,0h0v0h0l0,0h0v0h0l0,0s0,0,0,0v0h0l0-.07a.28.28,0,0,1-.05-.09s0,0,0,0a.11.11,0,0,1,.07,0,.24.24,0,0,1,.09.06H23s0,0,0,0h0l.06,0,.06,0,.07,0h.06l0,0h0a.1.1,0,0,1,0,0l0,0a.08.08,0,0,1,0,.07M24,32.2v0l-.15.08-.08,0-.05,0s0,0-.05,0,0,0,0,0a.14.14,0,0,0,.08.1s0,0-.06,0l-.08,0h-.14l-.07,0a.05.05,0,0,1,0,0h0l0,0,0,0h0l-.06,0,0,0,0,0h0l0,0v0h0v0a.14.14,0,0,1,0-.06l0,0,0,0,0,0h0a.41.41,0,0,0,.11-.07h0l.07-.05h0v0h.05s0,0,0,0l.1-.06s0,0-.05,0a.11.11,0,0,0-.08,0l-.09,0-.12.06h-.07l-.1,0h0l-.06,0h-.15s0,0,0,0,0,0,0,0h0a.07.07,0,0,1,0-.06l0,0,0,0,.05,0,0,0h0l.07-.05v0h0v0h0l.05,0,.12-.07-.14,0h0l-.1,0h0l-.07,0s-.08,0-.11,0,0-.06,0-.08h0v0h0s0,0,0,0a.67.67,0,0,1,.2-.12l.06,0,.07,0,0,0h.08l.05,0s.1,0,.14,0,0,0,0,0h.07a.28.28,0,0,1,.13,0l.05,0h0l.13.07.05,0s0,0,0,0,0,0,0,0l0,0,.05,0s0,.06,0,.08,0,.06,0,.1v0a.16.16,0,0,1,0,.07.79.79,0,0,0,0,.09l-.07.07,0,0h0m1.49,1.13,0,0h0s0,0-.07,0a0,0,0,0,0,0,0h-.05l0,0h0l0,0-.11.05-.06,0-.11,0-.18,0h0l-.05,0a.21.21,0,0,1-.15,0h0l-.07,0-.06,0-.06,0,0,0,0,0,0,0s0,0,0,0h0s0,0,0,0v0h0a.21.21,0,0,1,0-.06s0-.06-.06-.08a.31.31,0,0,0,0-.13S24,33,24,33s0,0,0,0v0a0,0,0,0,1,0,0v0a0,0,0,0,1,0,0h0a.05.05,0,0,1,0-.05s0,0,0-.06,0,0,0,0l0,0s0,0,0,0l.06,0,.05,0,.06,0h0s0,0,.05,0h0s0,0,0,0,0,0,0,.08l0,0h0l0,0h0l0,0h0v0l-.08.08h.12l.14,0,.11,0s.12-.05.16,0h0s0,0,0,0a.05.05,0,0,1,0,0,.12.12,0,0,1,0,.1s0,0,0,0h0l-.05,0h0v0l-.06,0s0,0,0,0l-.08.06a0,0,0,0,1,0,0s0,0,0,0a.06.06,0,0,0,.06,0h0l.08,0,.1,0,0,0h0l.06,0,.08,0s.05,0,.07,0H25s.05-.06.1,0l.17-.07h.05s.06,0,.08,0,0,0,0,.05l0,0-.07.06-.05,0,0,0-.08.08h0l-.12.08s0,0,.07,0h0l.16-.05.06,0,.21-.1h0l0,0,0,0h0l.05,0,.06,0h.06a.19.19,0,0,1-.07.12l0,0,0,.05s0,0,0,0l0,0s0,0-.07,0,0,.05-.06.07m1.69.39v0s0,0,0,0,0,0-.07.06-.08.09-.11.14a.75.75,0,0,0-.16.15l0,0,0,0a.87.87,0,0,1-.1.08s0,0,0,0l-.16,0H26l-.06,0h0l-.05,0h0l-.05,0,0,0-.05,0h0l0,0-.06,0a.25.25,0,0,1,0-.07.25.25,0,0,1-.05-.15v-.07a.05.05,0,0,1,0,0l0,0a.24.24,0,0,1,0,.08s0,0,0,.07l.07,0h0s0,0,0,0h.08s0,0,.07,0H26l.08,0a1,1,0,0,0,.25,0l.07,0a.19.19,0,0,0,.1,0h0s0,0,0,0h0l.13-.1,0,0,0,0,0,0-.13,0h0l-.17.07-.17,0a.41.41,0,0,1-.19,0h0L26,33.87a.05.05,0,0,1,0,0h0l.06,0h.05l0,0a.18.18,0,0,0,.1,0l.08,0h.09s0,0,0,0a.2.2,0,0,0,.13,0h.06l.06,0,.06,0,.07,0,.1-.05s0,0,.06,0l-.28.08-.14,0-.13,0-.28.08a1.36,1.36,0,0,1-.29.06h-.24s0,0,.05-.06a.2.2,0,0,1,.08,0h.08l0,0,.08,0s.05,0,.07,0l.06,0h.07l.08,0,.08,0,.07,0h0l.07,0,.2-.1.1-.05s-.06,0-.09,0l-.19.05-.23.06h0l-.1,0H26l-.1,0-.1,0s-.07,0-.09,0,0,0,0-.05h0l0,0h0l.05,0h0l.11-.05.07,0h.09l.07,0h.14s0,0,0,0h.06l.13,0h.11l.08,0h.06l0,0S27,33,27,33a.18.18,0,0,1,.1,0h.08l.08,0h0l0,0,0,0,.05,0,0,0h0l0,0s0,0,0,0,0,0,0,0a0,0,0,0,1,0,0v0h0l.05-.06,0,0,.05-.08,0-.06s0,0,0,0a0,0,0,0,1,0,0h0l0,0v0l0,0s0,0,0,0l0-.07c0-.11-.13-.15-.19-.24h0l0,0a.06.06,0,0,1,0,0s0,0-.05,0l-.06,0,0,0,0,0h0a.2.2,0,0,0-.09,0l-.15,0-.06,0H27a.12.12,0,0,0-.07,0h0l0,0-.06.05h0l0,.05,0,0a0,0,0,0,1,0,0s0,.05,0,.07h0a.87.87,0,0,0-.11.18s-.05.11-.08.16h0s0,.08-.05.12,0,0,0,0a.15.15,0,0,0,0,.07l-.1,0-.07,0s-.07,0-.1,0a.07.07,0,0,1,0-.06l0,0a.08.08,0,0,1,0,0v0l.05-.09v0h0s0,0,0,0h0v0a.08.08,0,0,0,0,0h0a.17.17,0,0,1,0-.05h0v0l0,0h0l0,0s0,0,0,0v0h0v0l0-.06,0-.05,0,0v0l.09-.09s0,0,0,0,.05,0,.08-.07l.06-.07h.05s0,0,0,0l.05,0,0,0H27l0,0,.07,0h.13a.63.63,0,0,1,.3,0l0,0s0,0,0,0l0,0s0,0,0,0l.06,0,0,0h0s0,0,0,0l.07.07,0,0s0,0,.05.05h0l0,0a.25.25,0,0,0,0,.07v0s0,0,0,.05,0,.08,0,.1,0,0,0,.05,0,0,0,0l0,.06a0,0,0,0,1,0,0,.45.45,0,0,1-.07.18v0h0a0,0,0,0,0,0,0l0,0a.06.06,0,0,1,0,0,.21.21,0,0,0,0,.11l0,.06v0l-.06.08s-.05.08-.08.11l0,0s0,0,0,0,0,0,0,.07-.05,0-.07.06h0v0l0,0h0v0l-.1.1v0l0,0a0,0,0,0,1,0,0v0l0,0s0,0,0,0v0l0,.06a.22.22,0,0,0-.05.08l0,0m.52-1.48a.25.25,0,0,1,0,.07l-.05,0h0l0,0H27.5l0,0-.22.07,0,0h-.08v0s0,0,0,0h.11l.25,0s0,0,0,.05l-.08.08s0,.06-.06.06,0,0,0,0l-.05,0-.08,0s-.07,0-.13,0l-.06,0h0l0,0h0l-.08,0-.12-.09,0,0,0-.05a0,0,0,0,0,0,0,.2.2,0,0,1,0-.08v-.13a1.21,1.21,0,0,1,.05-.14l0-.09a.41.41,0,0,1,.05-.09h0l0,0h0l0,0a.2.2,0,0,1,.12-.12.82.82,0,0,1,.22,0s0,0,0,0h0l.07,0,.09.05,0,0h0s0,0,0,0h0l0,0,.07.06a.09.09,0,0,1,0,.05l0,0v0s0,0,0,0m.86,1.9a.64.64,0,0,0,0,.07.25.25,0,0,0,0,.07s0,0,0,.06,0,0,0,0a.64.64,0,0,1,0,.07s0,0,0,.05h-.05l0,0a0,0,0,0,1,0,0h0l0,0-.07,0,0,0h0l-.06,0h0l-.06,0-.06,0-.07,0-.07,0s0,0,.05,0H28l.1,0h.32l.05,0v.07s0,0,0,0h0s0,0,0,0l-.09,0h-.09l-.26,0H27.8l-.06,0h-.1l-.08,0-.08,0h-.1v0h0l-.05,0,0,0h0a0,0,0,0,1,0,0s.05,0,.1,0h.19l.06,0h.05a.05.05,0,0,0,.05,0,.4.4,0,0,0,.18-.07.41.41,0,0,1,.11-.07l.07-.05,0,0s0,0,0,0l0,0h0l-.06,0h0s0,0-.08,0l-.05,0-.1,0s-.06,0-.1,0l-.11,0h-.11l-.11,0a.49.49,0,0,1-.24-.05s0,0,.06,0a.35.35,0,0,0,.14-.06l.09,0h0l0,0h0l.09,0h0s.1,0,.15-.06,0,0,0,0,0,0,0,0h0l0,0h0l.07,0,0,0,0,0a1.55,1.55,0,0,0-.31.06h-.11l-.1,0,0,0h-.25s-.07,0-.09,0,0,0,0,0a.09.09,0,0,1,0-.06h0s0,0,.06,0l.06,0a.92.92,0,0,1,.27-.08h0s0,0,.08,0,0,0,0,0a.62.62,0,0,0,.24-.08l.1-.1a1.8,1.8,0,0,0,.2-.19s0,0,0,0h0l0,0,0,0a.25.25,0,0,0,0-.07v0l0-.06,0-.06h0l.06-.12V33h0s0-.05,0-.07a.09.09,0,0,0,0-.06l-.2-.2-.09-.06,0,0s0,0-.05,0V32.5l0,0c0-.05,0-.06.06-.09h.09s0,0,0,0,.05,0,.07,0l0,0a.56.56,0,0,1,.15.1l.07.06,0,0s0,0,0,0l0,0,.05.06s0,0,0,0l0,0v0l.05.08.05.08v0h0a.2.2,0,0,0,0,.07h0a.2.2,0,0,1,0,.11,0,0,0,0,1,0,0,.43.43,0,0,0,0,0,.06.06,0,0,0,0,0v.09s0,.06,0,.09a.41.41,0,0,0-.05.09s0,0,0,0a.06.06,0,0,1,0,0v0h0a.11.11,0,0,0,0,.06l0,0v0h0l0,.05a.21.21,0,0,1-.06.08l0,.1,0,0v0h0a0,0,0,0,1,0,0l0,0m1.86.52,0,.05s0,0,0,0,0,0,0,0l-.05,0,0,0,0,0h0a.19.19,0,0,1-.07.06l0,0h0l0,0,0,0a.1.1,0,0,0-.05,0h0l-.06,0,0,0h-.3l-.05,0-.05,0h-.11l0,0h0l0,0h0l0,0h0l0,0h0L29,34.79h-.05l0,0h0l0,0h0s0,0,0,0h0l0,0,0,0h0l0,0h0s0,0,0,0h0a.55.55,0,0,1,.08-.15l0,0a.2.2,0,0,1,0-.07.14.14,0,0,1,0-.06s0,0,0-.06,0,0,0-.06V34h0a.21.21,0,0,1,0-.07v0s0,0,.05,0l0,0a.27.27,0,0,0,.06-.1l.07-.05,0,0,0,0a1.23,1.23,0,0,1,.39-.06l.12.07s0,0,0,0h0s0,0,0,0l-.05,0s0,0,0,0h0v0l0,0v0s-.06,0-.08.09,0,0-.06,0l0,0h0l-.11.08-.08,0h-.13s0,0-.06,0,.07,0,.09,0l.07,0,.05,0,.1-.06h0l.05,0s0,0,0,0,0,0,.05,0a1.48,1.48,0,0,1,.13-.08l0,0h.05s0,0,.05-.05l0,0,0,0,.05,0h0l0,0,.06-.05h0a.15.15,0,0,1,.07,0,.27.27,0,0,1,0,.12l-.05,0s0,0-.05,0,0,0,0,0l0,0-.05.05,0,0s0,0-.06.07l-.07,0,0,0h0l-.12.07a.24.24,0,0,0-.08.06h0v0h-.05v0h0v0a.06.06,0,0,0-.06,0s.06,0,.09,0l.07,0h.05l.1-.06h0l0,0s0,0,0,0,0,0,0,0l.09,0,.05,0,0,0h0l.06-.05,0,0h0l0,0,0,0h0s.05-.07.1-.07.05-.08.11-.06a.09.09,0,0,1,0,.07L30,34.1l0,0s0,0,0,0,0,0-.06.08l-.1.09-.07.07h0l0,0h-.08l-.06,0h0a.08.08,0,0,0,0,0h0l0,0h0l0,0,.07,0s0,0,.06,0l0,0h0l.06,0h0l0,0,.06,0s0,0,0,0l.09,0,0,0h0l.05,0,.05,0,.07-.06s0,0,0,0,.1-.1.12,0,0,0,0,0a.08.08,0,0,1,0,0s0,0,0,0h0v0a.1.1,0,0,0,0,0l-.08.09-.05,0,0,0s0,0,0,0v0a.36.36,0,0,1-.09.08s0,.06-.08.08l.13,0,.06,0,.06,0a.1.1,0,0,1,.05,0h0a.09.09,0,0,1,.08,0l.07-.05s0-.07.1,0,0,.09,0,.15m1.37-1h0v0l0,0a.07.07,0,0,1,0,0v0l-.07.06,0,0a0,0,0,0,1,0,0l0,0-.06.05-.11.07h0l-.05,0-.05,0-.05,0h-.09l-.2,0-.11-.05-.05,0s0,0,0,0,0,0,0,0h0a.05.05,0,0,1,0,0h0v0h0s0,0,0,0h0l-.25-.17h0l-.05,0,0,0s0,0,0,0l-.05,0a.57.57,0,0,0-.13-.08l-.11-.08h-.06l0,0,0,0,0,0a1.06,1.06,0,0,0-.12-.1s0,0-.06-.06l.09,0s0,0,.08,0h.05l.08,0a0,0,0,0,0,0,0h.06s0,0,0,.07a.22.22,0,0,1-.14,0s0,0,.05,0l.05,0h.08l.07,0h.14l.05,0h.1a.05.05,0,0,1,0,0l.09,0,0,0h.05l.11,0,0,0h.06s0,0,.09,0l0,0h0s0,0,0,0l.1,0h0s0,0,0,0l0,0h0s0,0,0,0h0l0,0h0l.05,0h0v0l0,0,0,0h0a.28.28,0,0,1,0,.09.21.21,0,0,1,0,.06v0l0,.06,0,0-.05,0s0,0,0,0l0,0-.05,0,0,0a.22.22,0,0,0-.06.07l-.07,0,0,0h0l-.12.08-.08,0h-.08v0h0a.09.09,0,0,0-.06,0s.06,0,.08,0l.08,0,.07,0h0l0,0,.11-.05s0,0,0,0a.14.14,0,0,0,.1-.05l.1-.06h0l.05,0h0l.07,0a.05.05,0,0,1,.05,0h0s.06-.07.1-.07,0,0,.06-.06.06,0,.07,0,0,0,0,0h0v0l0,0h0l0,0a.15.15,0,0,0,0,.06.2.2,0,0,0-.07.09l-.1.09a.27.27,0,0,0-.08.07h0s0,0,0,0h0s0,0,0,0h0l0,.06h0a.08.08,0,0,0,0,0h0l0,0,0,0a0,0,0,0,0,0,0l.07,0s0,0,.06,0l0,0a.16.16,0,0,1,.09,0l0,0a.13.13,0,0,0,.09,0h0l.08-.05,0,0h0l.05,0,0,0,.07-.07s0,0,0,0,.08-.1.11,0a0,0,0,0,0,0,0l0,0-.06.1,0,0s0,0-.05,0h0s0,0,0,0l0,0,0,.05s0,0,0,0a.39.39,0,0,1-.1.08l-.08.09a.52.52,0,0,0,.13-.06s0,0,.06,0l.06,0s0,0,0,0l.05,0a.09.09,0,0,1,.05,0s0,0,0,0l.06,0s0,0,.06,0,.06.06.05.12m2.32-1.67s0,0,0,0a.33.33,0,0,0,0,.06h0v0l0,.05,0,0h0v0l0,0,0,0h0v0l0,0-.08,0-.15.05s-.16,0-.16,0,.09,0,.12-.07,0,0,0,0h0s0,0,0,0h0l.07,0a.83.83,0,0,0,.15-.11h0a.43.43,0,0,1,.1-.09L34,32h0l0,0"/>
    <path id="Path_107848" data-name="Path 107848" class="cls-3" d="M43.26,31.36l0,0-.06,0s0,0,0,0l-.06,0s0,0,0,0a.26.26,0,0,0-.1.07l0,0h0l-.05,0s0,0,0,0h0v0l-.06,0,0,.05a.09.09,0,0,0,0,.07.14.14,0,0,1,.09,0s0,0,.05,0,0,0,.07,0,0,0,0,0l.08,0s0,0,0,0,0,0,0,0,0,0,0,0,0,0,0,0l0,0,.15-.1Z"/>
    <path id="Path_107849" data-name="Path 107849" class="cls-3" d="M43.26,30.78l-.13.1-.29.22-.33.24h0l0,0-.07.05,0,0a.57.57,0,0,1-.13.08l0,0h0l-.08.08L42,31.7l-.06.06a.13.13,0,0,0-.06.07s.05,0,.08,0,0,0,0,0h.07a1.22,1.22,0,0,0,.24-.1.69.69,0,0,1,.13-.11l0,0,0,0a.5.5,0,0,1,.07-.08l.06,0,0,0,0,0,.06-.06.06,0,.21-.21.1-.1h0l.06,0,0-.06h0Z"/>
    <path id="Path_107852" data-name="Path 107852" class="cls-4" d="M16.18,42.82a4.77,4.77,0,0,0,2.26,3.26V42.82Z"/>
    <path id="Path_107853" data-name="Path 107853" class="cls-4" d="M19.63,42.82h3.1v5a14.25,14.25,0,0,1-3.1-1.08Z"/>
    <path id="Path_107854" data-name="Path 107854" class="cls-4" d="M23.92,42.82v5.27s1.1.2,1.28.21a8.11,8.11,0,0,1,1.82.4V42.82Z"/>
    <path id="Path_107855" data-name="Path 107855" class="cls-4" d="M43.3,42.82A4.77,4.77,0,0,1,41,46.08V42.82Z"/>
    <path id="Path_107856" data-name="Path 107856" class="cls-4" d="M39.85,42.82h-3.1v5a14.25,14.25,0,0,0,3.1-1.08Z"/>
    <path id="Path_107857" data-name="Path 107857" class="cls-4" d="M35.61,42.82v5.27s-1.1.2-1.28.21a8.2,8.2,0,0,0-1.83.4V42.82Z"/>
    <path id="Path_107858" data-name="Path 107858" class="cls-4" d="M29.77,50.67a4.09,4.09,0,0,0-1.51-1.44V42.82h3v6.41a4,4,0,0,0-1.51,1.44"/>
    <path id="Path_107859" data-name="Path 107859" class="cls-1" d="M18.91,39.72H20l-.85.64.33,1h0l-.84-.62-.84.62h0l.34-1-.86-.64h1.05l.32-1h0Z"/>
    <path id="Path_107860" data-name="Path 107860" class="cls-1" d="M22.65,39.72h1.06l-.85.64.33,1h0l-.84-.63-.84.63h0l.33-1L21,39.72H22l.31-1h0Z"/>
    <path id="Path_107861" data-name="Path 107861" class="cls-1" d="M26.39,39.72h1.06l-.85.64.33,1h0l-.84-.63-.84.63h0l.33-1-.86-.63h1.06l.31-1h0Z"/>
    <path id="Path_107862" data-name="Path 107862" class="cls-1" d="M30.13,39.72h1.06l-.86.64.33,1h0l-.85-.62-.84.62h0l.33-1-.86-.64h1l.32-1h0Z"/>
    <path id="Path_107863" data-name="Path 107863" class="cls-1" d="M33.86,39.72h1.06l-.85.64.33,1h0l-.84-.62-.84.62h0l.33-1-.86-.64h1.06l.32-1h0Z"/>
    <path id="Path_107864" data-name="Path 107864" class="cls-1" d="M37.6,39.72h1.06l-.85.64.33,1h0l-.84-.62-.84.62h0l.33-1-.86-.64H37l.32-1h0Z"/>
    <path id="Path_107865" data-name="Path 107865" class="cls-1" d="M41.34,39.72H42.4l-.85.64.33,1h0L41,40.75l-.85.62h0l.33-1-.86-.64h1.06l.31-1h0Z"/>
    <path id="Path_107866" data-name="Path 107866" class="cls-1" d="M23.58,15v2.53c0,1.48-1,2-2.23,2s-2.23-.6-2.23-2V15h1.11v2.56a1,1,0,0,0,1,1h.12a1,1,0,0,0,1.13-.92.54.54,0,0,0,0-.18V15Z"/>
    <path id="Path_107867" data-name="Path 107867" class="cls-1" d="M27.54,16.18a3.51,3.51,0,0,0-1.41-.4c-.4,0-.66.15-.66.37,0,.67,2.27.48,2.27,2,0,.86-.72,1.35-1.71,1.35a3,3,0,0,1-1.61-.43v-1a2.65,2.65,0,0,0,1.53.58c.42,0,.65-.15.65-.42,0-.73-2.27-.46-2.27-2.06,0-.78.66-1.29,1.7-1.29a3.75,3.75,0,0,1,1.51.35Z"/>
    <path id="Path_107868" data-name="Path 107868" class="cls-1" d="M33.09,19.49h-1.2l-.37-.89h-2l-.33.89H28L29.82,15h1.29ZM30.48,16.1l-.66,1.73H31.2Z"/>
    <rect id="Rectangle_226" data-name="Rectangle 226" class="cls-1" x="33.65" y="15.03" width="1.11" height="4.46"/>
    <path id="Path_107869" data-name="Path 107869" class="cls-1" d="M37.75,15A2.21,2.21,0,0,1,40.2,17c0,.1,0,.2,0,.29,0,1.29-.82,2.23-2.59,2.23H35.78V15Zm-.86,3.64h.73a1.32,1.32,0,0,0,1.45-1.17,1.92,1.92,0,0,0,0-.24,1.31,1.31,0,0,0-1.2-1.42h-1Z"/>
  </g>
</svg>
