<svg id="logo.cso" xmlns="http://www.w3.org/2000/svg" xmlns:xlink="http://www.w3.org/1999/xlink" width="84.263" height="54.189" viewBox="0 0 84.263 54.189">
  <defs>
    <clipPath id="clip-path">
      <rect id="Rectangle_6" data-name="Rectangle 6" width="84.263" height="54.189" fill="none"/>
    </clipPath>
    <clipPath id="clip-path-3">
      <rect id="Rectangle_2" data-name="Rectangle 2" width="44.013" height="44.013" fill="none"/>
    </clipPath>
    <clipPath id="clip-path-4">
      <rect id="Rectangle_3" data-name="Rectangle 3" width="46.332" height="46.333" fill="none"/>
    </clipPath>
    <clipPath id="clip-path-5">
      <rect id="Rectangle_4" data-name="Rectangle 4" width="41.775" height="41.775" fill="none"/>
    </clipPath>
  </defs>
  <g id="Group_12" data-name="Group 12" clip-path="url(#clip-path)">
    <rect id="Rectangle_1" data-name="Rectangle 1" width="84.263" height="54.189" fill="#fff"/>
    <g id="Group_11" data-name="Group 11">
      <g id="Group_10" data-name="Group 10" clip-path="url(#clip-path)">
        <g id="Group_3" data-name="Group 3" transform="translate(7.847 8.395)" opacity="0.8">
          <g id="Group_2" data-name="Group 2">
            <g id="Group_1" data-name="Group 1" clip-path="url(#clip-path-3)">
              <path id="Path_1" data-name="Path 1" d="M70.923,50.8A22.006,22.006,0,1,1,48.916,28.791,22.006,22.006,0,0,1,70.923,50.8" transform="translate(-26.91 -28.791)" fill="#009cdc"/>
            </g>
          </g>
        </g>
        <g id="Group_6" data-name="Group 6" transform="translate(2.811 3.733)" opacity="0.7">
          <g id="Group_5" data-name="Group 5">
            <g id="Group_4" data-name="Group 4" clip-path="url(#clip-path-4)">
              <path id="Path_2" data-name="Path 2" d="M55.973,35.967A23.166,23.166,0,1,1,32.807,12.8,23.166,23.166,0,0,1,55.973,35.967" transform="translate(-9.641 -12.801)" fill="#0063b0"/>
            </g>
          </g>
        </g>
        <g id="Group_9" data-name="Group 9" transform="translate(8.135 2.603)" opacity="0.7">
          <g id="Group_8" data-name="Group 8">
            <g id="Group_7" data-name="Group 7" clip-path="url(#clip-path-5)">
              <path id="Path_3" data-name="Path 3" d="M69.674,29.813A20.887,20.887,0,1,1,48.786,8.926,20.888,20.888,0,0,1,69.674,29.813" transform="translate(-27.899 -8.926)" fill="#00a1ed"/>
            </g>
          </g>
        </g>
        <path id="Path_4" data-name="Path 4" d="M88.111,97.138l1.237.312a4.164,4.164,0,0,1-1.4,2.324,3.854,3.854,0,0,1-2.47.8,4.437,4.437,0,0,1-2.457-.615,3.839,3.839,0,0,1-1.44-1.781,6.355,6.355,0,0,1-.494-2.505,5.506,5.506,0,0,1,.558-2.547,3.821,3.821,0,0,1,1.587-1.651A4.635,4.635,0,0,1,85.5,90.91a3.832,3.832,0,0,1,2.359.714,3.711,3.711,0,0,1,1.332,2.008l-1.218.287a2.889,2.889,0,0,0-.943-1.485,2.514,2.514,0,0,0-1.555-.465,3.018,3.018,0,0,0-1.8.516,2.727,2.727,0,0,0-1.017,1.386,5.576,5.576,0,0,0-.293,1.794,5.7,5.7,0,0,0,.347,2.081,2.588,2.588,0,0,0,1.08,1.329,3.032,3.032,0,0,0,1.587.44,2.658,2.658,0,0,0,1.759-.6,3.065,3.065,0,0,0,.975-1.778" transform="translate(-57.443 -64.402)" fill="#fff"/>
        <path id="Path_5" data-name="Path 5" d="M113.2,97.412l1.166-.1a2.581,2.581,0,0,0,.386,1.151,2.106,2.106,0,0,0,.94.727,3.566,3.566,0,0,0,1.434.277,3.437,3.437,0,0,0,1.249-.21,1.734,1.734,0,0,0,.807-.577,1.34,1.34,0,0,0,.264-.8,1.218,1.218,0,0,0-.255-.768,1.887,1.887,0,0,0-.842-.551,16.459,16.459,0,0,0-1.664-.456,8.484,8.484,0,0,1-1.8-.583,2.526,2.526,0,0,1-1-.87,2.129,2.129,0,0,1-.328-1.163,2.38,2.38,0,0,1,.4-1.323,2.489,2.489,0,0,1,1.173-.934,4.455,4.455,0,0,1,1.715-.319,4.684,4.684,0,0,1,1.833.335,2.643,2.643,0,0,1,1.221.985,2.825,2.825,0,0,1,.459,1.472l-1.185.089a1.915,1.915,0,0,0-.647-1.339A2.519,2.519,0,0,0,116.9,92a2.614,2.614,0,0,0-1.635.411,1.234,1.234,0,0,0-.513.991,1.062,1.062,0,0,0,.364.828,4.916,4.916,0,0,0,1.865.666,12.361,12.361,0,0,1,2.068.6,2.837,2.837,0,0,1,1.2.953,2.325,2.325,0,0,1,.389,1.329,2.539,2.539,0,0,1-.427,1.405,2.811,2.811,0,0,1-1.227,1.026,4.273,4.273,0,0,1-1.8.367,5.374,5.374,0,0,1-2.126-.37,2.975,2.975,0,0,1-1.345-1.112,3.146,3.146,0,0,1-.513-1.68" transform="translate(-80.193 -64.402)" fill="#fff"/>
        <path id="Path_6" data-name="Path 6" d="M144.491,95.867h0a3.742,3.742,0,0,0,.908,2.661,3.168,3.168,0,0,0,4.577-.009,3.969,3.969,0,0,0,.9-2.786,4.786,4.786,0,0,0-.385-1.992,2.963,2.963,0,0,0-1.128-1.319,3.058,3.058,0,0,0-1.667-.469,3.162,3.162,0,0,0-2.26.9,4.03,4.03,0,0,0-.946,3.012m-1.275-.019a5.077,5.077,0,0,1,1.249-3.643,4.247,4.247,0,0,1,3.225-1.316,4.476,4.476,0,0,1,2.334.618,4.039,4.039,0,0,1,1.584,1.724,5.6,5.6,0,0,1,.545,2.508,5.508,5.508,0,0,1-.573,2.543,3.918,3.918,0,0,1-1.626,1.7,4.643,4.643,0,0,1-2.269.577,4.418,4.418,0,0,1-2.359-.637,4.1,4.1,0,0,1-1.574-1.74,5.274,5.274,0,0,1-.536-2.333" transform="translate(-101.456 -64.386)" fill="#fff"/>
        <path id="Path_7" data-name="Path 7" d="M187.182,100.05h0a1.883,1.883,0,0,0-.324.653,2.559,2.559,0,0,0-.059.351c-.011.111-.016.21-.016.3a.874.874,0,0,0,.215.659.679.679,0,0,0,.476.205.935.935,0,0,0,.723-.362,1.716,1.716,0,0,0,.313-1.139,1.212,1.212,0,0,0-.135-.648.657.657,0,0,0-.308-.27.634.634,0,0,0-.113-.032.651.651,0,0,0-.113-.01.779.779,0,0,0-.659.3m1.074-.556a1.566,1.566,0,0,1,.34.162.759.759,0,0,1,.129.092c.036.032.065.059.086.081a1.64,1.64,0,0,1,.34-.362.639.639,0,0,1,.394-.146.4.4,0,0,1,.275.1.328.328,0,0,1,.113.253v.054a.407.407,0,0,1-.108.2.313.313,0,0,1-.238.092.3.3,0,0,1-.108-.016.2.2,0,0,1-.076-.049.09.09,0,0,0-.022-.016.084.084,0,0,1-.022-.016c-.022-.022-.042-.039-.059-.054a.08.08,0,0,0-.048-.022.1.1,0,0,0-.049.016l-.059.038a.1.1,0,0,0-.038.032.427.427,0,0,1-.038.043.41.41,0,0,0-.038.043.263.263,0,0,0-.027.043,1.289,1.289,0,0,1,.173.356,1.723,1.723,0,0,1,.064.508,1.541,1.541,0,0,1-.491,1.139,1.7,1.7,0,0,1-1.236.481,1.535,1.535,0,0,1-.383-.043,1.731,1.731,0,0,1-.286-.1.134.134,0,0,1-.038-.005.065.065,0,0,1-.027-.016l-.356.7.043.054a3.469,3.469,0,0,1,.5-.108,3.358,3.358,0,0,1,.448-.032,1.818,1.818,0,0,1,1.214.378,1.07,1.07,0,0,1,.416.81,1.278,1.278,0,0,1-.011.157.767.767,0,0,1-.043.167,1.632,1.632,0,0,1-.616.815,2.021,2.021,0,0,1-1.263.373,2.449,2.449,0,0,1-1.085-.211q-.427-.211-.427-.5a.625.625,0,0,1,.1-.351.375.375,0,0,1,.341-.156.371.371,0,0,1,.253.081.415.415,0,0,1,.124.178.458.458,0,0,1,.043.13.605.605,0,0,1,.011.1.4.4,0,0,0,.011.081.357.357,0,0,0,.043.1.468.468,0,0,0,.189.172.91.91,0,0,0,.426.076,1.37,1.37,0,0,0,.842-.243,1.144,1.144,0,0,0,.421-.524.979.979,0,0,0,.032-.119.506.506,0,0,0,.011-.108.6.6,0,0,0-.222-.443,1.134,1.134,0,0,0-.772-.205,4.139,4.139,0,0,0-.55.049,7.553,7.553,0,0,0-.777.156c-.065.022-.117.038-.156.049l-.1.027a.048.048,0,0,0-.022.005.046.046,0,0,1-.022.006.26.26,0,0,0-.048.005.456.456,0,0,0-.059.016l-.14-.129.95-1.706a1.489,1.489,0,0,1-.378-.518,1.6,1.6,0,0,1-.118-.626,1.689,1.689,0,0,1,.464-1.156,1.6,1.6,0,0,1,1.252-.518,1.488,1.488,0,0,1,.5.076" transform="translate(-131.471 -70.361)" fill="#1a1818"/>
        <path id="Path_8" data-name="Path 8" d="M204.772,102.624q-.066.086-.157.211a1.657,1.657,0,0,1-.221.243,2.478,2.478,0,0,1-.583.443,1.576,1.576,0,0,1-.788.194,1.39,1.39,0,0,1-1.058-.448,1.765,1.765,0,0,1-.421-1.258,2.6,2.6,0,0,1,.632-1.7,2.333,2.333,0,0,1,1.4-.891c.043-.007.084-.013.124-.016s.081-.005.124-.005a1.017,1.017,0,0,1,.642.205.66.66,0,0,1,.264.55,1.134,1.134,0,0,1-.389.837,1.433,1.433,0,0,1-1.036.372,2.07,2.07,0,0,1-.248-.016,2.308,2.308,0,0,1-.259-.049l.065-.281c.043.008.086.013.129.017s.087.005.13.005a1.168,1.168,0,0,0,.729-.227.733.733,0,0,0,.3-.616.394.394,0,0,0-.092-.281.559.559,0,0,0-.2-.14.65.65,0,0,0-.108-.033.523.523,0,0,0-.1-.011h-.032a1.233,1.233,0,0,0-.918.615,2.438,2.438,0,0,0-.421,1.447,1.714,1.714,0,0,0,.157.82,1.143,1.143,0,0,0,.351.41.843.843,0,0,0,.3.119,1.514,1.514,0,0,0,.183.022,1.292,1.292,0,0,0,.686-.195,2.624,2.624,0,0,0,.534-.421.424.424,0,0,0,.038-.043.38.38,0,0,1,.038-.043Z" transform="translate(-142.776 -70.414)" fill="#1a1818"/>
        <path id="Path_9" data-name="Path 9" d="M216.5,100.308h0a3.9,3.9,0,0,0-.421,1.258q-.032.227-.048.448c-.01.148-.016.286-.016.416a1.05,1.05,0,0,0,.221.7.817.817,0,0,0,.664.264.992.992,0,0,0,.9-.481,3.164,3.164,0,0,0,.421-1.052,6.217,6.217,0,0,0,.092-.642c.018-.2.027-.384.027-.535a.868.868,0,0,0-.248-.7,1,1,0,0,0-.54-.243.209.209,0,0,0-.064-.011h-.065a.993.993,0,0,0-.918.578m2.208-.308a2.332,2.332,0,0,1,.437,1.4,2.361,2.361,0,0,1-.626,1.6,2.057,2.057,0,0,1-1.619.712,1.475,1.475,0,0,1-1.269-.578,2.184,2.184,0,0,1-.427-1.333,2.443,2.443,0,0,1,.658-1.668,2.02,2.02,0,0,1,1.555-.739,1.491,1.491,0,0,1,1.291.6" transform="translate(-152.455 -70.414)" fill="#1a1818"/>
        <path id="Path_10" data-name="Path 10" d="M231.333,99.785a.212.212,0,0,1,.065-.01.117.117,0,0,0,.054-.011c.122-.022.236-.045.34-.07a1.231,1.231,0,0,0,.3-.113,1.043,1.043,0,0,0,.151-.081c.05-.033.1-.066.151-.1h.129a2.466,2.466,0,0,1,.081.34,2.16,2.16,0,0,1,.027.34v.108a.253.253,0,0,1-.006.048.313.313,0,0,0-.005.059h.022c.036-.072.072-.137.108-.194a1.359,1.359,0,0,1,.119-.162,1.227,1.227,0,0,1,.556-.459,1.51,1.51,0,0,1,.4-.081.432.432,0,0,1,.318.124.743.743,0,0,1,.178.276,1.021,1.021,0,0,1,.032.119.564.564,0,0,1,.01.108.323.323,0,0,1-.01.076.435.435,0,0,1-.032.087.484.484,0,0,1-.146.178.4.4,0,0,1-.253.081h-.054a.574.574,0,0,1-.227-.071.362.362,0,0,1-.162-.2.066.066,0,0,1-.016-.027.3.3,0,0,0-.017-.038.228.228,0,0,0-.059-.06.174.174,0,0,0-.1-.027.362.362,0,0,0-.205.125,1.431,1.431,0,0,0-.27.448,2.7,2.7,0,0,0-.14.383q-.065.222-.13.5l-.475,2.159h-.756l.551-2.635q.065-.323.081-.448c.011-.083.016-.128.016-.135a.461.461,0,0,0-.005-.07.423.423,0,0,0-.016-.07.318.318,0,0,0-.124-.178.6.6,0,0,0-.362-.081h-.119Z" transform="translate(-163.864 -70.414)" fill="#1a1818"/>
        <path id="Path_11" data-name="Path 11" d="M242.649,100.05h0a1.894,1.894,0,0,0-.324.653,2.645,2.645,0,0,0-.059.351c-.011.111-.016.21-.016.3a.874.874,0,0,0,.215.659.679.679,0,0,0,.476.205.934.934,0,0,0,.723-.362,1.716,1.716,0,0,0,.313-1.139,1.21,1.21,0,0,0-.135-.648.655.655,0,0,0-.308-.27.63.63,0,0,0-.114-.032.649.649,0,0,0-.113-.01.779.779,0,0,0-.658.3m1.074-.556a1.582,1.582,0,0,1,.34.162.759.759,0,0,1,.13.092c.036.032.065.059.086.081a1.634,1.634,0,0,1,.34-.362.639.639,0,0,1,.394-.146.4.4,0,0,1,.275.1.328.328,0,0,1,.113.253v.054a.407.407,0,0,1-.108.2.313.313,0,0,1-.238.092.3.3,0,0,1-.108-.016.207.207,0,0,1-.075-.049.1.1,0,0,0-.022-.016.085.085,0,0,1-.022-.016c-.022-.022-.041-.039-.059-.054a.082.082,0,0,0-.049-.022.1.1,0,0,0-.049.016l-.059.038a.1.1,0,0,0-.037.032.57.57,0,0,1-.038.043.383.383,0,0,0-.038.043.29.29,0,0,0-.027.043,1.273,1.273,0,0,1,.173.356,1.712,1.712,0,0,1,.065.508,1.541,1.541,0,0,1-.491,1.139,1.7,1.7,0,0,1-1.236.481,1.543,1.543,0,0,1-.384-.043,1.748,1.748,0,0,1-.286-.1.132.132,0,0,1-.038-.005.061.061,0,0,1-.027-.016l-.356.7.043.054a3.456,3.456,0,0,1,.5-.108,3.351,3.351,0,0,1,.448-.032,1.819,1.819,0,0,1,1.214.378,1.071,1.071,0,0,1,.416.81,1.167,1.167,0,0,1-.011.157.766.766,0,0,1-.043.167,1.628,1.628,0,0,1-.615.815,2.02,2.02,0,0,1-1.263.373,2.448,2.448,0,0,1-1.085-.211q-.427-.211-.427-.5a.625.625,0,0,1,.1-.351.375.375,0,0,1,.341-.156.37.37,0,0,1,.253.081.413.413,0,0,1,.124.178.46.46,0,0,1,.043.13.718.718,0,0,1,.011.1.417.417,0,0,0,.01.081.348.348,0,0,0,.043.1.473.473,0,0,0,.189.172.909.909,0,0,0,.426.076,1.369,1.369,0,0,0,.842-.243,1.144,1.144,0,0,0,.421-.524.979.979,0,0,0,.032-.119.546.546,0,0,0,.011-.108.6.6,0,0,0-.222-.443,1.135,1.135,0,0,0-.772-.205,4.132,4.132,0,0,0-.55.049,7.557,7.557,0,0,0-.778.156c-.065.022-.117.038-.156.049l-.1.027a.049.049,0,0,0-.021.005.048.048,0,0,1-.022.006.263.263,0,0,0-.049.005.484.484,0,0,0-.059.016l-.14-.129.95-1.706a1.485,1.485,0,0,1-.378-.518,1.6,1.6,0,0,1-.119-.626,1.69,1.69,0,0,1,.464-1.156,1.6,1.6,0,0,1,1.253-.518,1.485,1.485,0,0,1,.5.076" transform="translate(-170.764 -70.361)" fill="#1a1818"/>
        <path id="Path_12" data-name="Path 12" d="M257.538,91.689h0v-.027a.572.572,0,0,1,.167-.335.5.5,0,0,1,.373-.151h.054a.575.575,0,0,1,.335.167.5.5,0,0,1,.151.373v.054a.574.574,0,0,1-.168.335.493.493,0,0,1-.373.151h-.054a.569.569,0,0,1-.334-.167.494.494,0,0,1-.151-.372Zm.567,6.122a1.892,1.892,0,0,1-.469.081.671.671,0,0,1-.46-.119.488.488,0,0,1-.124-.367,1.321,1.321,0,0,1,.016-.194c.011-.072.023-.151.037-.238l.476-2.235c.014-.094.027-.162.038-.205a.467.467,0,0,0,.017-.108.208.208,0,0,0-.06-.167.273.273,0,0,0-.124-.059.1.1,0,0,0-.043-.011h-.4l.054-.237a3.988,3.988,0,0,0,.832-.108,1.942,1.942,0,0,0,.594-.27h.1l-.723,3.4a.107.107,0,0,1-.006.038.121.121,0,0,0-.005.038.021.021,0,0,1-.006.016.023.023,0,0,0,0,.016.253.253,0,0,1-.006.048.316.316,0,0,0-.005.06v.043a.159.159,0,0,0,.011.054.166.166,0,0,0,.064.086.255.255,0,0,0,.162.044.632.632,0,0,0,.216-.044,1.6,1.6,0,0,0,.324-.183l.161.173a1.617,1.617,0,0,1-.664.448" transform="translate(-182.069 -64.591)" fill="#1a1818"/>
        <path id="Path_13" data-name="Path 13" d="M268.4,100.465h0a.31.31,0,0,1,.011-.065.382.382,0,0,0,.011-.086.038.038,0,0,0,.01-.027v-.027a1.029,1.029,0,0,0,.016-.1.718.718,0,0,0,.006-.081.29.29,0,0,0-.092-.238.457.457,0,0,0-.2-.1.589.589,0,0,1-.081-.005.518.518,0,0,0-.07-.006.756.756,0,0,0-.269.054,1.33,1.33,0,0,0-.292.162,2.412,2.412,0,0,0-.691.88,3.279,3.279,0,0,0-.313,1.506,1.05,1.05,0,0,0,.179.7.662.662,0,0,0,.394.227h.087a.74.74,0,0,0,.545-.21,1.112,1.112,0,0,0,.286-.459c.007-.022.015-.041.021-.059a.137.137,0,0,0,.011-.049Zm.27,2.332a.113.113,0,0,1-.005.038.113.113,0,0,0-.005.038.023.023,0,0,1-.006.016.021.021,0,0,0-.006.016.249.249,0,0,1-.005.048.3.3,0,0,0-.005.06v.043a.184.184,0,0,0,.075.14.256.256,0,0,0,.162.043.637.637,0,0,0,.216-.043,1.611,1.611,0,0,0,.324-.183l.162.173-.027.027-.027.027a2.118,2.118,0,0,1-.475.329,1.3,1.3,0,0,1-.6.146.728.728,0,0,1-.443-.108.449.449,0,0,1-.14-.378v-.022h-.033a1.592,1.592,0,0,1-.4.308,1.532,1.532,0,0,1-.454.167.76.76,0,0,1-.146.027c-.047,0-.1.005-.146.005h-.064a.2.2,0,0,1-.065-.011,1.027,1.027,0,0,1-.632-.313,1.28,1.28,0,0,1-.286-.939c0-.087,0-.173.011-.259a1.572,1.572,0,0,1,.043-.259,3.651,3.651,0,0,1,.886-1.744A2.027,2.027,0,0,1,268.1,99.4a1.1,1.1,0,0,1,.151.01.613.613,0,0,1,.151.043.806.806,0,0,1,.194.1,1.2,1.2,0,0,1,.184.151l.291-.216h.292Z" transform="translate(-188.181 -70.414)" fill="#1a1818"/>
      </g>
    </g>
  </g>
</svg>
