<svg id="Layer_1" data-name="Layer 1" xmlns="http://www.w3.org/2000/svg" xmlns:xlink="http://www.w3.org/1999/xlink" width="506.37" height="372.3" viewBox="0 0 506.37 372.3">
  <defs>
    <style>
      .cls-1, .cls-22, .cls-23, .cls-27, .cls-29 {
        fill: none;
      }

      .cls-2 {
        clip-path: url(#clip-path);
      }

      .cls-3 {
        fill: #fff;
      }

      .cls-4, .cls-5 {
        fill: #0c2858;
      }

      .cls-25, .cls-26, .cls-5 {
        fill-rule: evenodd;
      }

      .cls-6 {
        fill: #b00925;
      }

      .cls-7 {
        clip-path: url(#clip-path-2);
      }

      .cls-8 {
        opacity: 0.8;
      }

      .cls-9 {
        clip-path: url(#clip-path-4);
      }

      .cls-10 {
        fill: #009cdc;
      }

      .cls-11 {
        opacity: 0.7;
      }

      .cls-12 {
        clip-path: url(#clip-path-5);
      }

      .cls-13 {
        fill: #0063b0;
      }

      .cls-14 {
        clip-path: url(#clip-path-6);
      }

      .cls-15 {
        fill: #00a1ed;
      }

      .cls-16 {
        fill: #1a1818;
      }

      .cls-17 {
        clip-path: url(#clip-path-7);
      }

      .cls-18 {
        fill: #124582;
      }

      .cls-19 {
        fill: #1c2133;
      }

      .cls-20 {
        fill: #707070;
      }

      .cls-21 {
        fill: #156fc5;
      }

      .cls-22 {
        stroke: red;
      }

      .cls-22, .cls-23, .cls-27, .cls-29 {
        stroke-linecap: round;
        stroke-linejoin: round;
      }

      .cls-22, .cls-23, .cls-27 {
        stroke-width: 1.5px;
      }

      .cls-23, .cls-29 {
        stroke: #156fc5;
      }

      .cls-24 {
        clip-path: url(#clip-path-8);
      }

      .cls-26 {
        fill: #ff004d;
      }

      .cls-27 {
        stroke: #707070;
      }

      .cls-28 {
        fill: #f20606;
      }

      .cls-29 {
        stroke-width: 2px;
      }
    </style>
    <clipPath id="clip-path">
      <rect class="cls-1" x="2" y="2" width="198.54" height="59.3"/>
    </clipPath>
    <clipPath id="clip-path-2">
      <rect class="cls-1" x="221" y="4" width="84.26" height="54.19"/>
    </clipPath>
    <clipPath id="clip-path-4">
      <rect class="cls-1" x="228.85" y="12.4" width="44.01" height="44.01"/>
    </clipPath>
    <clipPath id="clip-path-5">
      <rect class="cls-1" x="223.81" y="7.73" width="46.33" height="46.33"/>
    </clipPath>
    <clipPath id="clip-path-6">
      <rect class="cls-1" x="229.14" y="6.6" width="41.78" height="41.78"/>
    </clipPath>
    <clipPath id="clip-path-7">
      <rect class="cls-1" x="338" y="7" width="121.94" height="49.46"/>
    </clipPath>
    <clipPath id="clip-path-8">
      <rect class="cls-1" x="231" y="76" width="60.45" height="20.42"/>
    </clipPath>
  </defs>
  <title>sprite</title>
  <g id="usid">
    <g class="cls-2">
      <g id="Group_655" data-name="Group 655">
        <path id="Path_107737" data-name="Path 107737" class="cls-3" d="M2.25,31.69A29.44,29.44,0,1,1,31.69,61.13h0A29.44,29.44,0,0,1,2.25,31.69h0"/>
        <path id="Path_107738" data-name="Path 107738" class="cls-3" d="M31.69,55.16A23.48,23.48,0,1,0,8.21,31.68h0A23.47,23.47,0,0,0,31.67,55.16h0"/>
        <path id="Path_107739" data-name="Path 107739" class="cls-4" d="M96.39,12.49V28.6c0,9.41-6.42,12.66-14.2,12.66C74,41.26,68,37.43,68,28.64V12.49h7.08V28.81c0,4.08,3,6.54,7,6.54,3.75,0,7.2-2,7.2-7V12.49Z"/>
        <path id="Path_107740" data-name="Path 107740" class="cls-4" d="M121.16,19.86c-4.13-1.83-6.58-2.54-9-2.54s-4.16.92-4.16,2.33c0,4.29,14.44,3.08,14.44,13,0,5.45-4.58,8.62-10.9,8.62a19.24,19.24,0,0,1-10.24-2.75V32.39c4.08,2.71,6.57,3.67,9.7,3.67,2.7,0,4.16-1,4.16-2.63,0-4.66-14.45-3-14.45-13.15,0-4.91,4.25-8.16,10.83-8.16a23.34,23.34,0,0,1,9.62,2.2Z"/>
        <path id="Path_107741" data-name="Path 107741" class="cls-4" d="M71.62,47.88H69v1.88h2.64v.88H69v3.15H68V47h3.62Z"/>
        <path id="Path_107742" data-name="Path 107742" class="cls-4" d="M74.39,47c1.37,0,2.22.73,2.22,1.9a1.69,1.69,0,0,1-1.13,1.66A5.48,5.48,0,0,1,77,52.45c.29.47.46.7.93,1.35H76.75l-.9-1.4c-.9-1.39-1.3-1.55-1.8-1.55h-.4v2.94h-1V47Zm-.74,3h.63c1,0,1.34-.53,1.33-1.1s-.39-1-1.33-1h-.63Z"/>
        <path id="Path_107743" data-name="Path 107743" class="cls-4" d="M81.31,46.92a3.48,3.48,0,1,1-3.64,3.48,3.44,3.44,0,0,1,3.4-3.48h0a.81.81,0,0,1,.22,0m0,6.07a2.59,2.59,0,1,0-2.64-2.59,2.55,2.55,0,0,0,2.5,2.6h.14"/>
        <path id="Path_107744" data-name="Path 107744" class="cls-4" d="M92.26,53.79h-1V48.51h0l-2.09,2.63H89l-2.09-2.63h0v5.28h-1V47h.91l2.25,2.78L91.35,47h.9Z"/>
        <path id="Path_107745" data-name="Path 107745" class="cls-4" d="M101.28,47.88H98.93v5.91H98V47.88H95.6V47h5.68Z"/>
        <path id="Path_107746" data-name="Path 107746" class="cls-4" d="M107.84,53.79h-1V50.84H103v2.95h-1V47h1v3h3.8V47h1Z"/>
        <path id="Path_107747" data-name="Path 107747" class="cls-4" d="M113.17,47.88h-2.88v2h2.78v.88h-2.78v2.11h3v.87h-3.94V47h3.86Z"/>
        <path id="Path_107748" data-name="Path 107748" class="cls-4" d="M122.79,53.8h-1l-.91-2H118l-.86,2h-1l2.93-6.8h.68Zm-4.41-2.88h2.11l-1.09-2.46Z"/>
        <path id="Path_107749" data-name="Path 107749" class="cls-4" d="M129.74,53.79h-1V48.51h0l-2.09,2.63h-.16l-2.09-2.63h0v5.28h-1V47h.91l2.25,2.78L128.84,47h.9Z"/>
        <path id="Path_107750" data-name="Path 107750" class="cls-4" d="M135,47.88h-2.88v2h2.78v.88h-2.78v2.11h3v.87h-3.94V47H135Z"/>
        <path id="Path_107751" data-name="Path 107751" class="cls-4" d="M137.88,47c1.38,0,2.23.73,2.23,1.9A1.68,1.68,0,0,1,139,50.57a5.63,5.63,0,0,1,1.51,1.88c.29.47.46.7.92,1.34h-1.16l-.9-1.39c-.9-1.39-1.3-1.55-1.8-1.55h-.41v2.94h-1V47Zm-.73,3h.62c1,0,1.35-.53,1.34-1.1s-.39-1-1.34-1h-.62Z"/>
        <rect id="Rectangle_218" data-name="Rectangle 218" class="cls-4" x="141.87" y="47.01" width="0.98" height="6.79"/>
        <path id="Path_107752" data-name="Path 107752" class="cls-4" d="M149.93,48.52a4.52,4.52,0,0,0-2.34-.71,2.6,2.6,0,0,0-2.71,2.46v.14A2.54,2.54,0,0,0,147.37,53h.26a4.36,4.36,0,0,0,2.36-.77V53.3a4.86,4.86,0,0,1-2.45.6,3.48,3.48,0,0,1-3.66-3.27h0a.21.21,0,0,0,0-.11,3.55,3.55,0,0,1,3.49-3.59h.24a6,6,0,0,1,2.32.56Z"/>
        <path id="Path_107753" data-name="Path 107753" class="cls-4" d="M157,53.8h-1l-.9-2h-2.89l-.86,2h-1l2.88-6.8h.69Zm-4.41-2.88h2.11l-1.1-2.46Z"/>
        <path id="Path_107754" data-name="Path 107754" class="cls-4" d="M163.88,53.79H163l-4.54-5.22v5.22h-.91V47h.77l4.6,5.25V47h.92Z"/>
        <path id="Path_107755" data-name="Path 107755" class="cls-4" d="M170.44,47a1.91,1.91,0,0,1,2.15,1.62,1.82,1.82,0,0,1,0,.33c0,1.06-.71,1.9-2.29,1.9h-1v2.93h-1V47Zm-1.14,3h1.1a1,1,0,0,0,1.17-.8h0v-.09a.49.49,0,0,0,0-.17c0-.5-.27-1-1.16-1H169.3Z"/>
        <path id="Path_107756" data-name="Path 107756" class="cls-4" d="M177.3,47.88h-2.88v2h2.78v.88h-2.78v2.11h3v.87h-3.94V47h3.85Z"/>
        <path id="Path_107757" data-name="Path 107757" class="cls-4" d="M181.76,46.92a3.48,3.48,0,1,1-3.64,3.48,3.44,3.44,0,0,1,3.4-3.48h0a.81.81,0,0,1,.22,0m0,6.07a2.59,2.59,0,1,0-2.63-2.59,2.54,2.54,0,0,0,2.48,2.6h.17"/>
        <path id="Path_107758" data-name="Path 107758" class="cls-4" d="M188.47,47a1.91,1.91,0,0,1,2.15,1.62,1.82,1.82,0,0,1,0,.33c0,1.06-.71,1.9-2.29,1.9h-1v2.93h-1V47Zm-1.14,3h1.1a1,1,0,0,0,1.17-.8h0v-.09a.49.49,0,0,0,0-.17,1,1,0,0,0-1-1h-1.3Z"/>
        <path id="Path_107759" data-name="Path 107759" class="cls-4" d="M192.44,52.92h3.06v.87h-4V47h1Z"/>
        <path id="Path_107760" data-name="Path 107760" class="cls-4" d="M200.1,47.88h-2.88v2H200v.88h-2.78v2.11h3v.87h-3.94V47h3.85Z"/>
        <path id="Path_107761" data-name="Path 107761" class="cls-4" d="M2,31.69A29.69,29.69,0,1,0,31.69,2h0A29.73,29.73,0,0,0,2,31.69m.49,0a29.2,29.2,0,1,1,29.2,29.2h0a29.2,29.2,0,0,1-29.2-29.2h0"/>
        <path id="Path_107762" data-name="Path 107762" class="cls-4" d="M8,31.69A23.72,23.72,0,1,0,31.75,8h-.06A23.73,23.73,0,0,0,8,31.69m.49,0A23.23,23.23,0,1,1,31.72,54.92h0A23.23,23.23,0,0,1,8.46,31.72h0"/>
        <rect id="Rectangle_219" data-name="Rectangle 219" class="cls-4" x="18.18" y="40.07" width="27.13" height="4.25"/>
        <rect id="Rectangle_220" data-name="Rectangle 220" class="cls-4" x="18.17" y="15.39" width="27.14" height="7.87"/>
        <rect id="Rectangle_221" data-name="Rectangle 221" class="cls-4" x="18.18" y="15.39" width="27.14" height="7.87"/>
        <path id="Path_107763" data-name="Path 107763" class="cls-4" d="M58.16,26.91V28l-.67-.9-1.07.35.66-.9-.66-.9,1.07.36.68-.91v1.11l1,.34Z"/>
        <path id="Path_107764" data-name="Path 107764" class="cls-4" d="M5,26.24V25.12l.67.9,1.08-.34-.67.89.66.9-1.07-.35L5,28V26.91l-1-.34Z"/>
        <path id="Path_107765" data-name="Path 107765" class="cls-4" d="M7.16,17.81l1.64.81a1.39,1.39,0,0,1,.74,1.81h0a1.35,1.35,0,0,1-.15.26,1.44,1.44,0,0,1-1.83.89l-.17-.07L5.73,20.7l.35-.7,1.67.82a.75.75,0,0,0,1-.29v-.1a.75.75,0,0,0-.24-1l-.12-.06-1.61-.8Z"/>
        <path id="Path_107766" data-name="Path 107766" class="cls-4" d="M12.23,16.07l-.39.55-2.73.28,1.7,1.19-.46.66L7.7,16.89l.43-.6L10.74,16,9.12,14.87l.46-.66Z"/>
        <rect id="Rectangle_222" data-name="Rectangle 222" class="cls-4" x="11.33" y="12.6" width="0.81" height="3.24" transform="translate(-6.69 13.66) rotate(-48.73)"/>
        <path id="Path_107767" data-name="Path 107767" class="cls-4" d="M14,10.55l-.85.8L15,13.27l-.59.55L12.53,11.9l-.85.8-.41-.43,2.29-2.16Z"/>
        <path id="Path_107768" data-name="Path 107768" class="cls-4" d="M18,10.83l-1.9,1.41L14.19,9.63l1.9-1.39.35.48-1.25.91.4.54,1.19-.87.35.48-1.19.87.46.63,1.28-.93Z"/>
        <path id="Path_107769" data-name="Path 107769" class="cls-4" d="M18.15,7a1.6,1.6,0,0,1,2.23.38,1.18,1.18,0,0,1,.11.19c.45.82.26,1.7-.87,2.31l-1.18.64L16.89,7.7Zm.71,2.62.46-.25a1,1,0,0,0,.52-1.25L19.76,8a1,1,0,0,0-1.26-.5l-.16.09-.46.25Z"/>
        <path id="Path_107770" data-name="Path 107770" class="cls-4" d="M24.22,5.4a2.7,2.7,0,0,0-1.06,0c-.27.09-.42.25-.37.4.15.46,1.68-.18,2,.89.19.59-.19,1.1-.88,1.32a2.14,2.14,0,0,1-1.2.07l-.22-.66a2,2,0,0,0,1.18,0c.29-.1.42-.25.36-.43-.17-.5-1.67.19-2-.91-.18-.53.17-1,.88-1.27a2.51,2.51,0,0,1,1.09,0Z"/>
        <path id="Path_107771" data-name="Path 107771" class="cls-4" d="M27.9,4.36l-1.15.23.51,2.59-.79.16L26,4.74,24.81,5l-.12-.58,3.09-.61Z"/>
        <path id="Path_107772" data-name="Path 107772" class="cls-4" d="M31.56,6.73l-.87.06-.32-.62-1.44.12-.19.65L27.89,7l1.05-3.33.93-.07ZM29.48,4.42,29.1,5.71l1-.08Z"/>
        <path id="Path_107773" data-name="Path 107773" class="cls-4" d="M34.32,4.23l-1.18-.05L33,6.82h-.8l.1-2.64H31.13v-.6l3.15.12Z"/>
        <path id="Path_107774" data-name="Path 107774" class="cls-4" d="M37,7.32l-2.35-.39.52-3.19,2.32.38-.09.58-1.53-.25-.11.67,1.46.24-.1.58-1.46-.23-.12.76,1.55.26Z"/>
        <path id="Path_107775" data-name="Path 107775" class="cls-4" d="M40.22,5.73a2.52,2.52,0,0,0-.91-.56c-.28-.08-.49,0-.53.13-.13.47,1.49.78,1.18,1.87-.17.6-.77.8-1.46.61a2.23,2.23,0,0,1-1-.62l.19-.67a1.84,1.84,0,0,0,1,.69c.3.09.48,0,.53-.15.15-.51-1.49-.78-1.17-1.89.15-.54.72-.77,1.44-.56a2.7,2.7,0,0,1,1,.54Z"/>
        <path id="Path_107776" data-name="Path 107776" class="cls-4" d="M43.91,9.91l-.79-.37V8.85l-1.31-.61-.49.47-.77-.36L43.13,6l.85.4Zm-.67-3-1,.94.9.42Z"/>
        <path id="Path_107777" data-name="Path 107777" class="cls-4" d="M47.81,9.72A2.72,2.72,0,0,0,47,8.81a1,1,0,0,0-1.41,0h-.05L45.41,9a1,1,0,0,0,.32,1.36l.09.05a1.07,1.07,0,0,0,.51.2l.21-.31-.39-.3.32-.5,1.07.7-.73,1.11A2.19,2.19,0,0,1,45.44,11a1.73,1.73,0,0,1-.77-2.32h0a.21.21,0,0,1,0-.11,1.75,1.75,0,0,1,2.43-.43l.12.1a3.14,3.14,0,0,1,.93.92Z"/>
        <path id="Path_107778" data-name="Path 107778" class="cls-4" d="M48.87,13.63l-1.81-1.55,2.11-2.46L51,11.16l-.39.45-1.17-1-.44.52,1.11,1-.38.45-1.12-1-.51.59,1.2,1Z"/>
        <path id="Path_107779" data-name="Path 107779" class="cls-4" d="M51.42,16.42,51,15.91l.37-2.71-1.55,1.37-.53-.6,2.42-2.15.49.56L51.83,15l1.48-1.31.54.6Z"/>
        <path id="Path_107780" data-name="Path 107780" class="cls-4" d="M53.66,19.28a2.46,2.46,0,0,1-1-.89A1.7,1.7,0,0,1,52.94,16h0l.11-.09a1.76,1.76,0,0,1,2.41.63h0v.09a2.34,2.34,0,0,1,.4,1.14l-.6.39A2.24,2.24,0,0,0,55,17.05a1,1,0,1,0-1.87.71h0v.07a.84.84,0,0,0,.18.28,2.48,2.48,0,0,0,.94.79Z"/>
        <path id="Path_107781" data-name="Path 107781" class="cls-4" d="M55.43,20.09l1-1.89.42.89-.62,1.06,1.22.21.41.88-2.1-.42-1.37.64-.34-.73Z"/>
        <rect id="Rectangle_223" data-name="Rectangle 223" class="cls-4" x="3.63" y="32.34" width="3.23" height="0.81" transform="translate(-1.26 0.23) rotate(-2.21)"/>
        <path id="Path_107782" data-name="Path 107782" class="cls-4" d="M4.15,37.43l-.1-.67,1.79-2.07-2,.3-.12-.8,3.2-.47.11.73-1.7,2,2-.29.12.8Z"/>
        <path id="Path_107783" data-name="Path 107783" class="cls-4" d="M7.76,40.48l-.33-1.13-2.54.76-.23-.77,2.53-.75-.33-1.13.56-.17.9,3Z"/>
        <path id="Path_107784" data-name="Path 107784" class="cls-4" d="M6.48,44.13,5.52,42l3-1.3,1,2.15L8.89,43l-.63-1.42-.62.28.6,1.35-.54.23-.59-1.35-.72.32L7,43.89Z"/>
        <path id="Path_107785" data-name="Path 107785" class="cls-4" d="M10.4,44.51a1,1,0,0,1-.21,1.35h0a.84.84,0,0,1-1-.07c0,.37-.27.66-.85,1.53l-.45-.76c.42-.65.89-1.08.66-1.46l-.11-.2-1.14.67-.41-.7,2.79-1.64Zm-1.46.12.21.37c.12.19.31.33.55.19s.23-.32.08-.58l-.21-.35Z"/>
        <path id="Path_107786" data-name="Path 107786" class="cls-4" d="M10.76,50.47l-.43-.53.5-2.69-1.61,1.3-.5-.63,2.52-2,.46.58-.46,2.58,1.54-1.23.5.62Z"/>
        <path id="Path_107787" data-name="Path 107787" class="cls-4" d="M13.91,53.5l-.63-.59.24-.65-1.06-1-.61.31L11.22,51l3.16-1.48.69.63Zm.29-3.09L13,51l.73.68Z"/>
        <path id="Path_107788" data-name="Path 107788" class="cls-4" d="M17.9,53.12l-.95-.7-1.56,2.13-.65-.48L16.3,52l-.94-.69.35-.48,2.54,1.87Z"/>
        <rect id="Rectangle_224" data-name="Rectangle 224" class="cls-4" x="16.53" y="54.02" width="3.24" height="0.81" transform="translate(-37.89 42.15) rotate(-59.2)"/>
        <path id="Path_107789" data-name="Path 107789" class="cls-4" d="M20.05,57.29a1.67,1.67,0,0,1,1-3.18,1.5,1.5,0,0,1,.34.16,1.67,1.67,0,0,1-1,3.19h-.06a1.87,1.87,0,0,1-.32-.15m1.1-2.41a1,1,0,0,0-1.37.37,1,1,0,0,0,.37,1.38h.05a1,1,0,0,0,1.34-.43.87.87,0,0,0,.07-.17,1,1,0,0,0-.41-1.14h-.09"/>
        <path id="Path_107790" data-name="Path 107790" class="cls-4" d="M25.79,59.19,25.13,59,24,56.54l-.55,2-.78-.21.86-3.12.71.2,1.14,2.36.53-1.9.78.21Z"/>
        <path id="Path_107791" data-name="Path 107791" class="cls-4" d="M30.13,59.78l-.86-.1L29.08,59l-1.44-.17-.31.61-.85-.1,1.68-3.06.93.11Zm-1.59-2.67-.62,1.19,1,.12Z"/>
        <path id="Path_107792" data-name="Path 107792" class="cls-4" d="M33.25,59.76H30.79V56.53h.8v2.64h1.66Z"/>
        <path id="Path_107793" data-name="Path 107793" class="cls-4" d="M36.21,56.13a1.6,1.6,0,0,1,2,1.06h0a.67.67,0,0,1,0,.2c.17.91-.29,1.69-1.55,1.93l-1.32.24-.58-3.18Zm-.13,2.71.51-.1a1,1,0,0,0,.89-1.1h0a1,1,0,0,0-1.1-.89h-.16l-.5.1Z"/>
        <path id="Path_107794" data-name="Path 107794" class="cls-4" d="M41.67,58l-2.27.73-1-3.07,2.24-.73.18.57-1.47.5.21.65,1.4-.46.18.57-1.4.45L40,58l1.5-.48Z"/>
        <path id="Path_107795" data-name="Path 107795" class="cls-4" d="M43.93,57.07l-.32.15-2.8-2.31.79-.37,1.55,1.31v-2l.78-.37Z"/>
        <path id="Path_107796" data-name="Path 107796" class="cls-4" d="M47.83,54.79l-2,1.27L44.1,53.32l2-1.25.31.5-1.3.82.36.58,1.25-.79.31.5-1.25.79.42.66,1.34-.84Z"/>
        <path id="Path_107797" data-name="Path 107797" class="cls-4" d="M50.45,52.73l-1.92,1.54-2-2.51.63-.5,1.66,2.05,1.29-1Z"/>
        <path id="Path_107798" data-name="Path 107798" class="cls-4" d="M52.23,51a1.67,1.67,0,1,1-2.42-2.31h0l.09-.08a1.07,1.07,0,0,1,.16-.14,1.67,1.67,0,0,1,2.22.05,1.71,1.71,0,0,1,0,2.42h-.06M50.3,49.2a1,1,0,1,0,1.41-.07h0a.94.94,0,0,0-1.33,0h0l-.08.08"/>
        <path id="Path_107799" data-name="Path 107799" class="cls-4" d="M52.19,45.85a1,1,0,0,1,1.88.67,1.09,1.09,0,0,1-.19.33l-.1.15-.37.52,1.06.75-.46.66L51.36,47Zm.73,1.29.22-.3c.21-.3.18-.49,0-.63s-.4-.09-.65.27l-.16.23Z"/>
        <path id="Path_107800" data-name="Path 107800" class="cls-4" d="M54.31,42.15l.32-.62L57.51,43l-.37.72-1.8-.92.51,1.2-.05.11-1.3.32,1.8.92-.37.71L53.05,44.6l.32-.63,1.54-.38Z"/>
        <path id="Path_107801" data-name="Path 107801" class="cls-4" d="M58.64,39.77,57.87,42l-3.06-1,.76-2.23.56.19-.5,1.47.64.22.48-1.4.56.19-.47,1.4.73.25.51-1.49Z"/>
        <path id="Path_107802" data-name="Path 107802" class="cls-4" d="M59.54,35.67l-.13.67L57,37.69l2,.4-.16.79-3.16-.62.14-.72,2.27-1.32-1.94-.38.16-.79Z"/>
        <path id="Path_107803" data-name="Path 107803" class="cls-4" d="M57.17,31.59l-.07,1.17,2.64.14v.81l-2.64-.15L57,34.73h-.59l.17-3.15Z"/>
        <path id="Path_107804" data-name="Path 107804" class="cls-5" d="M27.46,34.41l-.07-.08h0v.14h0l-.18.16.23-.08h.11"/>
        <path id="Path_107805" data-name="Path 107805" class="cls-5" d="M28.86,26.82l.05.05h0L29,27l.07.16h0m0-.05h0a.11.11,0,0,0,0-.08h0A.21.21,0,0,0,29,26.9h-.19"/>
        <path id="Path_107806" data-name="Path 107806" class="cls-5" d="M29.15,27.7h0l-.1.09H29s-.09.09-.14.08h-.07v-.23l-.07.08h-.06l-.07.07-.09.08-.06.07-.08.06h-.05a.06.06,0,0,0-.06,0h.4l.13-.05H29v-.1h0v-.17a.17.17,0,0,1,.07-.16.15.15,0,0,0,0-.13l-.12.16"/>
        <path id="Path_107807" data-name="Path 107807" class="cls-5" d="M28.21,27.89h0l-.1.08-.1.1-.05.05-.1.1H27.8v.06h.12l.21-.24a1.07,1.07,0,0,0,.19-.28h0"/>
        <path id="Path_107808" data-name="Path 107808" class="cls-5" d="M27.63,28h0l-.1.07-.06.05a.21.21,0,0,0,0,.11h.12v-.05h0"/>
        <path id="Path_107810" data-name="Path 107810" class="cls-5" d="M42.81,28.5h-.12l-.07.05h.11l.2-.1h0"/>
        <path id="Path_107811" data-name="Path 107811" class="cls-5" d="M43.31,28.55v.05h-.09"/>
        <path id="Path_107812" data-name="Path 107812" class="cls-5" d="M31.65,29.37a.43.43,0,0,0-.12-.11l-.07-.07h0l-.09-.07-.07-.05h0L31.17,29h-1l.27.07a1,1,0,0,1,.23.11v.11h0v.1h0v.06h0a.21.21,0,0,1,.1-.06l.11-.06h.17v.1h0a.09.09,0,0,1,0,.07.76.76,0,0,0-.11.14h.19l.08-.05a.25.25,0,0,1,.2-.09v.09h0v.07h0v.05h-.05l.16-.09h.05a.14.14,0,0,0,.08-.05h0a.11.11,0,0,1,.08,0v.08a.11.11,0,0,0,0,.08l.2-.09s.07,0,.09-.09-.09-.08-.14-.1"/>
        <path id="Path_107813" data-name="Path 107813" class="cls-5" d="M39,29.06h-.06v.05H39Z"/>
        <path id="Path_107814" data-name="Path 107814" class="cls-5" d="M31.61,29.91h-.16l-.12.07h.2l.09-.05h.05l.08-.05c.06-.06.12-.14.17-.18h0l-.27.12"/>
        <path id="Path_107815" data-name="Path 107815" class="cls-5" d="M25.05,30.58h-.12l-.17.11h-.07l-.12.11a.22.22,0,0,0-.05.08h.15l.07-.05h.05l.11-.06.1-.07h0v-.11h0"/>
        <path id="Path_107816" data-name="Path 107816" class="cls-5" d="M25.55,30.65h-.09a.23.23,0,0,1-.1.07h-.1l-.08.06h-.09a1.55,1.55,0,0,0-.24.19h0c0,.05,0,0,.09,0h.18c.06,0,.14-.07.19-.11a.67.67,0,0,1,.18-.07h0a.16.16,0,0,0,.06-.08h-.07"/>
        <path id="Path_107817" data-name="Path 107817" class="cls-5" d="M25.63,31h-.14l-.18.14-.08.07h0a4.25,4.25,0,0,1,.46-.27v-.05h0"/>
        <path id="Path_107818" data-name="Path 107818" class="cls-5" d="M38.66,31.14h-1a.17.17,0,0,0-.1,0,.09.09,0,0,0,0,.07h0v.05h.91s.09,0,.11-.07a.07.07,0,0,0,.07-.07h-.1"/>
        <path id="Path_107819" data-name="Path 107819" class="cls-5" d="M27.37,31.16l-.07.06-.18.14H27l-.1.07h0a.1.1,0,0,0-.09.06h0l-.1.1h.16l.08-.05H27a.27.27,0,0,1,.08-.07h0"/>
        <path id="Path_107820" data-name="Path 107820" class="cls-5" d="M34.39,31.36h0l-.11.06-.11.06H34a.23.23,0,0,1,.07-.07h.06v-.05h0"/>
        <path id="Path_107821" data-name="Path 107821" class="cls-5" d="M26,31.41h-.19a3.83,3.83,0,0,0-.28.29h-.05l-.06.05h.08l.06-.05h0l.12-.07h0a.11.11,0,0,1,.06-.07h0a.06.06,0,0,0,0-.06h0"/>
        <path id="Path_107822" data-name="Path 107822" class="cls-5" d="M28.31,31.53l-.16.07h-.07m0,.07h0l.12-.1h0s.1,0,.08-.08h0"/>
        <path id="Path_107823" data-name="Path 107823" class="cls-5" d="M34.53,31.62h-.17l-.18.06h0v.06A.24.24,0,0,0,34,32h.14l.07-.05h0l.07-.06.2-.18h0a.14.14,0,0,0-.12.07"/>
        <path id="Path_107824" data-name="Path 107824" class="cls-5" d="M34.91,31.68h0l-.1.07h-.12v.05h.23a.39.39,0,0,1,.1-.08l.14-.15h0v-.06h0v-.07h-.07"/>
        <path id="Path_107825" data-name="Path 107825" class="cls-5" d="M19.89,33.46H20l.1-.06h0l.08-.06.09-.07.15-.11h.06l.07-.07h0l.12-.11.13-.09h0l.06-.06a.11.11,0,0,0,.07-.06h0c.07-.07.16-.14.23-.22h0l-.15.11h0m-.05,0h0l-.07.06h-.11l-.13.1h-.1l-.11.09-.1.07h0l-.08.08h0a1.12,1.12,0,0,0-.18.2h.15"/>
        <path id="Path_107826" data-name="Path 107826" class="cls-5" d="M41.91,32.17l-.11.1h-.06l-.09.09h0l-.13.12h0l-.12.12h0a1.29,1.29,0,0,1-.17.16H41l-.19.13h0a3,3,0,0,1,.79.07.17.17,0,0,0,.14,0,.31.31,0,0,0,.11-.09h0a2.09,2.09,0,0,1,.22-.2h.06l.08-.07h.06l.27-.25h0l.07-.08h0l.08-.09.11-.11h0l.08-.1.06-.08m0-.05-.09.07-.08.06h0l-.1.07h-.08l-.15.12h0l-.06.05H42.3l-.08.08h0l-.09.08h-.21a.11.11,0,0,1,0-.08h0l.19-.16h0l.09-.07h0l.08-.08h.12a.06.06,0,0,0,.06-.05h0l.15-.15h0v-.06h0a.31.31,0,0,1-.11.09"/>
        <path id="Path_107827" data-name="Path 107827" class="cls-5" d="M40.69,32.17l-.13.08h0a.69.69,0,0,0-.13.11h0l-.08.07h-.07l-.13.11a2.75,2.75,0,0,1-.26.22h0c-.06.06-.13.1-.19.15h0l-.09.08h0l-.09.07h0l-.07.06h0a.21.21,0,0,0,.11,0h.73a.27.27,0,0,0,.08-.07l.16-.15.17-.15.08-.07.1-.09h0l.09-.08h0l.1-.11.07-.08h.06v-.08c0-.08,0,0-.07,0h0l-.1.09v.07l-.13.12h-.06l-.08.06h0l-.06.06h0l-.14.11h-.24l-.25.06H40a.16.16,0,0,1,.08-.06l.07-.07h.09l.14-.13L40,33l.2-.2h0a.47.47,0,0,0,.1-.1l.13-.13h0l.1-.09h0l.07-.07h0l.07-.06.06-.08h-.06"/>
        <path id="Path_107828" data-name="Path 107828" class="cls-5" d="M20.75,32.17h-.39l-.15.12a.18.18,0,0,1-.07.05h0l-.1.1v.06h0a.09.09,0,0,0-.08.06h0a.27.27,0,0,0-.07.08v.06c0,.06.08,0,.12,0h.26l.09-.08L20,33h.07l.07-.09h0l.07-.07h0a.34.34,0,0,1,.12-.12l.15-.15.07-.06.07-.08h-.09"/>
        <path id="Path_107829" data-name="Path 107829" class="cls-5" d="M32.22,32.32l-.23.13-.1.06H32l.12-.11.12-.11.19-.19h0"/>
        <path id="Path_107830" data-name="Path 107830" class="cls-5" d="M43.11,32.33h-.06v.07l-.1.1h0a.21.21,0,0,1,0,.11v.06a.09.09,0,0,0,0,.07.11.11,0,0,1,.06-.07V32.6h0l.09-.13h0l.06-.07v-.07h0"/>
        <path id="Path_107831" data-name="Path 107831" class="cls-5" d="M19.88,32.38h-.14l-.07.06h0l-.07.06h0l-.19.16h-.05l-.09.08h-.13l-.09.13A.69.69,0,0,0,19,33h.12l.15-.06.09-.06h0l.05-.06a.52.52,0,0,0,.11-.1l.11-.11.1-.11.1-.12h0a1.45,1.45,0,0,1,.22-.21h0Z"/>
        <path id="Path_107832" data-name="Path 107832" class="cls-5" d="M43.55,32.49h-.12l-.12.09a.21.21,0,0,1-.06.1h0L43,33h0l-.15.1-.31.2-.16.12h0l-.07.06h.28l.13-.1h0v-.05h.11v-.07h0V33.2h0v-.05h0"/>
        <path id="Path_107833" data-name="Path 107833" class="cls-5" d="M43.11,33.59l.18-.11h.05l.09-.1h0a.3.3,0,0,0,.08-.08h0l.05-.08h0v-.06h0l-.09.09h-.06l-.09.06h-.06l-.12.1h0l-.08.06-.09.07-.18.11h0l-.14.11h0l-.06.07h0A1,1,0,0,0,43,33.7"/>
        <path id="Path_107834" data-name="Path 107834" class="cls-5" d="M32.58,32.54l-.2.1h-.27a.23.23,0,0,1-.07.07h-.11a.09.09,0,0,0,.06.06h.24a.27.27,0,0,0,.08-.07h0l.07-.06h0Z"/>
        <path id="Path_107835" data-name="Path 107835" class="cls-5" d="M32.84,32.71l-.11.07h-.12l-.06.06h0L32.4,33h-.07a.53.53,0,0,0,.17.08h.12a.71.71,0,0,0,.14-.1.53.53,0,0,1,.14-.12h0a.83.83,0,0,0,.08-.12h0a.21.21,0,0,1-.1.06"/>
        <path id="Path_107836" data-name="Path 107836" class="cls-5" d="M42.57,32.77h0l-.08.06h-.07l-.1.07h-.06a.24.24,0,0,1-.09.08H42.1l-.08.09a.18.18,0,0,0-.07.08h.43l.06-.06.09-.09h0v-.15Z"/>
        <path id="Path_107837" data-name="Path 107837" class="cls-5" d="M43.47,33.77h0a1.48,1.48,0,0,0,.29-.12h0l.1-.09h0l.07-.07h0l.09-.12.08-.12H44c-.08,0-.06.06-.1.09l-.1.1v.05h-.11l-.1.07h0l-.27.18h0a.16.16,0,0,0-.06.08h.15"/>
        <path id="Path_107838" data-name="Path 107838" class="cls-5" d="M33.17,32.89h0L33,33h-.1l-.09.06h0l-.08.06a.51.51,0,0,1-.16.13h.2s0-.07.1-.08v-.08L33,33h0"/>
        <path id="Path_107839" data-name="Path 107839" class="cls-5" d="M33.43,33.19l-.13.07-.14.06h0a.27.27,0,0,1-.07.08h-.22a.21.21,0,0,0,.1.06h.31a.09.09,0,0,1,.06-.08h0v-.07h0"/>
        <path id="Path_107840" data-name="Path 107840" class="cls-5" d="M34,33.24l-.09.07h0l-.09.06h0l-.1.06h0l-.08.06h-.2a.06.06,0,0,0,0,.06.22.22,0,0,0,.22,0h.19v.07l-.08.06h.36v.06h0L34,33.9h0a.19.19,0,0,0,.15,0h.15l.08-.06h0l.14-.11h0l.09-.09h0v-.09h-.32l.07-.09.09-.08v-.12h0v-.07h0l-.14.12-.1.09h0l-.08.06H34a.14.14,0,0,1,0-.09h0a.15.15,0,0,0,.06-.09h0l.06-.09v-.1Z"/>
        <path id="Path_107841" data-name="Path 107841" class="cls-5" d="M30.57,30.71h0a.22.22,0,0,1-.05.08v.05h0m0,.05h0a.16.16,0,0,0,.08.06.28.28,0,0,0,.18,0l.3-.11h0v.06A.06.06,0,0,0,31,31h.33l-.09.11h0l-.09.09h0a.06.06,0,0,0,0,.06h0v.23c0,.07-.07,0-.12,0h0l-.09.08H30.8l-.06.05h-.06l-.11.07h-.13a.11.11,0,0,0,.07-.06l.12-.11.1-.1h0a.23.23,0,0,1,.07-.07l.07-.05h0v-.06h.05V31.1a1.18,1.18,0,0,0-.19.11h-.06l-.12.08-.35.24h0v-.09h0l.14-.15h0l.2-.22h.06V31a.09.09,0,0,0,0-.12l-.23.15-.17.12h-.06l.06-.1h0a.22.22,0,0,0,.05-.08m0,0h-.14L30,31h-.29v-.2h.06l.14-.05H30l.19-.1.27-.15a1.28,1.28,0,0,0-.15.25h0a.06.06,0,0,0,.06,0h.12l.15-.08.1-.06"/>
        <path id="Path_107842" data-name="Path 107842" class="cls-5" d="M31.39,31.62h0a.22.22,0,0,1-.05.08l-.07.08h0l-.06.06h0l-.06.06-.06.05h0L31,32h0l-.06.06h-.05l-.07.06h-.08l-.1.06a.14.14,0,0,0-.13.06h0a.75.75,0,0,1,.16-.15h0l.12-.12h0a.09.09,0,0,0,0-.07H31l.18-.12"/>
        <path id="Path_107843" data-name="Path 107843" class="cls-5" d="M23.8,31.68h0l-.13.1h0a.27.27,0,0,1-.07.08h-.67c-.07,0,0,0,.06-.06l.06-.06h.05l.1-.1h0l.1.36h0l.07-.05h0l.27-.13"/>
        <path id="Path_107844" data-name="Path 107844" class="cls-5" d="M22.46,31.82h0l-.13.13-.19.19-.07.07-.06.06h0l-.12.11h0l-.15.11-.1.08h0l-.08.06h-.14l-.07.08h0s-.08,0-.09.07a.14.14,0,0,0,0,.09h0a.09.09,0,0,0,.07,0H21l.12-.1h0l.1-.09h.1l.1-.09.11-.09a.23.23,0,0,1,.07-.07h0l.12-.12h0l.1-.08h0a.16.16,0,0,0,.08-.06H22l.15-.1-.17.18h0a.39.39,0,0,0-.08.1l-.13.1-.1.08h0a2.73,2.73,0,0,0-.25.23h0l-.1.06-.07.06h-.06l-.1.1-.13.13H20a.39.39,0,0,1,.1-.08c.1-.1.21-.18.32-.28h0l.12-.1h.06l.07-.06h0a.09.09,0,0,0,.08-.06h.06l.09-.07h.34"/>
        <path id="Path_107845" data-name="Path 107845" class="cls-5" d="M39.49,32.56l.06-.05.1-.07h.18l.15-.11h.09l-.11.13a.39.39,0,0,1-.08.1h0l-.07.08h-.06l-.09.07h-.3"/>
        <path id="Path_107846" data-name="Path 107846" class="cls-5" d="M18.85,32.68h-.22l-.08.07-.17.15h-.12l-.07.06h0v.23h.08l.06-.07h0v-.06L18.6,33h0v-.06h0"/>
        <path id="Path_107847" data-name="Path 107847" class="cls-5" d="M45.26,34.14H39a.15.15,0,0,0-.13,0,.17.17,0,0,0-.14,0h-.25a.09.09,0,0,1,0-.07l.07-.06c.07-.06,0,0,.06,0h.16l.07-.08h0l.1-.08H39l.09-.08h0a1,1,0,0,0-.32.13H38.7a1.07,1.07,0,0,0-.16.14h0l-.08.06h0l-.11.08H38.3l-.17.1s-.16.11-.2.06h0v-.06h0l.1-.09h0l.15-.13h.06l.13-.11.18-.16h0l.17-.15h0v-.06l.06-.07h0a.31.31,0,0,0,.09-.11l-.09.06-.14.1-.06.06h0l-.11.1h0l-.08.06-.07.06h0v-.78h-.11l-.12.09h-.33V33h.07l.07-.06.16-.14h0a.86.86,0,0,0,.14-.13l.07-.07h0v-.07h-.13l-.09.06a.31.31,0,0,0-.11.09H37.8l-.31.19-.14.08h-.06a.06.06,0,0,1,0-.06h0l.08-.07h0l.08-.08h0a.43.43,0,0,1,.11-.12h0l.07-.07H37.5a1.07,1.07,0,0,1-.22.15h0l-.15.08H37v-.09h0a.16.16,0,0,1,.08-.06v-.07h.06l.17-.17h0a.06.06,0,0,1,0-.06h-.08l-.07.06h-.34l.06-.08h0L37,32.2v-.06c0-.06,0,0-.07,0l-.1.06h-.11A.17.17,0,0,1,37,32c-.06,0-.07,0-.08-.09a.33.33,0,0,0,.07-.13h0l.09-.09H36.8a.11.11,0,0,0,0,.08v.07h0v.07h0V32h0v.21a.21.21,0,0,0,0,.11v.18h0v.16h0v.08h0v.11h0v.21h0l-.07.07h-.27a.06.06,0,0,1,.06-.06h0a.09.09,0,0,0,.06-.06h0a.21.21,0,0,1,0-.11h-.15a.11.11,0,0,1,0-.08l.06-.08h0m0,0h-.26l.07-.09h0a.28.28,0,0,1,.1-.09h-.25V32.5h0a1.34,1.34,0,0,0-.07-.18h0A.5.5,0,0,0,36,32.2c0-.07-.06-.1-.06-.18v-.13h0v-.05a.14.14,0,0,1,0-.09h0v-.13a.64.64,0,0,0,.1-.13H35.9v-.2H36l.07-.05h0a.2.2,0,0,1,.09-.09h0V31h0a.09.09,0,0,0,0-.07h0L36,31.1l-.14.1-.15.08c0-.08-.1-.14-.08-.24a.22.22,0,0,0,.09-.07h0l.17-.13h0l.13-.1h0a.06.06,0,0,1,.06-.06h0v.08h0a.33.33,0,0,1,0,.14h0a.67.67,0,0,0,0,.2v.29h0v-.15h0a.11.11,0,0,0,0-.08h0A.61.61,0,0,1,36.2,31h0v-.61m0-.05h0v-.1h0V30.1h0a.37.37,0,0,0-.05-.11.61.61,0,0,0-.07-.14h0L36,29.77h0v-.06h0l.23-.71h0l-.14-.13h0a1.27,1.27,0,0,0,.13.19l.12.19v.06h0l.06.13v.06a.21.21,0,0,1,0,.11h0v.18a.09.09,0,0,1,0,.07h0l.21-.08a.14.14,0,0,1,0,.09h0v.06h0V30h0a.21.21,0,0,1-.06.1l-.08.1-.09.1h0l-.13.1h0s0,.06-.09.06l-.1-.12a.07.07,0,0,0,.07-.06v-.05h0a.64.64,0,0,0,.1-.13v-.05h0l-.24.13h0a.28.28,0,0,1-.1-.09H36a.52.52,0,0,1,.11-.1h0a.29.29,0,0,0,.1-.12h0a.15.15,0,0,1-.07.19h0A.13.13,0,0,1,36,30h0v-.07h0v-.06c0-.06-.1.13-.16.18a.24.24,0,0,0-.09.08l-.18.14-.09.07h0a.18.18,0,0,1-.07.05h-.19v-.05l.07-.06h0l.06-.06v-.06a.09.09,0,0,0-.07,0h0a1.21,1.21,0,0,1-.24.21.24.24,0,0,1-.12.07,1.51,1.51,0,0,1-.26.18h-.07a.09.09,0,0,1-.08-.06c0-.06-.06,0-.07,0a.36.36,0,0,1,.14-.16h.07l.12-.11h0l-.17.08-.17.08-.24.14H34a.2.2,0,0,1,.06-.14h0l.08-.08h0a.56.56,0,0,0-.17.09l-.13.06h-.06l-.21.12H34v-.06h0l.06-.06h0v-.06h0l-.2.09h-.12l-.1.05h.08c-.08,0,0,0,0-.06h0v-.06h-.11a.17.17,0,0,0-.1,0l-.22.05h0v-.09l.06-.05h.06l-.29.1H33a.09.09,0,0,1-.1,0h-.12l-.1-.07h-.06l-.09-.09h-.08a.07.07,0,0,1,0-.09h0l.09-.06.06-.06V30h-.29a.24.24,0,0,1-.12,0h0v-.1h.15l-.14.1h0l-.11.06h-.4a.47.47,0,0,0,.1-.1h.05V29.9h0l.06-.07h0l-.1.06-.08.05h0l-.16.08h-.15a.11.11,0,0,1,0-.08v-.05l.17-.21h0l-.18.12-.19.1L31,30a.17.17,0,0,1-.14,0,.06.06,0,0,1,0-.08h0a.16.16,0,0,0,.06-.08v-.09l.06-.08L31,29.6h0l-.09.06h-.06l-.07.06H30.5v-.1h0l.07-.09h0v-.2h-.15l-.2.1h0a.21.21,0,0,1-.11,0,.09.09,0,0,1,0-.1.24.24,0,0,1,.09-.08h.05l.07-.06h.11a1.4,1.4,0,0,1-.35.1V29h0a.67.67,0,0,1,0,.2h0v.14l-.06.12h0l-.07.11h0v.05h0a.27.27,0,0,1-.07.08h0c-.07,0-.12.07-.17.12a.56.56,0,0,1-.17.09h0a.17.17,0,0,1-.1,0h-.08L29,30h-1L27,28.38h-.19l-.06-.1v-.17h0V28h.35l.21.13h.62L28,28l.09-.08h0a1.34,1.34,0,0,0,.07-.27v-.09h0l.07-.06.08-.05h.78l.24.07h.08L30,27h.87a.89.89,0,0,0,.23,0h2l.25.07H34l.06.05a.14.14,0,0,1,0,.09h0v.08h.13l.13-.05h.23a.17.17,0,0,1,0,.1v.05h0v.05a.29.29,0,0,0,.13-.05h.4a.09.09,0,0,1,.06.09h0a.27.27,0,0,1-.08.07h.06l.16-.06h.24v.09h0s-.05,0-.05.07h.41v.06c0,.06,0,.07-.05.1h.66l.06.06h.05v.05h0V28l.06.12h0v.05h0a.07.07,0,0,0,.06.07V28a.52.52,0,0,0-.52.52h0a.53.53,0,0,0,.32.48h0a.61.61,0,0,0,.27,0,1,1,0,0,0-.07-.15v-.1h0V28.7h.13v.06h.21a.06.06,0,0,1,.08,0,.21.21,0,0,1,0,.11h0v.06h0V29c0,.07.07,0,.08,0h0l.11-.07.08-.06.09-.05h0a.29.29,0,0,1,.13-.05h0v.05a.27.27,0,0,1-.07.08h0l-.12.12h.13l.09-.06h.2l.09-.07h0l.09-.05h0s.06,0,.07.05h0V29h0l-.06.06h0l-.1.1-.06.06-.17.15v.1h0l.16-.1h0L38,29.3l.15-.11.14-.1h0V29l.08-.06c.06,0,.1-.07.15-.1l.17-.1.17-.07a.43.43,0,0,1,.16,0v.13l-.07.09-.1.11-.12.1L38.5,29h0a1.59,1.59,0,0,1,.29-.15h.06l.14-.09h0l.13-.08.14-.08.13-.09h.06l.07-.05h.07l.15-.06h.14a.09.09,0,0,1,.1,0v.1h0v.05h0l-.1.1-.09.07h0l.21-.08h0l.09-.05h.06l.13-.08.12-.06.11-.05h.34a.38.38,0,0,1-.09.13v.06l-.06.06h.1l.13-.07H41l.15-.09h.19a.11.11,0,0,0,0,.08v.05h.09l.12-.08h.23c.08-.09.25-.06.37-.05h.1v.06h-.11l-.06.09h.07l.06-.05.11-.06h.17l.14-.07H44.9a.14.14,0,0,1,0,.09l-.06.06h0a.86.86,0,0,1-.13.14h0a.11.11,0,0,0,.08,0l.1-.06h0l.23-.15.17-.08h0m0,.05h.09l.12-.07h0V28H45a1.31,1.31,0,0,1-.28,0H41.3a.06.06,0,0,0-.06,0H34.91l-.2-.06h-.48l-.14-.05H34l-.11-.05h-.74l-.16-.7H32.8a1.37,1.37,0,0,0-.29-.07h-.15a.11.11,0,0,0-.08,0H30.14a1,1,0,0,1-.25-.05h-1.5l-.3.17H28l-.2.08h-.07a2.53,2.53,0,0,0-.36.12,1.7,1.7,0,0,1-.31.06h-.33a.41.41,0,0,0-.05.09v.12a.11.11,0,0,0,0,.08h0v.06a.17.17,0,0,1,0,.1H18.12v.44l.14-.08h.17a.11.11,0,0,1,.08,0h.09a.57.57,0,0,1-.08.13h0l-.05.05-.13.14-.07.09h.11l.09-.05h.07a.06.06,0,0,1,.06,0l.08-.05h.05v-.06h.13l.12-.07h.11a.09.09,0,0,1,0,.07.09.09,0,0,1-.06.08h0v.05h0l.14-.07.15-.08h.16l.12-.06h.12a.11.11,0,0,1,.11,0,.06.06,0,0,1,0,.06h0a.18.18,0,0,0-.08.07.06.06,0,0,0-.06.05h0a.81.81,0,0,0-.18.19h.19l.11-.05h.06l.22-.1h.42a.57.57,0,0,0-.11.11h-.1l-.17.15.12-.05h.25l.15-.08.15-.07H21l-.1.12h0l-.06.05h0v.05m-.05.05h0l.22-.1.12-.05h0l.11-.06h.39l-.08.07h-.06l-.08.06h0l-.06.1a.49.49,0,0,0,.17-.06h.06l.19-.08h2.36a.14.14,0,0,1,0,.09h.62a.09.09,0,0,0,0,.07l.13-.05A.27.27,0,0,1,25,29h.17l-.06.12h.15l.11-.05h.33v.07h0v.05h0a1.18,1.18,0,0,0,.19-.11L26,29h.24v.08l-.07.07h-.05l-.07.06h.21l.21-.07a.11.11,0,0,1,.08,0h0v.07h0a.75.75,0,0,1-.15.16v.06l.23-.12.11-.06a.4.4,0,0,1,.24-.07h0v.06h-.06l-.09.07h0a.3.3,0,0,1-.08.08h0l-.05.05h0a.62.62,0,0,0,.19-.07l.24-.1h.24m.05.05c0,.05-.05.09-.06.11h-.05l-.08.06h-.07l-.07.07h0v.05h.34l.18-.1h.18l.15-.06.15-.08h0s.06.06,0,.08h0L28,29.5l-.07.09h0a.17.17,0,0,0,.1,0h.08l.1-.05.1-.05h.35a.09.09,0,0,1,0,.07h0a.35.35,0,0,0,.14-.06H29a.21.21,0,0,1,.11,0h1.4a.43.43,0,0,1,.16,0l.22.06H31l.17.08h.06L32,29h0l.07.05s0,.05.07.07a.13.13,0,0,1,.07.06h0v.05h.14l.11.08h.25l.1.05.2.09a1,1,0,0,0,.21.09h0l.15.08.16.07h.09l.1.06h.07l.15.08.1.06h0l.08.05h.08l.15.12h0v.05l.08.07h0v.07h0v.12h0l.06.13h0v.08h0a.17.17,0,0,0,0,.1v.09h0v.06h0V31h0v.08h0v.17h0v.06h0a1.18,1.18,0,0,1,.07.2.33.33,0,0,1,0,.14h0a.29.29,0,0,1,0,.13v.06h0V32l-.08.13h0l-.11.06-.12.05h-.14l.21-.09h0l.08-.07.06-.06h0l.06-.07h0a.21.21,0,0,0,0-.11h0l-.1.05h-.09l-.15.06h0A.41.41,0,0,1,34,32h-.09a.08.08,0,0,1,0-.09h0l.15-.08.09-.07.09-.06v-.06H35a.15.15,0,0,1-.06-.09L35,31.5h0l.18-.1h.09l-.13.05a1.71,1.71,0,0,0-.3.09h0v-.12l.06-.05h0l.11-.05.2-.19.07-.07h-.53a.61.61,0,0,1-.27,0h.15L34.7,31h0a2,2,0,0,0,.07-.23h0l-.11.06H34.6v-.07h0V30.7h0a.51.51,0,0,0,.09-.16V30.4h0v.1h0v.07h0l-.06.06h0l-.11.08-.12.09-.1.07-.14.08h.34a.27.27,0,0,1-.07.08.18.18,0,0,1-.08.07h-.27v-.2L34,30.82h-.07l-.1-.06V32H33.6a.61.61,0,0,0-.14-.07l-.05-.06c0-.06,0,0,.05,0l.12-.09h0v-.05a.18.18,0,0,1,.07-.05h.05a2.07,2.07,0,0,1-.34.15H33c0,.06-.07,0-.08,0H33a.49.49,0,0,0,.13-.12h-.37l-.16.05h-.08v-.08a.18.18,0,0,0,.07-.05L33,31.2l.12-.08h0a.08.08,0,0,0,.09-.07h0V31H32.8a.09.09,0,0,1-.1,0h0l.31-.2v-.05l-.26.07h-.41a.06.06,0,0,1,0-.06h0l.08-.07a.09.09,0,0,0,.09-.08h-.4a.11.11,0,0,1-.11,0h0v-.08c0-.07.11-.1.17-.13h0l.09-.06h0a.09.09,0,0,0-.07,0h-.08L32,30.4h-.27v-.1h0l.12-.09h0a.41.41,0,0,1,.11-.07l.11-.09h0l-.14.06-.12.06a.31.31,0,0,1-.13.06H31.4a.1.1,0,0,0,.05.06h0a.36.36,0,0,1,.07.1.72.72,0,0,1,.09.2v.08h0L32,31l.07.06.1.08.06.05h0l.08.07h0l.08.07.11.08v.05h.14l.08.08h0v.05H33l.06.05h0l.11.1h0v.06h0V32a.84.84,0,0,1,.13.27v.1h0v.38l-.06.13-.06.12h0a.53.53,0,0,0-.14.12h0l-.14.09-.11.09h0l.23-.07h.08l.11-.1h0V33h.11a.21.21,0,0,1,0,.11v.19h-.17l-.08.06h.39l.07-.07h0l.06-.07h0v.21l-.08.09h0l-.06.06h0l-.15.08h.39a.42.42,0,0,1,.17-.1v.13h0l-.09.08h0l-.15.07-.16.08h.22s.11-.06.13,0H33.5a.14.14,0,0,0,0-.09h0v-.06h0v-.06h0l-.06-.08-.09-.1h0a.39.39,0,0,1-.08-.1h-.33l-.11-.1h-.11l-.08-.07h-.06l-.08-.07h0L31.64,33H31.5l-.05-.06h.13a.27.27,0,0,0,.08-.07l.05-.06h0a.86.86,0,0,0,.14-.13h0l-.26.14h-.17l-.15.09h-.1l.06-.06c.09-.09.18-.15.27-.23h0l.06-.06h0l.07-.09h-.2l-.1.06h-.2l-.07.06h0a.06.06,0,0,0-.06,0h.1l.09.06h0a.11.11,0,0,1,.09.06c0,.06.06,0,.09.06h0s0,.07-.05.09h-.11c0,.06.17,0,.21.12h.19a.38.38,0,0,1,.15.09h0l.1.06H32a.12.12,0,0,1,.09.08h.1a.41.41,0,0,0,.05.09v.24h0s.07-.06.1,0h0v.07h0a.17.17,0,0,1,0,.1v.08h-.12l-.08.05a.06.06,0,0,1,0-.08h0v-.08l-.08.1h0L32,34h-.25a.25.25,0,0,1-.17,0h.07l-.17.08h-.14l-.13.05h-.29v-.05a.14.14,0,0,0,.09,0h-.3a.06.06,0,0,1-.06-.06h0l.1-.06a.14.14,0,0,0,.12-.07c0-.07.1-.07.16-.09h-.44a.33.33,0,0,1-.14,0h-.09v-.06h.11l.13-.09h0l-.27.09-.19.08h-.27v-.06l.12-.09h.18l.07-.06H30l-.27.1h-.08a.31.31,0,0,0,.11-.09l-.17.06h-.27a.28.28,0,0,1-.18,0s0-.1.05-.1l.15-.13h.05a.61.61,0,0,0,.16-.12h.95l-.2.08h-.17a.14.14,0,0,1-.09,0,.11.11,0,0,1-.08,0,.09.09,0,0,1,0-.07h0a.24.24,0,0,1,.08-.09h.11l.06-.06h0l.16-.13h0a2.53,2.53,0,0,0-.37.18l-.17.11h-.24v-.06h0l.11-.09h0a.41.41,0,0,1,.11-.07h0A.12.12,0,0,1,29.7,33H29l-.08.07h0l-.09.07h-.06l-.14.08h-.16s-.07.05-.1,0h0c0-.06.08-.09.12-.11a.13.13,0,0,1,.07-.06h0l.08-.06.07-.08h0s0-.06.08-.07m.05,0h.05l-.15.09h-.32l-.08.06h-.11l-.09.07h0l-.06.06H28l-.08.06h0l-.15.06a.09.09,0,0,1,0-.1h0a.34.34,0,0,1,.12-.12H28a1.64,1.64,0,0,1,.25-.21l.16-.14.07-.08.09-.08h0l.11-.11h.05l.06-.08h0l.09-.1-.2.14h0l-.08.06h-.12l-.08.07-.14.09h-.05l-.09.07H28a.24.24,0,0,1-.09.08l-.3.25h-.05l-.07.07h0l-.06.06h0l-.07.06h0a.12.12,0,0,1-.14,0V33h0l.1-.11.3-.27h0l.09-.08.08-.09h0l.1-.1.11-.1h0l.09-.09.09-.08h.05s.09,0,.08-.11h-.09l-.25.15H27.9l-.13.1h-.05a.39.39,0,0,1-.1.08h-.05l-.1.08-.14.1h0v.07H27.1a.69.69,0,0,1,.11-.13h0l.08-.08.08-.07a.28.28,0,0,0,.09-.1h0l.07-.08.14-.14h0l.09-.08h0l.16-.14.1-.08h0v-.06h0l.12-.11h0l.06-.06h-.08L28,31.5a.28.28,0,0,1-.1.09h0l-.07.06-.3.24h0l-.14.12h0l-.17.14h0l-.08.06h-.28l-.09.09h-.2l.07-.07v-.06h.13l.06-.06H27l.06-.07h0l.16-.13.07-.08h0a.35.35,0,0,1-.13.08H27M27,32h-.27l-.1.09-.1.09h0l-.12.13h-.08a.11.11,0,0,1,0-.08V32.1a.18.18,0,0,1,.07-.05h0a.75.75,0,0,1,.15-.16h0l.18-.18h0l.06-.06h-.06m-.05.05h0l-.14.12h-.1l-.07.08-.1.07h0l-.14.11-.08.06-.09.07h0l-.2.19h0l-.06.06h-.07s.05,0,.05-.09h0l.08-.09h0l.07-.09h0l.06-.06h0L26,32h0l-.12.08-.09.07-.13.09h0a.86.86,0,0,0-.14.13l-.19.18h-.2v.06h0l-.1.09h0l-.07.06h-.19a.26.26,0,0,0,.07-.11l.07-.07h0a.52.52,0,0,0,.1-.11h0V32.4h0l.08-.07h.1a.64.64,0,0,1-.38.8.63.63,0,0,1-.8-.39v-.06h0l.06-.06h0v-.06h0l.08-.07h0l.1-.09h0s.05,0,.05-.07h0l-.22.16h-.3a.13.13,0,0,1-.07.06l-.06.06h-.07l-.12.13h0L23.2,33h0a.39.39,0,0,0-.1.08h-.18a.06.06,0,0,1-.05-.06h.06L23,33l.09-.11h0l.09-.1h.05l.21-.21h0l.08-.07h.06l.07-.06h0L24,32h0l.14-.13h0l-.09.05H24a.27.27,0,0,1-.12.09h0l-.09.06h-.07l-.1.07-.08.06h0l-.1.06-.11.09h0c-.07.08-.17.14-.25.22l-.07.09h0L22.7,33a.27.27,0,0,0-.07.08h-.05l-.11.11-.13.12a.06.06,0,0,1-.06.06h0l-.15.13h-.08a.11.11,0,0,1,0-.08v-.07h0v-.06h0a.2.2,0,0,1,.09-.09h0a.28.28,0,0,0,.1-.09h.07l.07-.07h0l.08-.08h.05l-.27.12h0a.16.16,0,0,1-.08.06h-.33l-.12.1-.11.1-.21.22h0l-.08.08h0a.06.06,0,0,1,0,.06h0l-.1.06h-3v.38h6v.11h0s0,.12.06.15h0l.08.13h0v.18a.54.54,0,0,0,.07.13l.1.1h.93v.16h0l.13.07a.53.53,0,0,0,.32.1h.5v.08h0v.06h0l.11.1h0l.08.06h.66l.28-.08v.06h0l.1.15h.1s.05,0,.08.07h0l.18.08h1l.15-.06h.06l.24.15.12.07h.85v-.22h.31a.45.45,0,0,0,.28,0h.24l.1-.07.11-.1h0v-.07h.83a.77.77,0,0,0,.19-.17h0l.07-.11.06-.18H33l.12-.09h0a.69.69,0,0,0,.13-.11h.07v-.08h0l.19-.06h.2L37,34h0a.22.22,0,0,1,.16,0h3l1.39.1h1.53l2.1.15Zm.51-4.22h.73v.13h0l-.06.06h-.23a.19.19,0,0,1-.15,0h-.14m3,7.27h.1l.07.07h0a.11.11,0,0,1,0,.08h-.2l-.16.07h.25v.06h0a.24.24,0,0,1-.12.07h-.5a.14.14,0,0,1,0-.09h.06v-.09H30m-.53.94H29.4m-.26-2.84h.25a.11.11,0,0,1-.06.1h-.18a1.18,1.18,0,0,1-.19.11h-.22a.06.06,0,0,1,0-.06h0l.23-.2h0m-1.08.49h0l.07-.07.17-.15.18-.14h0l.08-.06h.19m0,.06h0l-.13.11H28.3l-.12.09-.13.09H28l-.1.07h0s-.07.06-.11,0,0,0,0-.06m0,.32H28a.09.09,0,0,1,0,.1h-.15m-1.62.1a.38.38,0,0,1,.13-.09h.8a.1.1,0,0,0,.05.08h0l.08.12v.11h0v.12a.21.21,0,0,1-.06.1h0v.06c0,.06,0,.06-.07,0h0a.17.17,0,0,1,0-.1v-.13h0L27,34.2h0c-.06-.06-.12-.14-.19-.2h0l-.07-.07H26.6a.49.49,0,0,0-.24,0h-.13s-.11.07-.15,0h0M27.47,35h.39c0,.06,0,0-.08.06h-.31M26,34.33h0c.05,0,.06-.06.08-.1l.12-.06h.95l.09.07h0l.06.06v.27h-.49l-.09-.07h0l-.07-.08a.17.17,0,0,1,0-.1V34.2a.24.24,0,0,1,.06-.11m-1.24.7h-.36v-.07a.41.41,0,0,1-.05-.09h0a.09.09,0,0,1,.07,0,.24.24,0,0,1,.09.06h0a.09.09,0,0,1,0,.07M26,34.2h0l-.15.08h-.18a.16.16,0,0,0,.08.1h-.41v-.06h0a.41.41,0,0,0,.11-.07h.07l.1-.06H25.4l-.12.06H24.9a.06.06,0,0,1,0-.06h.17l.12-.07h-.42V34h0a.82.82,0,0,1,.2-.12h.65l.13.07h.1v.18h0a.09.09,0,0,1,0,.07v.09l-.07.07h0m1.49,1.13h-.63a.2.2,0,0,1-.15,0H26.3v-.06a.09.09,0,0,0-.06-.08.29.29,0,0,0,0-.13L26,35h0v-.06h.22V35h0l-.08.08h.53a.17.17,0,0,1,0,.1h-.11l-.08.06H27a.06.06,0,0,1,.08,0h0l.17-.07h.13l-.07.06h0l-.08.08h0l-.12.08h.29l.21-.1h.17a.19.19,0,0,1-.07.12h-.07c-.07,0,0,0-.06.07m1.69.39h0l-.07.06a1.24,1.24,0,0,1-.27.29h0a.39.39,0,0,1-.1.08h-1.1v-.07a.27.27,0,0,1-.05-.15V36h0v.15h.82l.13-.1H28.5l-.17.07H28v-.28h.92l-.28.08h-.27l-.28.08a1.36,1.36,0,0,1-.29.06h-.24l.05-.06h.74l.2-.1h-.18l-.23.06h.54L29,35h.31l.05-.06h0l.05-.08V34.8h0v-.07c0-.11-.13-.15-.19-.24h-.11L29,34.44h-.15v.05h0v.07h0a1.74,1.74,0,0,0-.11.18.21.21,0,0,1-.08.16h0a.17.17,0,0,1-.05.12h0a.09.09,0,0,0,0,.07h-.27a.06.06,0,0,1,0-.06h0l.05-.09h0v-.06h0l.09-.09h0s.05,0,.08-.07l.06-.07h.56a.76.76,0,0,1,.3,0h.06s.05,0,.07.07h.05v.07h0V35h0a.4.4,0,0,1-.07.18h0a.21.21,0,0,0,0,.11v.06h0l-.06.08a.44.44,0,0,1-.08.11h0v.07c0,.07,0,0-.07.06h0l-.1.1h0v.06a.22.22,0,0,0-.05.08h0m.52-1.48v.07H29.5l-.22.07h.28l-.08.08a.06.06,0,0,1-.06.06H29l-.12-.09h0a.11.11,0,0,1,0-.08v-.13a.58.58,0,0,1,.05-.14v-.09A.4.4,0,0,1,29,34h0a.18.18,0,0,1,.12-.12h.43l.07.06h0m.86,1.9V36h0v.12h0v.07h-.69a.38.38,0,0,0,.21.07.41.41,0,0,1,.11-.07h-.65a.49.49,0,0,1-.24,0h.06a.35.35,0,0,0,.14-.06h.18a.2.2,0,0,0,.15-.06h.07a1.55,1.55,0,0,0-.31.06H29a.06.06,0,0,1,0-.06h0a.92.92,0,0,1,.27-.08h.08a.68.68,0,0,0,.24-.08l.1-.1a1.8,1.8,0,0,0,.2-.19h0v-.07h0v-.12h0L30,35.3V35h0v-.07a.06.06,0,0,0,0-.06l-.2-.2-.09-.06h-.05V34.5h0a.11.11,0,0,1,.06-.09h.16a.56.56,0,0,1,.15.1l.07.06h0v.06h0v.16h0v.07h0a.21.21,0,0,1,0,.11h0v.27h0a.06.06,0,0,0,0,.06h0v.05a.16.16,0,0,1-.06.08v.1h0m1.86.52v.05h0a.13.13,0,0,1-.07.06h-.57l-.35.63h0a1.09,1.09,0,0,1,.08-.15h0V36h0v-.07h0a.21.21,0,0,0,.06-.1h.07a1.32,1.32,0,0,1,.39-.06l.12.07h0s-.06,0-.08.09,0,0-.06,0h0l-.11.08h-.06l.1-.06h.1l.13-.08H32A.29.29,0,0,1,32,36h-.15l-.06.07h-.07l-.12.07a.16.16,0,0,0-.08.06h.15l.1-.06h.14L32,36h0s0-.07.1-.07,0-.08.11-.06a.09.09,0,0,1,0,.07h0l-.06.08-.1.09-.07.07h.3l.07-.06h0s.1-.1.12,0h0l-.08.09h0l-.09.08s0,.06-.08.08h.4s0-.07.1,0,0,.09,0,.15m1.37-1h0l-.07.06h0l-.11.07h-.45l-.4-.12H33a.57.57,0,0,0-.13-.08l-.11-.08h-.1l-.12-.1-.06-.06h.36v.07a.17.17,0,0,1-.14,0h1v.15h0v.06h0l-.06.07h-.07l-.12.08h.21l.1-.06h.12s.06-.07.1-.07,0,0,.06-.06.06,0,.07,0h0v.06a.16.16,0,0,0-.07.09l-.1.09a.27.27,0,0,0-.08.07h0v.06h.39l.07-.07h0s.08-.1.11,0h0l-.06.1h0a.39.39,0,0,1-.1.08l-.08.09a.31.31,0,0,0,.13-.06h.24c.06,0,.06.06,0,.12m2.32-1.67h0v.06h-.45a.14.14,0,0,0,.12-.07h.07l.15-.11h0a.28.28,0,0,1,.1-.09L36,34h0"/>
        <path id="Path_107848" data-name="Path 107848" class="cls-5" d="M45.26,33.36h-.12l-.1.07h-.11a.09.09,0,0,0,0,.07h.29l.15-.1Z"/>
        <path id="Path_107849" data-name="Path 107849" class="cls-5" d="M45.26,32.78l-.13.1-.29.22-.33.24h-.07a.57.57,0,0,1-.13.08h0l-.08.08-.23.2-.06.06a.13.13,0,0,0-.06.07H44a1.22,1.22,0,0,0,.24-.1.69.69,0,0,1,.13-.11h0a.27.27,0,0,1,.07-.08h.06l.06-.06h.06c.07-.06.13-.14.21-.21l.1-.1H45v-.06h0Z"/>
        <path id="Path_107850" data-name="Path 107850" class="cls-6" d="M156,40.88h-7.62l-2.33-5.62h-12.7l-2.12,5.62h-7.49l11.44-28.39h8.2Zm-16.61-21.6-4.16,11H144Z"/>
        <rect id="Rectangle_225" data-name="Rectangle 225" class="cls-6" x="159.16" y="12.49" width="7.08" height="28.39"/>
        <path id="Path_107851" data-name="Path 107851" class="cls-6" d="M184.85,12.49c10.36,0,15.69,6.45,15.69,14.24,0,8.16-5.16,14.16-16.49,14.16H172.31V12.49Zm-5.46,23.19H184c7.11,0,9.23-4.83,9.23-9,0-4.87-2.62-9-9.32-9h-4.54Z"/>
        <path id="Path_107852" data-name="Path 107852" class="cls-6" d="M18.18,44.82a4.77,4.77,0,0,0,2.26,3.26V44.82Z"/>
        <path id="Path_107853" data-name="Path 107853" class="cls-6" d="M21.63,44.82h3.1v5a14.25,14.25,0,0,1-3.1-1.08Z"/>
        <path id="Path_107854" data-name="Path 107854" class="cls-6" d="M25.92,44.82v5.27s1.1.2,1.28.21a8.11,8.11,0,0,1,1.82.4V44.82Z"/>
        <path id="Path_107855" data-name="Path 107855" class="cls-6" d="M45.3,44.82A4.75,4.75,0,0,1,43,48.08V44.82Z"/>
        <path id="Path_107856" data-name="Path 107856" class="cls-6" d="M41.85,44.82h-3.1v5a14.25,14.25,0,0,0,3.1-1.08Z"/>
        <path id="Path_107857" data-name="Path 107857" class="cls-6" d="M37.61,44.82v5.27s-1.1.2-1.28.21a8.2,8.2,0,0,0-1.83.4V44.82Z"/>
        <path id="Path_107858" data-name="Path 107858" class="cls-6" d="M31.77,52.67a4.09,4.09,0,0,0-1.51-1.44V44.82h3v6.41a4,4,0,0,0-1.51,1.44"/>
        <path id="Path_107859" data-name="Path 107859" class="cls-3" d="M20.91,41.72H22l-.85.64.33,1h0l-.84-.62-.84.62h0l.34-1-.86-.64h1l.32-1h0Z"/>
        <path id="Path_107860" data-name="Path 107860" class="cls-3" d="M24.65,41.72h1.06l-.85.64.33,1h0l-.84-.63-.84.63h0l.33-1L23,41.72h1l.31-1h0Z"/>
        <path id="Path_107861" data-name="Path 107861" class="cls-3" d="M28.39,41.72h1.06l-.85.64.33,1h0l-.84-.63-.84.63h0l.33-1-.86-.63h1.06l.31-1h0Z"/>
        <path id="Path_107862" data-name="Path 107862" class="cls-3" d="M32.13,41.72h1.06l-.86.64.33,1h0l-.85-.62-.84.62h0l.33-1-.86-.64h1l.32-1h0Z"/>
        <path id="Path_107863" data-name="Path 107863" class="cls-3" d="M35.86,41.72h1.06l-.85.64.33,1h0l-.84-.62-.84.62h0l.33-1-.86-.64h1.06l.32-1h0Z"/>
        <path id="Path_107864" data-name="Path 107864" class="cls-3" d="M39.6,41.72h1.06l-.85.64.33,1h0l-.84-.62-.84.62h0l.33-1-.86-.64H39l.32-1h0Z"/>
        <path id="Path_107865" data-name="Path 107865" class="cls-3" d="M43.34,41.72H44.4l-.85.64.33,1h0L43,42.75l-.85.62h0l.33-1-.86-.64h1.06l.31-1h0Z"/>
        <path id="Path_107866" data-name="Path 107866" class="cls-3" d="M25.58,17v2.53c0,1.48-1,2-2.23,2s-2.23-.6-2.23-2V17h1.11v2.56a1,1,0,0,0,1,1h.12a1,1,0,0,0,1.12-.86v-.06a.54.54,0,0,0,0-.18V17Z"/>
        <path id="Path_107867" data-name="Path 107867" class="cls-3" d="M29.54,18.18a3.51,3.51,0,0,0-1.41-.4c-.4,0-.66.15-.66.37,0,.67,2.27.48,2.27,2C29.74,21,29,21.5,28,21.5a3,3,0,0,1-1.61-.43v-1a2.68,2.68,0,0,0,1.53.58c.42,0,.65-.15.65-.42,0-.73-2.27-.46-2.27-2.06,0-.78.66-1.29,1.7-1.29a3.75,3.75,0,0,1,1.51.35Z"/>
        <path id="Path_107868" data-name="Path 107868" class="cls-3" d="M35.09,21.49h-1.2l-.37-.89h-2l-.33.89H30L31.82,17h1.29ZM32.48,18.1l-.66,1.73H33.2Z"/>
        <rect id="Rectangle_226" data-name="Rectangle 226" class="cls-3" x="35.65" y="17.03" width="1.11" height="4.46"/>
        <path id="Path_107869" data-name="Path 107869" class="cls-3" d="M39.75,17a2.19,2.19,0,0,1,2.43,1.92v.42c0,1.29-.82,2.23-2.59,2.23H37.78V17Zm-.86,3.64h.73a1.32,1.32,0,0,0,1.45-1.17,1,1,0,0,0,0-.24,1.31,1.31,0,0,0-1.19-1.42h-1Z"/>
      </g>
    </g>
  </g>
  <g class="cls-7">
    <g id="Group_12" data-name="Group 12">
      <rect id="Rectangle_1" data-name="Rectangle 1" class="cls-3" x="221" y="4" width="84.26" height="54.19"/>
      <g id="Group_11" data-name="Group 11">
        <g class="cls-7">
          <g id="Group_10" data-name="Group 10">
            <g id="Group_3" data-name="Group 3" class="cls-8">
              <g id="Group_2" data-name="Group 2">
                <g class="cls-9">
                  <g id="Group_1" data-name="Group 1">
                    <path id="Path_1" data-name="Path 1" class="cls-10" d="M272.86,34.4a22,22,0,1,1-22-22,22,22,0,0,1,22,22h0"/>
                  </g>
                </g>
              </g>
            </g>
            <g id="Group_6" data-name="Group 6" class="cls-11">
              <g id="Group_5" data-name="Group 5">
                <g class="cls-12">
                  <g id="Group_4" data-name="Group 4">
                    <path id="Path_2" data-name="Path 2" class="cls-13" d="M270.14,30.9A23.17,23.17,0,1,1,247,7.73h0a23.14,23.14,0,0,1,23.14,23.14h0"/>
                  </g>
                </g>
              </g>
            </g>
            <g id="Group_9" data-name="Group 9" class="cls-11">
              <g id="Group_8" data-name="Group 8">
                <g class="cls-14">
                  <g id="Group_7" data-name="Group 7">
                    <path id="Path_3" data-name="Path 3" class="cls-15" d="M270.91,27.49A20.89,20.89,0,1,1,250,6.6a20.89,20.89,0,0,1,20.91,20.89v0h0"/>
                  </g>
                </g>
              </g>
            </g>
            <path id="Path_4" data-name="Path 4" class="cls-3" d="M251.67,36.74l1.23.31a4.07,4.07,0,0,1-1.4,2.32,3.8,3.8,0,0,1-2.47.8,4.39,4.39,0,0,1-2.45-.61,3.92,3.92,0,0,1-1.44-1.78,6.57,6.57,0,0,1-.5-2.51,5.49,5.49,0,0,1,.56-2.55,3.84,3.84,0,0,1,1.59-1.65,4.63,4.63,0,0,1,2.27-.56,3.84,3.84,0,0,1,2.36.71,3.75,3.75,0,0,1,1.33,2l-1.22.29a2.91,2.91,0,0,0-.94-1.49,2.55,2.55,0,0,0-1.56-.46,3,3,0,0,0-1.8.51,2.8,2.8,0,0,0-1,1.39,6,6,0,0,0,.06,3.87,2.54,2.54,0,0,0,1.08,1.33,3.07,3.07,0,0,0,1.59.44,2.59,2.59,0,0,0,1.75-.6,3,3,0,0,0,1-1.77"/>
            <path id="Path_5" data-name="Path 5" class="cls-3" d="M254,37l1.16-.1a2.63,2.63,0,0,0,.39,1.15,2.11,2.11,0,0,0,.94.73,3.68,3.68,0,0,0,1.43.28,3.77,3.77,0,0,0,1.25-.21,1.74,1.74,0,0,0,.81-.58,1.34,1.34,0,0,0,.26-.8,1.19,1.19,0,0,0-.25-.77,1.77,1.77,0,0,0-.84-.55c-.55-.18-1.11-.33-1.67-.46a8.22,8.22,0,0,1-1.8-.58,2.63,2.63,0,0,1-1-.87,2.17,2.17,0,0,1-.33-1.16,2.44,2.44,0,0,1,.4-1.33,2.52,2.52,0,0,1,1.18-.93,4.33,4.33,0,0,1,1.71-.32,4.58,4.58,0,0,1,1.83.34,2.68,2.68,0,0,1,1.23,1,2.85,2.85,0,0,1,.45,1.47L260,33.4a1.91,1.91,0,0,0-.65-1.34,2.51,2.51,0,0,0-1.62-.45,2.64,2.64,0,0,0-1.64.41,1.23,1.23,0,0,0-.51,1,1.05,1.05,0,0,0,.36.83,5,5,0,0,0,1.87.66,12.27,12.27,0,0,1,2.07.6,3,3,0,0,1,1.2,1,2.32,2.32,0,0,1,.38,1.33,2.48,2.48,0,0,1-.42,1.4,2.86,2.86,0,0,1-1.23,1,4.29,4.29,0,0,1-1.8.36,5.18,5.18,0,0,1-2.13-.37,3,3,0,0,1-1.34-1.11A3.21,3.21,0,0,1,254,37"/>
            <path id="Path_6" data-name="Path 6" class="cls-3" d="M264,35.48h0a3.8,3.8,0,0,0,.91,2.66,3.17,3.17,0,0,0,4.48.09.47.47,0,0,0,.1-.1,4,4,0,0,0,.9-2.78,4.73,4.73,0,0,0-.39-2A3,3,0,0,0,268.91,32a3,3,0,0,0-1.67-.47,3.13,3.13,0,0,0-2.26.9,4,4,0,0,0-1,3m-1.27,0A5,5,0,0,1,264,31.82a4.26,4.26,0,0,1,3.22-1.32,4.48,4.48,0,0,1,2.34.62,3.92,3.92,0,0,1,1.58,1.72,5.71,5.71,0,0,1,.55,2.51,5.6,5.6,0,0,1-.58,2.54,3.86,3.86,0,0,1-1.62,1.7,4.52,4.52,0,0,1-2.27.58,4.46,4.46,0,0,1-2.36-.64,4.21,4.21,0,0,1-1.58-1.74,5.37,5.37,0,0,1-.53-2.33"/>
            <path id="Path_7" data-name="Path 7" class="cls-16" d="M276.71,33.69h0a1.72,1.72,0,0,0-.32.65,2,2,0,0,0-.06.35V35a.89.89,0,0,0,.22.66.68.68,0,0,0,.47.21,1,1,0,0,0,.73-.36,1.78,1.78,0,0,0,.31-1.14,1.22,1.22,0,0,0-.14-.65.66.66,0,0,0-.3-.27h-.23a.74.74,0,0,0-.66.3m1.08-.56a1.5,1.5,0,0,1,.34.16l.12.09.09.09a1.7,1.7,0,0,1,.34-.37.62.62,0,0,1,.39-.14.37.37,0,0,1,.28.1.33.33,0,0,1,.11.25h0a.31.31,0,0,1-.11.2.29.29,0,0,1-.23.1h-.36A.83.83,0,0,1,279,34a1.79,1.79,0,0,1,.07.51,1.59,1.59,0,0,1-.49,1.14,1.69,1.69,0,0,1-1.24.48,1.21,1.21,0,0,1-.38,0l-.29-.1h-.06l-.36.7h.05a4,4,0,0,1,.5-.11h.44a1.85,1.85,0,0,1,1.22.38,1.06,1.06,0,0,1,.41.81v.32a1.63,1.63,0,0,1-.62.82,2,2,0,0,1-1.26.37,2.37,2.37,0,0,1-1.08-.21c-.29-.14-.43-.31-.43-.5a.62.62,0,0,1,.1-.35.43.43,0,0,1,.59-.07h0a.37.37,0,0,1,.13.17v.23a.11.11,0,0,0,0,.08.17.17,0,0,0,0,.1.55.55,0,0,0,.19.18.91.91,0,0,0,.43.07,1.31,1.31,0,0,0,.84-.24,1.12,1.12,0,0,0,.42-.52.24.24,0,0,0,0-.12h0a.58.58,0,0,0-.23-.44,1.12,1.12,0,0,0-.77-.21h-.55a7.2,7.2,0,0,0-.78.16h-.4l-.14-.13.95-1.7a1.52,1.52,0,0,1-.38-.52,1.69,1.69,0,0,1,.34-1.78,1.61,1.61,0,0,1,1.26-.52,1.42,1.42,0,0,1,.5.08"/>
            <path id="Path_8" data-name="Path 8" class="cls-16" d="M283,36.21l-.16.21a1.7,1.7,0,0,1-.22.24,2.51,2.51,0,0,1-.58.45,1.54,1.54,0,0,1-.79.19,1.38,1.38,0,0,1-1.06-.45,1.76,1.76,0,0,1-.42-1.26,2.59,2.59,0,0,1,.63-1.7,2.42,2.42,0,0,1,1.4-.89h.25a1,1,0,0,1,.64.21.65.65,0,0,1,.26.55,1.12,1.12,0,0,1-.38.84,1.48,1.48,0,0,1-1,.37h-.51l.07-.28h.26a1.19,1.19,0,0,0,.73-.22.79.79,0,0,0,.3-.62.42.42,0,0,0-.1-.28.48.48,0,0,0-.2-.14h-.24A1.16,1.16,0,0,0,281,34a2.49,2.49,0,0,0-.43,1.45,1.79,1.79,0,0,0,.16.82,1.15,1.15,0,0,0,.35.41.79.79,0,0,0,.3.12h.19a1.26,1.26,0,0,0,.68-.2,2.45,2.45,0,0,0,.54-.42H283Z"/>
            <path id="Path_9" data-name="Path 9" class="cls-16" d="M285,33.89h0a4,4,0,0,0-.42,1.26V36a1.1,1.1,0,0,0,.22.7.82.82,0,0,0,.66.26,1,1,0,0,0,.9-.48,3,3,0,0,0,.43-1c0-.22.07-.43.09-.65a4.69,4.69,0,0,0,0-.53.85.85,0,0,0-.24-.7,1,1,0,0,0-.54-.24H286a1,1,0,0,0-.92.57m2.21-.3a2.34,2.34,0,0,1,.43,1.4,2.38,2.38,0,0,1-.62,1.6,2.06,2.06,0,0,1-1.62.71,1.5,1.5,0,0,1-1.27-.58,2.27,2.27,0,0,1-.43-1.33,2.46,2.46,0,0,1,.66-1.67A2,2,0,0,1,286,33a1.49,1.49,0,0,1,1.29.6"/>
            <path id="Path_10" data-name="Path 10" class="cls-16" d="M288.47,33.37h.12l.34-.07a1.08,1.08,0,0,0,.3-.11l.15-.08.15-.1h.13a1.87,1.87,0,0,0,.08.34,1.93,1.93,0,0,1,0,.34v.1h0v.06h0a1.18,1.18,0,0,1,.11-.19,1,1,0,0,1,.11-.17,1.24,1.24,0,0,1,.56-.45,1.29,1.29,0,0,1,.48,0,.48.48,0,0,1,.32.13.8.8,0,0,1,.18.27v.39a.38.38,0,0,1-.15.18.33.33,0,0,1-.25.08H291a.44.44,0,0,1-.22-.07.34.34,0,0,1-.17-.2h0a.09.09,0,0,0-.06-.06h-.1a.34.34,0,0,0-.2.13,1.34,1.34,0,0,0-.27.44,1.82,1.82,0,0,0-.14.39,4.07,4.07,0,0,0-.13.5l-.48,2.16h-.75L289,34.7a2.36,2.36,0,0,1,.08-.45v-.13a.09.09,0,0,0,0-.07.09.09,0,0,0,0-.07.32.32,0,0,0-.12-.18.64.64,0,0,0-.36-.08h-.12Z"/>
            <path id="Path_11" data-name="Path 11" class="cls-16" d="M292.88,33.69h0a2.31,2.31,0,0,0-.32.65,2,2,0,0,0-.06.35V35a.84.84,0,0,0,.21.66.73.73,0,0,0,.48.21,1,1,0,0,0,.72-.36,1.65,1.65,0,0,0,.31-1.14,1.23,1.23,0,0,0-.13-.65.63.63,0,0,0-.31-.27h-.23a.74.74,0,0,0-.66.3m1.08-.56a1.5,1.5,0,0,1,.34.16l.13.09.08.09a2,2,0,0,1,.34-.37.63.63,0,0,1,.4-.14.34.34,0,0,1,.27.1.3.3,0,0,1,.12.25h0a.56.56,0,0,1-.11.2.31.31,0,0,1-.24.1H295a1.62,1.62,0,0,1,.17.35,1.79,1.79,0,0,1,.07.51,1.54,1.54,0,0,1-.5,1.14,1.66,1.66,0,0,1-1.23.48h-.39l-.28-.1h-.07l-.35.7h0a4,4,0,0,1,.5-.11h.45a1.81,1.81,0,0,1,1.21.38,1,1,0,0,1,.42.81v.32a1.69,1.69,0,0,1-.62.82,2,2,0,0,1-1.26.37,2.41,2.41,0,0,1-1.09-.21c-.28-.14-.42-.31-.43-.5a.74.74,0,0,1,.1-.35.39.39,0,0,1,.35-.16.38.38,0,0,1,.25.09.3.3,0,0,1,.12.17.69.69,0,0,1,.05.13v.1a.11.11,0,0,0,0,.08.17.17,0,0,0,0,.1.47.47,0,0,0,.19.18.87.87,0,0,0,.42.07,1.36,1.36,0,0,0,.85-.24,1.19,1.19,0,0,0,.42-.52V38.1a.63.63,0,0,0-.22-.44,1.12,1.12,0,0,0-.77-.21h-.55a7.2,7.2,0,0,0-.78.16h-.41l-.14-.13,1-1.7a1.62,1.62,0,0,1-.38-.52,1.68,1.68,0,0,1-.12-.63,1.7,1.7,0,0,1,.47-1.15A1.62,1.62,0,0,1,293.7,33a1.42,1.42,0,0,1,.5.08"/>
            <path id="Path_12" data-name="Path 12" class="cls-16" d="M296.47,31.1h0a.59.59,0,0,1,.17-.33.52.52,0,0,1,.37-.16h.05a.61.61,0,0,1,.34.17.54.54,0,0,1,.15.38v.05a.59.59,0,0,1-.17.33.52.52,0,0,1-.37.16h0a.62.62,0,0,1-.33-.17.48.48,0,0,1-.15-.37Zm.57,6.12a1.85,1.85,0,0,1-.47.08.63.63,0,0,1-.46-.12.49.49,0,0,1-.13-.36v-.44l.47-2.23v-.21a.21.21,0,0,0,0-.11.23.23,0,0,0-.06-.16.31.31,0,0,0-.13-.06h-.44l.05-.24a4,4,0,0,0,.84-.11,1.66,1.66,0,0,0,.59-.27h.1l-.72,3.4h0v.06h0v.16a.16.16,0,0,0,.06.08.49.49,0,0,0,.17,0,.74.74,0,0,0,.21,0,1.74,1.74,0,0,0,.33-.18l.16.17a1.62,1.62,0,0,1-.67.45"/>
            <path id="Path_13" data-name="Path 13" class="cls-16" d="M301.22,34.05h0V33.9h0v-.19a.25.25,0,0,0-.09-.23.42.42,0,0,0-.2-.1h-.15a1.22,1.22,0,0,0-.27,0,1.64,1.64,0,0,0-.29.16,2.57,2.57,0,0,0-.69.88,3.42,3.42,0,0,0-.32,1.51,1.09,1.09,0,0,0,.18.7.62.62,0,0,0,.4.22h.08a.66.66,0,0,0,.55-.21,1.13,1.13,0,0,0,.29-.45.06.06,0,0,1,0-.06h0Zm.27,2.33h0v.1a.17.17,0,0,0,.07.14.22.22,0,0,0,.16,0,.41.41,0,0,0,.22,0,2,2,0,0,0,.32-.18l.17.17h0a1.86,1.86,0,0,1-.47.32,1.24,1.24,0,0,1-.6.15.71.71,0,0,1-.45-.11.49.49,0,0,1-.14-.38h0a1.35,1.35,0,0,1-.4.31,1.44,1.44,0,0,1-.45.17h-.42a1.11,1.11,0,0,1-.64-.31,1.23,1.23,0,0,1-.28-.94,1.13,1.13,0,0,1,0-.26,1.13,1.13,0,0,1,0-.26,3.66,3.66,0,0,1,.89-1.75,2,2,0,0,1,1.52-.78h.15a.38.38,0,0,1,.15,0,.75.75,0,0,1,.2.1.65.65,0,0,1,.18.15l.29-.22h.29Z"/>
          </g>
        </g>
      </g>
    </g>
  </g>
  <g id="samoqalaqo">
    <g class="cls-17">
      <g id="Group_66" data-name="Group 66">
        <path id="Path_107672" data-name="Path 107672" class="cls-18" d="M379.13,18.19a18.33,18.33,0,0,0-9.65-6.27h0a18.47,18.47,0,0,0-3.55-.55h-6.65V7.84a.86.86,0,0,0-.84-.84h-8.83a.57.57,0,0,0-.22.07h0a.21.21,0,0,0-.1.06h0l-.09.07h0l-.08.09h0l-3,4H342a.57.57,0,0,0-.22.07h0a.21.21,0,0,0-.1.06h0l-.09.06h0l-.08.08h0L338.17,16a.87.87,0,0,0-.17.51v8.7a.11.11,0,0,0,0,.08v.15h0v.12h0v.08h0l.06.06h0l.06.05h7.2a21.06,21.06,0,0,0,.5,4.88,21.43,21.43,0,0,0,19.78,16.8h3.61v7.94h0v.09h0l.05.11h0l.05.08h0v.06H379a.77.77,0,0,0,.67-.34L382.93,51H383v-.1h0v-.1h0V29.56a18.08,18.08,0,0,0-4-11.37m-28.57-9.5h7v2.65h-7Zm-10.86,8.12,1.57-2.09v5.87l-1.57,2.09Zm27.58,29.27h-1.29A20,20,0,0,1,347.4,28.5a16.59,16.59,0,0,1,1.42-1.91,18.42,18.42,0,0,0,1,5.5.76.76,0,0,0,.1.3l.05.13a1.5,1.5,0,0,0,.17.46h0s.14.34.22.5h0a.61.61,0,0,0,.07.14c0,.11.1.22.14.33l.05.1.18.37.1.19.06.1.05.09.13.25h0v.05l.36.61.05.07.15.25c.26.4.53.79.81,1.16l.07.1h0l.21.27h0l.2.24h0l.27.31h0l.4.42L354,39l.29.3.08.08.17.16h0l.33.32h0l.08.07.25.22h.05l.37.3h0a4.91,4.91,0,0,0,.51.39l.11.09.49.35.15.09.45.3.16.1.43.25.17.1.42.23h.06l.22.11.37.18.25.12.37.16.24.1.6.24h0c.35.13.7.25,1.05.35l.29.08.24.07.43.11h.1l.44.1h.1l.39.07h.16l.3.05h3.95c-.35.51-.68,1-1,1.56m3.9,7V43.52h0a.84.84,0,0,0-.82-.65h-6.21l-.36-.07h-.07l-.42-.09H363l-.43-.1-.37-.11h-.11l-1-.33h0l-.52-.2-.22-.1-.32-.14-.22-.1-.36-.17-.17-.09-.47-.26-.15-.08-.38-.23-.14-.08-.41-.27-.14-.09-.43-.31-.11-.08c-.16-.11-.3-.23-.46-.35h0l-.34-.28h0L356,39h0l-.3-.28h0l-.23-.22-.26-.27-.12-.11-.35-.39-.27-.31h0l-.27-.34c-.09-.11-.18-.22-.26-.34l-.17-.21-.16-.23-.23-.33-.26-.4a1.74,1.74,0,0,0-.11-.18c-.12-.19-.23-.39-.35-.6h0l-.15-.29-.09-.15-.09-.19-.18-.37a.21.21,0,0,1,0-.11c-.07-.14-.13-.29-.2-.43v-.09c-.06-.14-.12-.28-.17-.42l-.06-.16a.94.94,0,0,0-.1-.28,2.06,2.06,0,0,0-.12-.35h0a17.83,17.83,0,0,1-.82-6.2v-.13h0v-.08h-9.55l2-2.65H366.7l.31.05h0a7.79,7.79,0,0,1,1.75.57l.2.1h0l.13.07.12.06h.1l.14.09h.09l.15.1.11.08.12.08.17.12h.06a3.73,3.73,0,0,1,.43.36,6.21,6.21,0,0,1,.73.72h0a4.12,4.12,0,0,1,.33.4h0l.15.2.06.09.1.14.07.12a.44.44,0,0,0,.08.11.54.54,0,0,0,.07.13l.07.12v.1a1.09,1.09,0,0,1,.08.15V27c0,.06.07.13.1.2l.15.35v.06l.12.31h0a1.33,1.33,0,0,0,.1.34h0l.09.36h0a6.71,6.71,0,0,1,.17,1.18h0v.39h0V51l-1.15,1.53Zm1,1.63,1.9-2.53h6.43l-1.9,2.53ZM381.26,50h-7V28.83a4.73,4.73,0,0,0-.12-.92h0l-.09-.44h0a1.91,1.91,0,0,0-.11-.41V27l-.09-.29v-.17c-.05-.13-.09-.26-.14-.38V26a3,3,0,0,0-.18-.41h0l-.23-.46-.08-.15h0c-.1-.19-.22-.38-.34-.57l-.15-.23h0a9.89,9.89,0,0,0-.64-.81,3.88,3.88,0,0,0-.39-.42h0c-.14-.15-.3-.29-.45-.43l-.06-.05-.48-.39h-.08l-.2-.15a10.37,10.37,0,0,0-1.15-.7h0L369,21h0a9.61,9.61,0,0,0-2.09-.67h-.05a.74.74,0,0,1-.36-.06H343V13h22.87a15.56,15.56,0,0,1,3.19.48h0a16.52,16.52,0,0,1,12.4,16V50.41Z"/>
        <path id="Path_107673" data-name="Path 107673" class="cls-18" d="M369.92,26.88a6.24,6.24,0,0,0-5-2.51h-6.51a.85.85,0,0,0-.85.85h0v1.84a9.46,9.46,0,0,0,3.22,6.4A8.86,8.86,0,0,0,363.07,35a11.19,11.19,0,0,0,5.14.89h2.11a.85.85,0,0,0,.62-.26.84.84,0,0,0,.23-.62v-1.4a23.46,23.46,0,0,0-.13-4.19,6.24,6.24,0,0,0-1.12-2.49m-.44,6.67v.6h-.3c-1.85,0-3.94,0-5.35-.7h0a7.59,7.59,0,0,1-1.89-1.23A7.79,7.79,0,0,1,359.29,27v-.86H365a4.59,4.59,0,0,1,4.49,3.66v.06a33.53,33.53,0,0,1,.08,3.75"/>
        <path id="Path_107674" data-name="Path 107674" class="cls-19" d="M397,17h0a1.43,1.43,0,0,1-.43-1.19.3.3,0,0,0-.28-.28h-.73a.3.3,0,0,0-.28.28,2.22,2.22,0,0,0,.62,1.73,1.22,1.22,0,0,1,.43.93,1.62,1.62,0,0,1-.28,1.09.77.77,0,0,1-.64.31.88.88,0,0,1-.67-.32,1.77,1.77,0,0,1-.3-1.16V14.63a.27.27,0,0,0-.26-.28h-.72a.3.3,0,0,0-.28.28v3.79a3.45,3.45,0,0,0,.26,1.38,2.21,2.21,0,0,0,.8.94,2.3,2.3,0,0,0,2.35,0,2.21,2.21,0,0,0,.8-.94,3.39,3.39,0,0,0,.26-1.3A1.8,1.8,0,0,0,397,17"/>
        <path id="Path_107675" data-name="Path 107675" class="cls-19" d="M401.55,16a2,2,0,0,1-.84-1.43.3.3,0,0,0-.28-.28h-.71a.3.3,0,0,0-.28.28,2.68,2.68,0,0,0,1,2.08,2.35,2.35,0,0,1,.83,1.85,1.86,1.86,0,0,1-.33,1.12.84.84,0,0,1-.6.25.79.79,0,0,1-.63-.32,1.89,1.89,0,0,1-.29-1.2,3.83,3.83,0,0,1,.3-1.15.27.27,0,0,0-.12-.34l-.65-.38a.28.28,0,0,0-.22,0,.29.29,0,0,0-.17.14,3.62,3.62,0,0,0-.44,1.67,3.12,3.12,0,0,0,.58,1.91,2,2,0,0,0,2.78.54h0a1.74,1.74,0,0,0,.54-.54,3.21,3.21,0,0,0-.47-4.17"/>
        <path id="Path_107676" data-name="Path 107676" class="cls-19" d="M405.27,16.23a2.36,2.36,0,0,0-1.25.3,1.93,1.93,0,0,0-.75.85,3.06,3.06,0,0,0-.23,1.23,2.74,2.74,0,0,0,.26,1.29,2,2,0,0,0,.8.86,2.41,2.41,0,0,0,2.33,0,2.08,2.08,0,0,0,.8-.86,3,3,0,0,0,.26-1.29V16a1.58,1.58,0,0,0-.62-1.25,2.36,2.36,0,0,0-1.49-.49,2.53,2.53,0,0,0-1.51.42,1.35,1.35,0,0,0-.6,1.18.27.27,0,0,0,.26.28h.74a.3.3,0,0,0,.28-.28.34.34,0,0,1,.17-.34,1.22,1.22,0,0,1,.65-.15,1,1,0,0,1,.64.19.5.5,0,0,1,.22.42v.5a1.78,1.78,0,0,0-1-.28m1,2.4a1.38,1.38,0,0,1-.29,1,1,1,0,0,1-.67.28.88.88,0,0,1-.65-.28,1.48,1.48,0,0,1-.28-1,1.43,1.43,0,0,1,.27-1,1,1,0,0,1,1.34,0,1.37,1.37,0,0,1,.28,1"/>
        <path id="Path_107677" data-name="Path 107677" class="cls-19" d="M409.67,21h1a.3.3,0,0,0,.28-.28.3.3,0,0,0-.08-.2,4.32,4.32,0,0,1-1.52-3,3.12,3.12,0,0,1,.3-1.56.7.7,0,0,1,.62-.42.4.4,0,0,1,.31.11,1.25,1.25,0,0,1,.21.86v2a.3.3,0,0,0,.28.28h.75a.27.27,0,0,0,.28-.26h0v-2c0-1,.4-1,.58-1a.68.68,0,0,1,.62.41,3.15,3.15,0,0,1,.3,1.57,4.31,4.31,0,0,1-1.49,3,.28.28,0,0,0,0,.4h0a.32.32,0,0,0,.2.08h1a.28.28,0,0,0,.21-.1,5.4,5.4,0,0,0,1.42-3.32,5.17,5.17,0,0,0-.23-1.56,2.75,2.75,0,0,0-.71-1.18,1.8,1.8,0,0,0-1.25-.47,1.58,1.58,0,0,1-2.22.27h0a1.72,1.72,0,0,1-.27-.27,1.8,1.8,0,0,0-1.25.47A2.72,2.72,0,0,0,408.3,16a5.51,5.51,0,0,0-.23,1.56,5.4,5.4,0,0,0,1.42,3.32.32.32,0,0,0,.22.1"/>
        <path id="Path_107678" data-name="Path 107678" class="cls-19" d="M416.94,17.93a.26.26,0,0,0-.15-.17l-.64-.3a.28.28,0,0,0-.36.12,3,3,0,0,0-.44,1.32,2.54,2.54,0,0,0,.24,1.08,1.71,1.71,0,0,0,.76.79,2.8,2.8,0,0,0,2.46,0,1.84,1.84,0,0,0,.77-.79,3.85,3.85,0,0,0,.23-1.54V14.61a.3.3,0,0,0-.28-.28h-.7a.3.3,0,0,0-.28.28v.47a1.91,1.91,0,0,0-1.13-.37,1.61,1.61,0,0,0-1.26.49,2.44,2.44,0,0,0-.41,1.64.3.3,0,0,0,.28.28h.73a.3.3,0,0,0,.28-.28,3.25,3.25,0,0,1,.07-.93s.07-.07.3-.07a1.08,1.08,0,0,1,.83.34,1,1,0,0,1,.31.64v1.64a3.72,3.72,0,0,1-.06.94.63.63,0,0,1-.26.34,1.11,1.11,0,0,1-.64.16,1,1,0,0,1-.67-.24.67.67,0,0,1-.26-.54,1.75,1.75,0,0,1,.24-1,.24.24,0,0,0,0-.23"/>
        <path id="Path_107679" data-name="Path 107679" class="cls-19" d="M422.57,21.06a1.91,1.91,0,0,0,1.68-.85,3.22,3.22,0,0,0-.47-4.18,1.94,1.94,0,0,1-.84-1.43.28.28,0,0,0-.28-.27H422a.27.27,0,0,0-.28.26h0a2.68,2.68,0,0,0,1,2.08,2.34,2.34,0,0,1,.82,1.85,1.86,1.86,0,0,1-.33,1.12.79.79,0,0,1-.6.26.84.84,0,0,1-.62-.32,1.89,1.89,0,0,1-.29-1.2,3.6,3.6,0,0,1,.29-1.16.27.27,0,0,0-.12-.34l-.65-.38a.22.22,0,0,0-.22,0,.29.29,0,0,0-.17.14,3.77,3.77,0,0,0-.43,1.67,3.12,3.12,0,0,0,.58,1.91,1.9,1.9,0,0,0,1.63.84"/>
        <path id="Path_107680" data-name="Path 107680" class="cls-19" d="M426.51,19.1h-.23a.31.31,0,0,0-.23.28v.68a.32.32,0,0,0,.1.22.33.33,0,0,0,.24,0,10.2,10.2,0,0,1,2.27-.26,4.74,4.74,0,0,1,1.45.19c.34.11.53.26.59.45a.27.27,0,0,0,.27.2h1a.29.29,0,0,0,.29-.27h0c-.07-.46-.47-.87-1.19-1.2a7.6,7.6,0,0,0-2.71-.53c-1.18-.59-1.78-1.32-1.78-2.16a1.48,1.48,0,0,1,.26-1,.72.72,0,0,1,.58-.28c.16,0,.53,0,.53.92V17.5a.27.27,0,0,0,.26.28H429a.27.27,0,0,0,.28-.26h0V16.38c0-1,.35-1,.5-1s.5,0,.5,1V17.5a.3.3,0,0,0,.28.28h.75a.3.3,0,0,0,.28-.28V16.38c0-.92.4-.92.57-.92a.8.8,0,0,1,.58.26,1.48,1.48,0,0,1,.26,1,2.29,2.29,0,0,1-1.13,1.77.28.28,0,0,0-.06.39h0a.28.28,0,0,0,.21.1h1.09a.27.27,0,0,0,.21-.09,3.33,3.33,0,0,0,1-2.18,2.9,2.9,0,0,0-.24-1.23,2.08,2.08,0,0,0-1.91-1.19,1.67,1.67,0,0,0-1.2.44,1.59,1.59,0,0,0-1.18-.48,1.5,1.5,0,0,0-1.14.49,1.69,1.69,0,0,0-1.19-.45,2,2,0,0,0-1.91,1.21,3,3,0,0,0,1,3.57"/>
        <path id="Path_107681" data-name="Path 107681" class="cls-19" d="M437,21.06a1.91,1.91,0,0,0,1.68-.85,3.22,3.22,0,0,0-.47-4.18,1.94,1.94,0,0,1-.84-1.43.3.3,0,0,0-.28-.28h-.71a.3.3,0,0,0-.28.28,2.68,2.68,0,0,0,1,2.08,2.31,2.31,0,0,1,.82,1.85,1.79,1.79,0,0,1-.32,1.12.75.75,0,0,1-.6.25.78.78,0,0,1-.63-.31,1.89,1.89,0,0,1-.29-1.2,3.89,3.89,0,0,1,.3-1.16.28.28,0,0,0-.13-.34l-.64-.38a.28.28,0,0,0-.22,0,.24.24,0,0,0-.17.14,3.62,3.62,0,0,0-.44,1.67,3.19,3.19,0,0,0,.58,1.91,1.93,1.93,0,0,0,1.64.84"/>
        <path id="Path_107682" data-name="Path 107682" class="cls-19" d="M441.23,17.94a.26.26,0,0,0-.16-.18l-.63-.3a.28.28,0,0,0-.36.12,2.83,2.83,0,0,0-.43,1.32,2.4,2.4,0,0,0,.23,1.09,1.74,1.74,0,0,0,.76.78,2.8,2.8,0,0,0,2.46,0,1.81,1.81,0,0,0,.77-.78,3.9,3.9,0,0,0,.23-1.55V14.61a.3.3,0,0,0-.28-.28h-.7a.3.3,0,0,0-.28.28v.47a1.91,1.91,0,0,0-1.13-.37,1.61,1.61,0,0,0-1.26.49,2.47,2.47,0,0,0-.41,1.65.28.28,0,0,0,.28.27h.73a.28.28,0,0,0,.28-.27h0a3.25,3.25,0,0,1,.07-.93s.07-.07.3-.07a1.08,1.08,0,0,1,.83.34,1,1,0,0,1,.31.64v1.64a3.72,3.72,0,0,1-.06.94.63.63,0,0,1-.26.34,1.11,1.11,0,0,1-.64.16,1,1,0,0,1-.67-.24.64.64,0,0,1-.25-.54,1.59,1.59,0,0,1,.24-.95.33.33,0,0,0,0-.24"/>
        <path id="Path_107683" data-name="Path 107683" class="cls-19" d="M451.27,16h0a2.61,2.61,0,0,0-.71-1.18,1.78,1.78,0,0,0-1.24-.47,1.51,1.51,0,0,0-1.26.62,1.54,1.54,0,0,0-1.23-.62,1.8,1.8,0,0,0-1.25.47,2.61,2.61,0,0,0-.71,1.18,4.94,4.94,0,0,0-.23,1.57,5.44,5.44,0,0,0,1.41,3.31.32.32,0,0,0,.22.1h1a.29.29,0,0,0,.29-.27h0a.27.27,0,0,0-.09-.21,4.27,4.27,0,0,1-1.51-3,3,3,0,0,1,.3-1.57.71.71,0,0,1,.62-.41.4.4,0,0,1,.31.11,1.28,1.28,0,0,1,.21.85v2a.3.3,0,0,0,.28.28h.75a.3.3,0,0,0,.28-.28v-2c0-1,.4-1,.57-1a.73.73,0,0,1,.63.42,3.23,3.23,0,0,1,.3,1.56,4.39,4.39,0,0,1-1.49,3,.26.26,0,0,0-.06.3.27.27,0,0,0,.26.18h1a.32.32,0,0,0,.22-.1,5.5,5.5,0,0,0,1.41-3.32,4.84,4.84,0,0,0-.23-1.56"/>
        <path id="Path_107684" data-name="Path 107684" class="cls-19" d="M397,28.83h0a1.4,1.4,0,0,1-.43-1.18.3.3,0,0,0-.28-.28h-.73a.3.3,0,0,0-.28.28h0a2.22,2.22,0,0,0,.62,1.73,1.22,1.22,0,0,1,.43.93,1.62,1.62,0,0,1-.28,1.09.77.77,0,0,1-.64.31.87.87,0,0,1-.67-.31,1.8,1.8,0,0,1-.3-1.17V26.44a.27.27,0,0,0-.26-.28h-.72a.3.3,0,0,0-.28.28v3.79a3.47,3.47,0,0,0,.26,1.39,2.13,2.13,0,0,0,.8.93,2.3,2.3,0,0,0,2.35,0,2.13,2.13,0,0,0,.8-.93,3.39,3.39,0,0,0,.26-1.3,1.82,1.82,0,0,0-.64-1.48"/>
        <path id="Path_107685" data-name="Path 107685" class="cls-19" d="M401.55,27.84a2,2,0,0,1-.84-1.43.3.3,0,0,0-.28-.28h-.71a.3.3,0,0,0-.28.28,2.68,2.68,0,0,0,1,2.08,2.32,2.32,0,0,1,.83,1.85,1.86,1.86,0,0,1-.33,1.12.8.8,0,0,1-1.13,0h0a.38.38,0,0,1-.09-.09,1.89,1.89,0,0,1-.29-1.2,3.6,3.6,0,0,1,.29-1.16.27.27,0,0,0-.12-.34l-.65-.38a.22.22,0,0,0-.22,0,.29.29,0,0,0-.17.14,3.77,3.77,0,0,0-.43,1.67,3.13,3.13,0,0,0,.57,1.9,2.08,2.08,0,0,0,2.92.38h0A2.28,2.28,0,0,0,402,32a3.08,3.08,0,0,0,.55-1.76,3,3,0,0,0-1-2.42"/>
        <path id="Path_107686" data-name="Path 107686" class="cls-19" d="M406.84,28.25h0a2.87,2.87,0,0,0-.4-.18,1.14,1.14,0,0,0,.05-.37,1.53,1.53,0,0,0-.19-.76,1.51,1.51,0,0,0-.57-.58,2.27,2.27,0,0,0-2,0,1.41,1.41,0,0,0-.58.65,2,2,0,0,0-.18.76,1.61,1.61,0,0,0,.59,1.34,3.24,3.24,0,0,0-.26,1.27,3.1,3.1,0,0,0,.26,1.31,1.93,1.93,0,0,0,.8.87,2.36,2.36,0,0,0,2.33,0,1.93,1.93,0,0,0,.8-.87,3.17,3.17,0,0,0,.26-1.32,3,3,0,0,0-.24-1.25,1.9,1.9,0,0,0-.74-.87m-1.57-.46a.54.54,0,0,1,0,.18,2,2,0,0,0-.8.23.55.55,0,0,1-.14-.37.68.68,0,0,1,.12-.44.5.5,0,0,1,.37-.12.63.63,0,0,1,.37.12.49.49,0,0,1,.13.4m-.34,1.6a.91.91,0,0,1,1.29,0h0a2,2,0,0,1,0,2,.9.9,0,0,1-1.27,0h0a2,2,0,0,1,0-2"/>
        <path id="Path_107687" data-name="Path 107687" class="cls-19" d="M414.91,27.79h0a2.75,2.75,0,0,0-.71-1.18,1.8,1.8,0,0,0-1.25-.47,1.51,1.51,0,0,0-1.25.62,1.54,1.54,0,0,0-1.24-.62,1.8,1.8,0,0,0-1.25.47,2.92,2.92,0,0,0-.71,1.18,5.23,5.23,0,0,0-.22,1.57,5.33,5.33,0,0,0,1.41,3.31.32.32,0,0,0,.22.1h1a.27.27,0,0,0,.28-.26h0a.32.32,0,0,0-.08-.21,4.32,4.32,0,0,1-1.52-3,3.27,3.27,0,0,1,.3-1.57.74.74,0,0,1,.63-.41.4.4,0,0,1,.31.11,1.28,1.28,0,0,1,.21.85v2a.3.3,0,0,0,.28.28h.75a.3.3,0,0,0,.28-.28v-2c0-1,.4-1,.57-1a.71.71,0,0,1,.62.41,3,3,0,0,1,.3,1.57,4.35,4.35,0,0,1-1.49,3,.28.28,0,0,0,0,.38h0a.32.32,0,0,0,.2.08h1a.25.25,0,0,0,.21-.1,5.4,5.4,0,0,0,1.42-3.31,4.94,4.94,0,0,0-.23-1.57"/>
        <path id="Path_107688" data-name="Path 107688" class="cls-19" d="M419.24,26.46h0a2.65,2.65,0,0,0-2.56,0,1.26,1.26,0,0,0-.57,1.12.28.28,0,0,0,.28.27h.7a.27.27,0,0,0,.28-.26h0a.3.3,0,0,1,.12-.26.9.9,0,0,1,.51-.1.84.84,0,0,1,.49.1.2.2,0,0,1,.1.2.61.61,0,0,1-.08.3h-.42a2.39,2.39,0,0,0-1.8.74,2.43,2.43,0,0,0-.69,1.7,2.61,2.61,0,0,0,.67,1.86,2.43,2.43,0,0,0,1.84.72,2.4,2.4,0,0,0,2.51-2.28v-.3a2.35,2.35,0,0,0-1-2,1.76,1.76,0,0,0,.2-.81,1.17,1.17,0,0,0-.6-1m.06,3.77a1.58,1.58,0,0,1-.33,1.13,1.13,1.13,0,0,1-.83.34,1.32,1.32,0,0,1-.87-.32,1.47,1.47,0,0,1-.37-1.13,1.41,1.41,0,0,1,.35-1,1.11,1.11,0,0,1,.85-.37,1.06,1.06,0,0,1,.88.38,1.42,1.42,0,0,1,.32.93"/>
        <path id="Path_107689" data-name="Path 107689" class="cls-19" d="M425.53,30.27a3.06,3.06,0,0,0-1-2.43,1.94,1.94,0,0,1-.84-1.43.28.28,0,0,0-.28-.27h-.71a.28.28,0,0,0-.28.27,2.6,2.6,0,0,0,1,2.08,2.34,2.34,0,0,1,.82,1.85,1.8,1.8,0,0,1-.33,1.12.81.81,0,0,1-1.14,0l-.09-.1a2,2,0,0,1-.29-1.2,3.89,3.89,0,0,1,.3-1.16.27.27,0,0,0-.12-.34l-.65-.37a.28.28,0,0,0-.22,0,.24.24,0,0,0-.17.14,3.62,3.62,0,0,0-.44,1.67,3.19,3.19,0,0,0,.58,1.91,2,2,0,0,0,2.78.53h0l.08-.06A2.37,2.37,0,0,0,425,32a3.11,3.11,0,0,0,.56-1.75Z"/>
        <path id="Path_107690" data-name="Path 107690" class="cls-19" d="M431.43,32.66h0a.3.3,0,0,0,0-.26,1.78,1.78,0,0,0-.83-.82,6.08,6.08,0,0,0-2-.55,3,3,0,0,1-1.29-2.3,1.8,1.8,0,0,1,.27-1.11.76.76,0,0,1,.65-.32,1.22,1.22,0,0,1,.46.09h0a3.5,3.5,0,0,0-.23,1.32,3.45,3.45,0,0,0,.26,1.38,2,2,0,0,0,.8.94,2.28,2.28,0,0,0,2.34,0,2.21,2.21,0,0,0,.8-.94,3.45,3.45,0,0,0,.26-1.38,3.32,3.32,0,0,0-.24-1.32,1.94,1.94,0,0,0-.73-.92,2.34,2.34,0,0,0-1.26-.34,2.49,2.49,0,0,1-2.45,0,2.34,2.34,0,0,0-1.26.34,1.94,1.94,0,0,0-.73.92,3.32,3.32,0,0,0-.24,1.32,3.45,3.45,0,0,0,1,2.37h-.28a.28.28,0,0,0-.22.27V32a.3.3,0,0,0,.11.23.31.31,0,0,0,.23,0,5.54,5.54,0,0,1,1.46-.16,4.13,4.13,0,0,1,1.26.13c.16.07.26.15.29.25a.27.27,0,0,0,.27.2h1.09a.27.27,0,0,0,.23-.12m-1.69-3.94a1.75,1.75,0,0,1,.24-1,.86.86,0,0,1,1.21-.09l.09.09a1.77,1.77,0,0,1,.27,1.12,1.86,1.86,0,0,1-.28,1.17.83.83,0,0,1-1.15.14.86.86,0,0,1-.13-.14,1.86,1.86,0,0,1-.28-1.17"/>
        <path id="Path_107691" data-name="Path 107691" class="cls-19" d="M434.67,29.26a3.15,3.15,0,0,1,.29-1.57.74.74,0,0,1,.63-.41.4.4,0,0,1,.31.11,1.28,1.28,0,0,1,.21.85v2a.27.27,0,0,0,.26.28h.77a.3.3,0,0,0,.28-.28v-2c0-1,.4-1,.57-1a.68.68,0,0,1,.62.41,3,3,0,0,1,.3,1.57,4.31,4.31,0,0,1-1.49,3,.28.28,0,0,0,0,.4h0a.32.32,0,0,0,.2.08h1a.28.28,0,0,0,.21-.1,5.4,5.4,0,0,0,1.42-3.31A5,5,0,0,0,440,27.8a2.75,2.75,0,0,0-.71-1.18,1.8,1.8,0,0,0-1.25-.47,1.51,1.51,0,0,0-1.25.62,1.54,1.54,0,0,0-1.24-.62,1.78,1.78,0,0,0-1.24.47,2.63,2.63,0,0,0-.72,1.18,5.23,5.23,0,0,0-.22,1.57,5.39,5.39,0,0,0,1.41,3.31.32.32,0,0,0,.22.1h1a.3.3,0,0,0,.28-.28.3.3,0,0,0-.08-.2,4.32,4.32,0,0,1-1.52-3"/>
        <path id="Path_107692" data-name="Path 107692" class="cls-19" d="M443,26.14a2.19,2.19,0,0,0-1.47.5,1.64,1.64,0,0,0-.6,1.27,2.21,2.21,0,0,0,.35,1.14.3.3,0,0,0,.37.1l.63-.33a.28.28,0,0,0,.12-.38h0a.88.88,0,0,1-.15-.52.57.57,0,0,1,.19-.42.82.82,0,0,1,.58-.2,1,1,0,0,1,.6.2.54.54,0,0,1,.23.43V30.3a4.85,4.85,0,0,1-.06.93.59.59,0,0,1-.27.35,1,1,0,0,1-.59.16.87.87,0,0,1-.63-.24.68.68,0,0,1-.3-.5,1.35,1.35,0,0,1,.22-.8.28.28,0,0,0-.06-.39h-.07l-.66-.24a.3.3,0,0,0-.34.12,2.32,2.32,0,0,0-.39,1.13,2.4,2.4,0,0,0,.23,1.09,1.79,1.79,0,0,0,.76.78,2.57,2.57,0,0,0,2.38,0,1.81,1.81,0,0,0,.77-.78,3.8,3.8,0,0,0,.23-1.53V27.91a1.63,1.63,0,0,0-.57-1.24,2.18,2.18,0,0,0-1.5-.53"/>
        <path id="Path_107693" data-name="Path 107693" class="cls-19" d="M449.13,28.3h0a2,2,0,0,0-.63-.26l.06-.29a1.06,1.06,0,0,0-.43-1.07c-.2-.13-.2-.21-.2-.25a.29.29,0,0,0-.27-.29h-.77a.3.3,0,0,0-.28.28,1,1,0,0,0,.56,1,.26.26,0,0,1,.18.3V28a2,2,0,0,0-.79.29,1.8,1.8,0,0,0-.7.84,3.34,3.34,0,0,0,0,2.56,2,2,0,0,0,.8.88,2.39,2.39,0,0,0,2.32,0,2,2,0,0,0,.8-.88,3,3,0,0,0,.27-1.31,3.16,3.16,0,0,0-.24-1.25,1.85,1.85,0,0,0-.68-.83m-.39,2.09a1.49,1.49,0,0,1-.27,1,.9.9,0,0,1-1.27,0h0a2,2,0,0,1,0-2,1,1,0,0,1,.74-.27.72.72,0,0,1,.58.28,1.48,1.48,0,0,1,.26,1"/>
        <path id="Path_107694" data-name="Path 107694" class="cls-19" d="M454,26.61h0a2,2,0,0,0-2.57,0,2.7,2.7,0,0,0-.72,1.23,5.3,5.3,0,0,0-.22,1.48,10.26,10.26,0,0,0,.76,3.27.27.27,0,0,0,.26.18h.84a.3.3,0,0,0,.28-.28.24.24,0,0,0,0-.12,7.51,7.51,0,0,1-.81-3.15,3.15,3.15,0,0,1,.3-1.48c.18-.32.37-.46.62-.46s.44.14.62.46a3,3,0,0,1,.3,1.48,7.71,7.71,0,0,1-.78,3.16.29.29,0,0,0,.13.37h.93a.27.27,0,0,0,.26-.18,10.25,10.25,0,0,0,.76-3.28,5.3,5.3,0,0,0-.22-1.48,2.81,2.81,0,0,0-.72-1.22"/>
        <path id="Path_107695" data-name="Path 107695" class="cls-19" d="M459.3,28.83h0a1.4,1.4,0,0,1-.43-1.18.3.3,0,0,0-.28-.28h-.73a.27.27,0,0,0-.28.26h0a2.25,2.25,0,0,0,.62,1.73,1.27,1.27,0,0,1,.44.93,1.75,1.75,0,0,1-.28,1.09.8.8,0,0,1-.65.31.83.83,0,0,1-.66-.31,1.74,1.74,0,0,1-.3-1.17V26.44a.3.3,0,0,0-.28-.28h-.7a.27.27,0,0,0-.28.26h0v3.81a3.16,3.16,0,0,0,.26,1.39,2,2,0,0,0,.8.93,2.28,2.28,0,0,0,2.34,0,2.13,2.13,0,0,0,.8-.93,3.39,3.39,0,0,0,.26-1.3,1.82,1.82,0,0,0-.64-1.48"/>
        <path id="Path_107696" data-name="Path 107696" class="cls-19" d="M396.64,38.42h0a2,2,0,0,0-2.57,0,2.68,2.68,0,0,0-.71,1.23,5,5,0,0,0-.23,1.48,10.53,10.53,0,0,0,.76,3.27.28.28,0,0,0,.27.18H395a.27.27,0,0,0,.28-.26h0v-.14a7.36,7.36,0,0,1-.81-3.15,2.92,2.92,0,0,1,.3-1.48c.17-.32.37-.46.61-.46s.44.14.62.46a2.92,2.92,0,0,1,.3,1.48,7.86,7.86,0,0,1-.77,3.16.26.26,0,0,0,.1.35h.95a.28.28,0,0,0,.26-.19,10.55,10.55,0,0,0,.77-3.27,5.31,5.31,0,0,0-.23-1.48,2.79,2.79,0,0,0-.71-1.22"/>
        <path id="Path_107697" data-name="Path 107697" class="cls-19" d="M401.59,40.07a2.35,2.35,0,0,0-1.24-.3,1.86,1.86,0,0,0-1,.27v-.46a.59.59,0,0,1,.06-.32,1.33,1.33,0,0,1,.56-.07h1.86a.27.27,0,0,0,.28-.26h0v-.65a.3.3,0,0,0-.28-.28h-1.68a2.55,2.55,0,0,0-1.57.37,1.46,1.46,0,0,0-.49,1.21v2.61a3.17,3.17,0,0,0,.26,1.32,2,2,0,0,0,.8.87,2.36,2.36,0,0,0,2.33,0,2,2,0,0,0,.8-.87,3,3,0,0,0,.27-1.32,3.35,3.35,0,0,0-.24-1.25,2,2,0,0,0-.75-.87m-1.92,1.15a.92.92,0,0,1,.68-.29.8.8,0,0,1,.65.28,2,2,0,0,1,0,2,.8.8,0,0,1-.65.28,1,1,0,0,1-.68-.28,1.48,1.48,0,0,1-.28-1,1.37,1.37,0,0,1,.28-1"/>
        <path id="Path_107698" data-name="Path 107698" class="cls-19" d="M406.93,40.65a1.43,1.43,0,0,1-.43-1.19.3.3,0,0,0-.28-.28h-.73a.3.3,0,0,0-.28.28h0a2.22,2.22,0,0,0,.62,1.73,1.22,1.22,0,0,1,.43.93,1.62,1.62,0,0,1-.28,1.09.77.77,0,0,1-.64.31.88.88,0,0,1-.67-.32,1.77,1.77,0,0,1-.3-1.16V38.25a.27.27,0,0,0-.26-.28h-.72a.3.3,0,0,0-.28.28V42a3.45,3.45,0,0,0,.26,1.38,2.21,2.21,0,0,0,.8.94,2.28,2.28,0,0,0,2.34,0,2,2,0,0,0,.8-.94,3.22,3.22,0,0,0,.27-1.3,1.8,1.8,0,0,0-.64-1.47"/>
        <path id="Path_107699" data-name="Path 107699" class="cls-19" d="M411.43,38.33a.27.27,0,0,0-.19-.33h-.77a.3.3,0,0,0-.28.28v.07a2.65,2.65,0,0,0-1.48.89,3.94,3.94,0,0,0,.05,4.55,2.79,2.79,0,0,0,3.94.21h.06l.17-.16a3.57,3.57,0,0,0,.74-2.31,3.4,3.4,0,0,0-.7-2.24,2.63,2.63,0,0,0-1.5-.9M410.15,42a.3.3,0,0,0,.08.2h0a.25.25,0,0,0,.2.09h.76a.3.3,0,0,0,.28-.28h0l-.09-2.46a1.5,1.5,0,0,1,.55.48,3.08,3.08,0,0,1,0,3,1.26,1.26,0,0,1-1.07.52,1.23,1.23,0,0,1-1.07-.53,3.16,3.16,0,0,1-.09-3,1.47,1.47,0,0,1,.55-.47Z"/>
        <path id="Path_107700" data-name="Path 107700" class="cls-19" d="M417.6,38.42h0a2,2,0,0,0-2.57,0,2.68,2.68,0,0,0-.71,1.23,5,5,0,0,0-.23,1.48,10.26,10.26,0,0,0,.76,3.27.27.27,0,0,0,.26.18H416a.27.27,0,0,0,.28-.26h0a.24.24,0,0,0,0-.12,7.66,7.66,0,0,1-.81-3.15,3.15,3.15,0,0,1,.3-1.48c.18-.32.37-.46.62-.46s.44.14.62.46a3,3,0,0,1,.3,1.48,7.71,7.71,0,0,1-.78,3.16.29.29,0,0,0,.14.37h.92a.28.28,0,0,0,.26-.19,10,10,0,0,0,.77-3.27,5.3,5.3,0,0,0-.22-1.48,2.79,2.79,0,0,0-.72-1.23"/>
        <path id="Path_107701" data-name="Path 107701" class="cls-19" d="M422.4,38.33a.28.28,0,0,0-.21-.33h-.75a.3.3,0,0,0-.28.28v.07a2.65,2.65,0,0,0-1.48.89,3.94,3.94,0,0,0,.05,4.55,2.81,2.81,0,0,0,3.95.16l.17-.16a3.51,3.51,0,0,0,.74-2.31,3.4,3.4,0,0,0-.7-2.24,2.63,2.63,0,0,0-1.5-.9M421.12,42a.3.3,0,0,0,.08.2h0a.25.25,0,0,0,.2.09h.76a.3.3,0,0,0,.28-.28h0l-.09-2.46a1.5,1.5,0,0,1,.55.48,3,3,0,0,1,0,3,1.35,1.35,0,0,1-1.89.25,1,1,0,0,1-.25-.25,2.6,2.6,0,0,1-.43-1.53,2.42,2.42,0,0,1,.39-1.46,1.5,1.5,0,0,1,.55-.48Z"/>
        <path id="Path_107702" data-name="Path 107702" class="cls-19" d="M429.28,38.34h0a1.6,1.6,0,0,0-1-.39,1.58,1.58,0,0,0-1,.33,1.2,1.2,0,0,0-.79-.29H426a.57.57,0,0,1-.33-.11.28.28,0,0,0-.39.08h0l-.21.53a.27.27,0,0,0,.11.34,1.47,1.47,0,0,0,.84.24h.55a.11.11,0,0,1,0,.08v1.5a.3.3,0,0,0,.28.28h.71a.3.3,0,0,0,.28-.28V39.2a.11.11,0,0,1,.06-.09.5.5,0,0,1,.27-.08.35.35,0,0,1,.22.08.18.18,0,0,1,.07.15V42a5,5,0,0,1-.06.94.63.63,0,0,1-.26.34,1.11,1.11,0,0,1-.64.16,1,1,0,0,1-.67-.24.64.64,0,0,1-.25-.54,1,1,0,0,1,.21-.71.28.28,0,0,0,0-.4h-.08l-.68-.3a.29.29,0,0,0-.36.11,2.43,2.43,0,0,0-.39,1.13,2.4,2.4,0,0,0,.23,1.09,1.81,1.81,0,0,0,.77.78,2.8,2.8,0,0,0,2.46,0,1.71,1.71,0,0,0,.76-.79,3.69,3.69,0,0,0,.24-1.54V39.29a1.24,1.24,0,0,0-.49-.95"/>
        <path id="Path_107703" data-name="Path 107703" class="cls-19" d="M433.71,38.33a.31.31,0,0,0,0-.23.27.27,0,0,0-.22-.11h-.69a.3.3,0,0,0-.28.28v.07a2.65,2.65,0,0,0-1.48.89,3.4,3.4,0,0,0-.7,2.24,3.46,3.46,0,0,0,.74,2.31,2.8,2.8,0,0,0,3.95.33l.05,0h0l.16-.16a3.43,3.43,0,0,0,.76-2.4,3.3,3.3,0,0,0-.7-2.24,2.63,2.63,0,0,0-1.5-.9M432.43,42a.25.25,0,0,0,.07.2h0a.25.25,0,0,0,.2.09h.77a.3.3,0,0,0,.28-.28h0l-.1-2.46a1.37,1.37,0,0,1,.56.48,3,3,0,0,1,0,3,1.41,1.41,0,0,1-2,.26l0,0h0A1.39,1.39,0,0,1,432,43a2.52,2.52,0,0,1-.42-1.53A2.57,2.57,0,0,1,432,40a1.59,1.59,0,0,1,.56-.47Z"/>
        <path id="Path_107704" data-name="Path 107704" class="cls-19" d="M439.88,38.42h0a2,2,0,0,0-2.58,0,2.83,2.83,0,0,0-.71,1.23,5.31,5.31,0,0,0-.23,1.48,10.55,10.55,0,0,0,.77,3.27.27.27,0,0,0,.26.18h.84a.3.3,0,0,0,.28-.28.24.24,0,0,0,0-.12A7.35,7.35,0,0,1,437.7,41a3,3,0,0,1,.3-1.48c.17-.32.37-.46.61-.46a.72.72,0,0,1,.62.46,2.92,2.92,0,0,1,.3,1.48,7.7,7.7,0,0,1-.77,3.16.26.26,0,0,0,.1.35h.95a.29.29,0,0,0,.27-.19,10.53,10.53,0,0,0,.76-3.27,5,5,0,0,0-.23-1.48,2.65,2.65,0,0,0-.71-1.22"/>
      </g>
    </g>
  </g>
  <path id="search_FILL0_wght400_GRAD0_opsz48" data-name="search FILL0 wght400 GRAD0 opsz48" class="cls-20" d="M500.89,24.12l-7.35-7.35a6.19,6.19,0,0,1-2,1.13,7.23,7.23,0,0,1-7.49-1.69A6.9,6.9,0,0,1,482,11.15a6.86,6.86,0,0,1,2.1-5.05A6.91,6.91,0,0,1,489.17,4a6.79,6.79,0,0,1,5.06,2.1,6.92,6.92,0,0,1,2.08,5.06,6.94,6.94,0,0,1-1.57,4.41l7.38,7.32Zm-11.71-7.49a5.5,5.5,0,0,0,5.41-5.5A5.29,5.29,0,0,0,493,7.28a5.21,5.21,0,0,0-3.86-1.6,5.45,5.45,0,0,0-5.5,5.4h0v.07a5.22,5.22,0,0,0,1.6,3.87,5.3,5.3,0,0,0,3.94,1.61Z"/>
  <path id="Path_107663" data-name="Path 107663" class="cls-21" d="M15.63,89.94l.65-4.07H12.43V83c0-1.16.44-2,2.18-2H16.5V77.29A22.93,22.93,0,0,0,13.3,77c-3.3,0-5.67,2-5.67,5.67v3.2H4v4.07H7.63v10.24a13.35,13.35,0,0,0,4.8,0V89.94Z"/>
  <path id="icons8-youtube" class="cls-21" d="M52.9,83.88a3,3,0,0,0-2.35-2.25A46.8,46.8,0,0,0,42.19,81a47.47,47.47,0,0,0-8.42.63,2.9,2.9,0,0,0-2.35,2.25A33.46,33.46,0,0,0,31,89.36a28.88,28.88,0,0,0,.47,5.49,3,3,0,0,0,2.35,2.25,47.47,47.47,0,0,0,8.42.63,47.47,47.47,0,0,0,8.42-.63A2.89,2.89,0,0,0,53,94.85a40.47,40.47,0,0,0,.52-5.49A36.06,36.06,0,0,0,52.9,83.88ZM39.36,93V85.7l6.38,3.66Z"/>
  <path id="Path_107664" data-name="Path 107664" class="cls-1" d="M66,78H90v24H66Z"/>
  <path id="Path_107665" data-name="Path 107665" class="cls-22" d="M71,90H85"/>
  <path id="Path_107666" data-name="Path 107666" class="cls-22" d="M81,94l4-4"/>
  <path id="Path_107667" data-name="Path 107667" class="cls-22" d="M81,86l4,4"/>
  <g id="Group_30" data-name="Group 30">
    <path id="Path_107669" data-name="Path 107669" class="cls-23" d="M101.06,94.47l5.21-5.2"/>
    <path id="Path_107670" data-name="Path 107670" class="cls-23" d="M101.06,84.06l5.21,5.21"/>
  </g>
  <path id="mail_FILL1_wght400_GRAD0_opsz48" data-name="mail FILL1 wght400 GRAD0 opsz48" class="cls-21" d="M125.32,95.05A1.38,1.38,0,0,1,124,93.72V82.31A1.39,1.39,0,0,1,125.32,81h14.92a1.37,1.37,0,0,1,1.32,1.32v11.4a1.38,1.38,0,0,1-1.32,1.33Zm7.46-6.63,7.46-4.89V82.32l-7.46,4.78-7.46-4.78v1.2Z"/>
  <path id="phone_in_talk_FILL1_wght400_GRAD0_opsz48" data-name="phone in talk FILL1 wght400 GRAD0 opsz48" class="cls-21" d="M174.38,88.31a7.18,7.18,0,0,0-6.91-6.91V80a8.42,8.42,0,0,1,3.2.71,8.81,8.81,0,0,1,2.6,1.79,8.67,8.67,0,0,1,1.79,2.61,8.25,8.25,0,0,1,.72,3.2Zm-4,0a3.21,3.21,0,0,0-2.93-2.9V84a4.58,4.58,0,0,1,3,1.33,4.48,4.48,0,0,1,1.34,3Zm4.4,8.59a12.75,12.75,0,0,1-5.68-1.4,20,20,0,0,1-5.1-3.65,19.29,19.29,0,0,1-3.66-5.07A12.72,12.72,0,0,1,159,81.1a1,1,0,0,1,1-1h3.33a.87.87,0,0,1,.57.22,1,1,0,0,1,.31.6l.64,3a2,2,0,0,1,0,.6.93.93,0,0,1-.24.46l-2.34,2.36A19.4,19.4,0,0,0,165.19,91a15.89,15.89,0,0,0,3.68,2.74l2.22-2.29a1.34,1.34,0,0,1,.54-.37,1.06,1.06,0,0,1,.61,0l2.79.61a1,1,0,0,1,.58.35,1,1,0,0,1,.23.65v3.16a1,1,0,0,1-.3.75,1,1,0,0,1-.74.3Z"/>
  <path id="pin_drop_FILL1_wght400_GRAD0_opsz48" data-name="pin drop FILL1 wght400 GRAD0 opsz48" class="cls-21" d="M204.11,95.76A27.9,27.9,0,0,1,198,89.84a9.6,9.6,0,0,1-2-5.54,8.13,8.13,0,0,1,.74-3.6,8,8,0,0,1,1.9-2.6A8.22,8.22,0,0,1,207,76.52a8,8,0,0,1,4.52,4.18,8.27,8.27,0,0,1,.74,3.6,9.6,9.6,0,0,1-2,5.54A28.31,28.31,0,0,1,204.11,95.76Zm0-9.55a2.11,2.11,0,0,0,0-4.21h0a2.1,2.1,0,0,0,0,4.2h0ZM196,100V98.2h16.22V100Z"/>
  <g id="Group_118" data-name="Group 118">
    <g id="Group_585" data-name="Group 585">
      <g class="cls-24">
        <g id="Group_584" data-name="Group 584">
          <path id="Path_2233" data-name="Path 2233" class="cls-25" d="M233.74,92.9a1.65,1.65,0,0,0,1.48.87,1.59,1.59,0,0,0,1.63-1.53c0-2.76-5.64-2.73-5.64-7.31a4,4,0,0,1,7.59-1.78h0a1.24,1.24,0,0,1-.5,1.64h0a1.15,1.15,0,0,1-1.56-.45h0a1.63,1.63,0,0,0-1.48-.87A1.58,1.58,0,0,0,233.61,85v0h0c0,2.71,5.64,2.75,5.64,7.31A4,4,0,0,1,231.63,94h0a1.23,1.23,0,0,1,.5-1.63h0a1.18,1.18,0,0,1,1.59.48h0Z"/>
          <path id="Path_2234" data-name="Path 2234" class="cls-26" d="M289.88,76.22h0a1.4,1.4,0,1,1-1.37,1.43h0a1.38,1.38,0,0,1,1.36-1.4h0"/>
          <path id="Path_2235" data-name="Path 2235" class="cls-26" d="M256.61,76.22h0a1.4,1.4,0,1,1-1.37,1.43h0a1.38,1.38,0,0,1,1.36-1.4h0"/>
          <path id="Path_2236" data-name="Path 2236" class="cls-25" d="M281.56,86.15V91a2.38,2.38,0,0,1-4.75.09v-5a2.38,2.38,0,1,1,4.69-.79,1.52,1.52,0,0,1,0,.21v.58m-2.38-4.88h0a4.82,4.82,0,0,0-4.75,4.88V91a4.75,4.75,0,0,0,9.5.23.89.89,0,0,0,0-.23V77.62a1.19,1.19,0,0,0-2.35-.39v4.7a4.64,4.64,0,0,0-2.38-.66Z"/>
          <path id="Path_2237" data-name="Path 2237" class="cls-25" d="M266.11,81.27h0a4.84,4.84,0,0,1,4.76,4.88v8.53a1.19,1.19,0,1,1-2.38,0h0V86.15a2.38,2.38,0,0,0-4.69-.79,1.52,1.52,0,0,0,0,.21v.19a1.41,1.41,0,0,0,0,.29v8.63a1.2,1.2,0,0,1-1.14,1.24,1.19,1.19,0,0,1-1.24-1.14h0V86.15a4.82,4.82,0,0,1,4.75-4.88"/>
          <path id="Path_2238" data-name="Path 2238" class="cls-25" d="M247.1,81.27h0a4.84,4.84,0,0,1,4.76,4.88v8.53a1.2,1.2,0,0,1-1.14,1.24,1.19,1.19,0,0,1-1.24-1.14h0V86.15a2.38,2.38,0,0,0-4.69-.79,1.52,1.52,0,0,0,0,.21v9.11a1.2,1.2,0,0,1-1.14,1.24,1.19,1.19,0,0,1-1.24-1.14h0V77.62a1.19,1.19,0,0,1,2.38-.1h0v4.41a4.6,4.6,0,0,1,2.37-.66"/>
        </g>
      </g>
    </g>
  </g>
  <g id="Group_605" data-name="Group 605">
    <path id="Path_107709" data-name="Path 107709" class="cls-27" d="M306.75,81.47v1.72a1.72,1.72,0,0,1,1.72-1.72h10.31a1.72,1.72,0,0,1,1.71,1.72h0v10.3a1.72,1.72,0,0,1-1.71,1.72H308.47a1.72,1.72,0,0,1-1.72-1.72h0Z"/>
    <path id="Path_107710" data-name="Path 107710" class="cls-27" d="M317.06,79.75v3.44"/>
    <path id="Path_107711" data-name="Path 107711" class="cls-27" d="M310.19,79.75v3.44"/>
    <path id="Path_107712" data-name="Path 107712" class="cls-27" d="M306.75,86.62H320.5"/>
    <path id="Path_107713" data-name="Path 107713" class="cls-27" d="M310.19,90.06h1.71v1.72h-1.71Z"/>
  </g>
  <path id="download_FILL0_wght400_GRAD0_opsz48" data-name="download FILL0 wght400 GRAD0 opsz48" class="cls-28" d="M347.2,93l-5.55-5.55,1.24-1.23,3.45,3.45V79h1.72V89.67l3.45-3.45,1.24,1.23Zm-7.47,4.4A1.79,1.79,0,0,1,338,95.67V91.56h1.73v4.11h14.95V91.56h1.72v4.11a1.78,1.78,0,0,1-1.72,1.73Z"/>
  <g id="Group_626" data-name="Group 626">
    <path id="Path_107665-2" data-name="Path 107665" class="cls-29" d="M380,88.37h31.35"/>
    <path id="Path_107666-2" data-name="Path 107666" class="cls-29" d="M402.39,97.33l9-9"/>
    <path id="Path_107667-2" data-name="Path 107667" class="cls-29" d="M402.39,79.41l9,9"/>
  </g>
</svg>
