<svg xmlns="http://www.w3.org/2000/svg" xmlns:xlink="http://www.w3.org/1999/xlink" width="60.452" height="20.421" viewBox="0 0 60.452 20.421">
  <defs>
    <clipPath id="clip-path">
      <rect id="Rectangle_160" data-name="Rectangle 160" width="60.452" height="20.421"/>
    </clipPath>
  </defs>
  <g id="Group_118" data-name="Group 118" transform="translate(-453.074 -898.806)">
    <g id="Group_585" data-name="Group 585" transform="translate(453.074 898.806)">
      <g id="Group_584" data-name="Group 584" transform="translate(0 0)" clip-path="url(#clip-path)">
        <path id="Path_2233" data-name="Path 2233" d="M456.608,933.844a1.649,1.649,0,0,0,1.476.871,1.586,1.586,0,0,0,1.634-1.524c0-2.766-5.644-2.733-5.644-7.314a4.019,4.019,0,0,1,7.591-1.784l0,.005a1.231,1.231,0,0,1-.5,1.637l-.01.006a1.17,1.17,0,0,1-1.6-.511l0-.005a1.649,1.649,0,0,0-1.477-.871,1.586,1.586,0,0,0-1.634,1.524c0,2.712,5.644,2.747,5.644,7.314a4.019,4.019,0,0,1-7.591,1.785l0-.005a1.231,1.231,0,0,1,.5-1.637l.01-.006a1.17,1.17,0,0,1,1.6.511Z" transform="translate(-453.864 -916.947)" fill-rule="evenodd"/>
        <path id="Path_2234" data-name="Path 2234" d="M728.841,899.806h0a1.4,1.4,0,1,1-1.367,1.4,1.388,1.388,0,0,1,1.367-1.4" transform="translate(-669.965 -899.591)" fill="#ff004d" fill-rule="evenodd"/>
        <path id="Path_2235" data-name="Path 2235" d="M570.1,899.806h0a1.4,1.4,0,1,1-1.366,1.4,1.388,1.388,0,0,1,1.366-1.4" transform="translate(-544.494 -899.591)" fill="#ff004d" fill-rule="evenodd"/>
        <path id="Path_2236" data-name="Path 2236" d="M667.423,910.408v4.876a2.377,2.377,0,1,1-4.753,0v-4.876a2.377,2.377,0,1,1,4.753,0m-2.376-4.876h0a4.825,4.825,0,0,0-4.753,4.876v4.876a4.754,4.754,0,1,0,9.505,0V901.875a1.189,1.189,0,1,0-2.376,0v4.313A4.63,4.63,0,0,0,665.047,905.532Z" transform="translate(-616.864 -900.258)" fill-rule="evenodd"/>
        <path id="Path_2237" data-name="Path 2237" d="M602.685,923.334h0a4.825,4.825,0,0,1,4.753,4.876v8.533a1.188,1.188,0,1,1-2.376,0V928.21a2.377,2.377,0,1,0-4.753,0v8.533a1.189,1.189,0,1,1-2.376,0V928.21a4.825,4.825,0,0,1,4.753-4.876" transform="translate(-567.572 -918.06)" fill-rule="evenodd"/>
        <path id="Path_2238" data-name="Path 2238" d="M511.976,905.532h0a4.825,4.825,0,0,1,4.753,4.876v8.533a1.189,1.189,0,1,1-2.376,0v-8.533a2.377,2.377,0,1,0-4.753,0v8.533a1.189,1.189,0,1,1-2.376,0V901.875a1.189,1.189,0,1,1,2.376,0v4.313a4.63,4.63,0,0,1,2.376-.656" transform="translate(-495.874 -900.258)" fill-rule="evenodd"/>
      </g>
    </g>
  </g>
</svg>
