<svg xmlns="http://www.w3.org/2000/svg" width="15.245" height="16.963" viewBox="0 0 15.245 16.963">
  <g id="Group_605" data-name="Group 605" transform="translate(-2.686 -1.827)">
    <path id="Path_107709" data-name="Path 107709" d="M4,5,4,6.718A1.718,1.718,0,0,1,5.718,5H16.026a1.718,1.718,0,0,1,1.718,1.718V17.026a1.718,1.718,0,0,1-1.718,1.718H5.718A1.718,1.718,0,0,1,4,17.026Z" transform="translate(-0.564 -0.705)" fill="none" stroke="#707070" stroke-linecap="round" stroke-linejoin="round" stroke-width="1.5"/>
    <path id="Path_107710" data-name="Path 107710" d="M16,3V6.436" transform="translate(-2.255 -0.423)" fill="none" stroke="#707070" stroke-linecap="round" stroke-linejoin="round" stroke-width="1.5"/>
    <path id="Path_107711" data-name="Path 107711" d="M8,3V6.436" transform="translate(-1.128 -0.423)" fill="none" stroke="#707070" stroke-linecap="round" stroke-linejoin="round" stroke-width="1.5"/>
    <path id="Path_107712" data-name="Path 107712" d="M4,11H17.745" transform="translate(-0.564 -1.551)" fill="none" stroke="#707070" stroke-linecap="round" stroke-linejoin="round" stroke-width="1.5"/>
    <path id="Path_107713" data-name="Path 107713" d="M8,15H9.718v1.718H8Z" transform="translate(-1.128 -2.114)" fill="none" stroke="#707070" stroke-linecap="round" stroke-linejoin="round" stroke-width="1.5"/>
  </g>
</svg>
