<svg xmlns="http://www.w3.org/2000/svg" width="22.531" height="16.728" viewBox="0 0 22.531 16.728">
  <path id="icons8-youtube" d="M24.9,11.875A2.97,2.97,0,0,0,22.55,9.627,46.512,46.512,0,0,0,14.186,9a47.2,47.2,0,0,0-8.415.627,2.9,2.9,0,0,0-2.352,2.248A34.3,34.3,0,0,0,3,17.364a28.451,28.451,0,0,0,.47,5.489A2.975,2.975,0,0,0,5.822,25.1a48.088,48.088,0,0,0,8.417.627,48.088,48.088,0,0,0,8.417-.627,2.9,2.9,0,0,0,2.352-2.248,40.107,40.107,0,0,0,.523-5.489A36.583,36.583,0,0,0,24.9,11.875ZM11.364,21.023V13.7l6.377,3.659Z" transform="translate(-3 -9)" fill="#156fc5"/>
</svg>
