<svg xmlns="http://www.w3.org/2000/svg" width="17.559" height="14.047" viewBox="0 0 17.559 14.047">
  <path id="mail_FILL1_wght400_GRAD0_opsz48" d="M81.317-785.953a1.263,1.263,0,0,1-.922-.4,1.263,1.263,0,0,1-.4-.922v-11.413a1.264,1.264,0,0,1,.4-.922,1.264,1.264,0,0,1,.922-.4H96.242a1.264,1.264,0,0,1,.922.4,1.264,1.264,0,0,1,.4.922v11.413a1.263,1.263,0,0,1-.4.922,1.263,1.263,0,0,1-.922.4Zm7.462-6.628,7.462-4.894v-1.207L88.779-793.9l-7.462-4.785v1.207Z" transform="translate(-80 800)" fill="#156fc5"/>
</svg>
