<svg xmlns="http://www.w3.org/2000/svg" width="16.85" height="16.897" viewBox="0 0 16.85 16.897">
  <path id="phone_in_talk_FILL1_wght400_GRAD0_opsz48" d="M135.376-833.692a6.978,6.978,0,0,0-2.095-4.809,6.977,6.977,0,0,0-4.809-2.095V-842a8.278,8.278,0,0,1,3.194.714,8.686,8.686,0,0,1,2.609,1.79,8.683,8.683,0,0,1,1.79,2.609,8.276,8.276,0,0,1,.714,3.195Zm-3.978,0a3.129,3.129,0,0,0-.936-1.978,3.2,3.2,0,0,0-1.989-.924V-838a4.534,4.534,0,0,1,2.984,1.334,4.465,4.465,0,0,1,1.346,2.972Zm4.4,8.589a12.623,12.623,0,0,1-5.675-1.4,19.268,19.268,0,0,1-5.067-3.651,19.266,19.266,0,0,1-3.651-5.067A12.623,12.623,0,0,1,120-840.9a1.018,1.018,0,0,1,.3-.749,1.018,1.018,0,0,1,.749-.3h3.276a.827.827,0,0,1,.573.222,1.034,1.034,0,0,1,.316.6l.632,2.949a1.684,1.684,0,0,1-.012.6.9.9,0,0,1-.246.456l-2.34,2.364a19.426,19.426,0,0,0,2.937,3.791,16.232,16.232,0,0,0,3.686,2.738l2.223-2.294a1.294,1.294,0,0,1,.538-.363,1.08,1.08,0,0,1,.608-.035l2.785.608a1,1,0,0,1,.585.351.992.992,0,0,1,.234.655v3.159a1.018,1.018,0,0,1-.3.749A1.018,1.018,0,0,1,135.8-825.1Z" transform="translate(-120 842)" fill="#156fc5" style="mix-blend-mode: multiply;isolation: isolate"/>
</svg>
