<svg xmlns="http://www.w3.org/2000/svg" width="16.219" height="24.029" viewBox="0 0 16.219 24.029">
  <path id="pin_drop_FILL1_wght400_GRAD0_opsz48" d="M218.11-860.236A28.094,28.094,0,0,1,212-866.159a9.624,9.624,0,0,1-2-5.543,8.285,8.285,0,0,1,.736-3.6,8.137,8.137,0,0,1,1.907-2.6,7.974,7.974,0,0,1,2.613-1.577,8.288,8.288,0,0,1,2.853-.526,8.293,8.293,0,0,1,2.854.526,7.973,7.973,0,0,1,2.613,1.577,8.133,8.133,0,0,1,1.907,2.6,8.3,8.3,0,0,1,.736,3.6,9.6,9.6,0,0,1-2,5.543A28.175,28.175,0,0,1,218.11-860.236Zm0-9.551a2.019,2.019,0,0,0,1.484-.618,2.032,2.032,0,0,0,.616-1.487,2.018,2.018,0,0,0-.618-1.484,2.031,2.031,0,0,0-1.487-.616,2.018,2.018,0,0,0-1.484.618,2.031,2.031,0,0,0-.616,1.487,2.018,2.018,0,0,0,.618,1.484A2.031,2.031,0,0,0,218.112-869.788ZM210-855.971v-1.8h16.219v1.8Z" transform="translate(-210 880)" fill="#156fc5" style="mix-blend-mode: multiply;isolation: isolate"/>
</svg>
