<svg xmlns="http://www.w3.org/2000/svg" xmlns:xlink="http://www.w3.org/1999/xlink" width="121.942" height="49.457" viewBox="0 0 121.942 49.457">
  <defs>
    <clipPath id="clip-path">
      <rect id="Rectangle_52" data-name="Rectangle 52" width="121.942" height="49.457" fill="none"/>
    </clipPath>
  </defs>
  <g id="samoqalaqo" transform="translate(0 -10)">
    <g id="Group_66" data-name="Group 66" transform="translate(0 10)" clip-path="url(#clip-path)">
      <path id="Path_107672" data-name="Path 107672" d="M41.133,11.194A18.245,18.245,0,0,0,31.48,4.925l-.031-.008a18.161,18.161,0,0,0-3.554-.543h-.016l-.953-.029h-5.7V.845A.845.845,0,0,0,20.386,0H11.7a.8.8,0,0,0-.112.008l-.025,0a.864.864,0,0,0-.224.071l-.018.009a.624.624,0,0,0-.1.059.085.085,0,0,0-.014.01.706.706,0,0,0-.083.069l-.013.012a.854.854,0,0,0-.077.088.04.04,0,0,1-.009.008l-3,4.005H4.1a.859.859,0,0,0-.114.008l-.024,0a.84.84,0,0,0-.224.071l-.018.009a.716.716,0,0,0-.1.059.114.114,0,0,0-.013.01.706.706,0,0,0-.083.069l-.014.012a.932.932,0,0,0-.077.088l-.009.009L.169,9.024A.846.846,0,0,0,0,9.53v8.685c0,.006,0,.012,0,.018,0,.028,0,.055.007.083s0,.029,0,.042a.913.913,0,0,0,.023.1c0,.009,0,.018.007.026a.725.725,0,0,0,.046.113l0,0a.24.24,0,0,0,.014.024.885.885,0,0,0,.05.082c.009.012.018.022.027.033a.643.643,0,0,0,.053.063c.011.012.023.022.033.033a.616.616,0,0,0,.058.05c.013.011.026.02.041.03s.041.027.063.04l.045.023c.024.012.048.021.074.031l.029.012a.049.049,0,0,0,.015,0,.706.706,0,0,0,.088.022l.037.009a.892.892,0,0,0,.125.01H7.6A20.972,20.972,0,0,0,8.1,23.937a21.442,21.442,0,0,0,19.783,16.8c.129.007.3.015.5.019.539.013,1.289.017,2.011.017l1.091,0v7.84c0,.006,0,.012,0,.018,0,.028,0,.054.008.082s0,.029,0,.043a.867.867,0,0,0,.021.092c0,.009.005.02.009.03a.736.736,0,0,0,.046.112v0c0,.01.012.019.017.028a.77.77,0,0,0,.049.079c.008.012.018.022.026.034s.034.042.053.061.023.022.034.033a.528.528,0,0,0,.058.049.469.469,0,0,0,.041.03.7.7,0,0,0,.063.04l.045.023c.024.012.048.021.074.031.01,0,.018.009.029.012a.049.049,0,0,0,.015,0,.7.7,0,0,0,.088.022l.037.009a.876.876,0,0,0,.125.01h8.686a.843.843,0,0,0,.676-.338l3.257-4.342.007-.011a.786.786,0,0,0,.057-.087v0a1.008,1.008,0,0,0,.045-.1.219.219,0,0,0,.007-.021.6.6,0,0,0,.026-.087.084.084,0,0,0,0-.017.944.944,0,0,0,.017-.1.1.1,0,0,1,0-.017c0-.021,0-.041,0-.063V22.558a18.067,18.067,0,0,0-3.982-11.364M12.545,1.69h7V4.344h-7ZM1.689,9.812l1.568-2.09v5.871L1.689,15.682Zm27.58,29.271c-.544,0-1.021-.013-1.286-.029A19.7,19.7,0,0,1,10.666,26.5,19.465,19.465,0,0,1,9.4,21.474a16.6,16.6,0,0,1,1.424-1.909,18.341,18.341,0,0,0,.955,5.493c.033.1.066.2.1.3l.047.13q.085.233.175.464a.292.292,0,0,1,.014.034c.067.17.139.34.211.509l.017.037c.02.046.04.092.062.138.047.11.1.219.149.327.016.035.032.07.048.1.059.124.121.246.182.369l.1.192c.018.034.035.069.053.1l.05.091c.045.084.089.168.136.251,0,0,0,.011.009.017s0,0,0,0c.009.018.02.035.03.053q.174.31.36.614c.014.024.03.047.045.071.051.083.1.166.156.249.256.4.526.786.807,1.158l.072.1.015.018c.071.091.142.184.215.275l0,0a.189.189,0,0,0,.016.017.485.485,0,0,0,.031.041c.01.011.019.023.028.034a.5.5,0,0,0,.031.038c.064.08.129.157.2.237l.034.04c.085.1.175.2.27.313l.019.021q.194.217.395.428c.041.044.082.084.123.127.1.1.2.2.294.3l.074.075c.058.056.114.11.169.162l.029.027c.114.107.225.211.338.313l.022.019.084.076c.091.08.174.151.252.218l.049.042c.13.111.251.21.367.3l.023.02.006,0h0c.168.134.338.264.509.392l.118.088c.159.117.321.23.484.343l.156.1c.15.1.3.2.451.293l.159.1q.212.13.427.253c.054.032.11.065.165.1.141.08.283.158.425.233l.011.006.023.012.058.029c.071.037.142.073.213.109.124.061.249.123.376.183l.25.117c.122.055.244.109.367.161.08.034.16.069.239.1.2.082.4.162.6.238h.007l.03.012c.344.126.693.245,1.046.351.1.029.193.055.289.082.08.023.159.047.24.069.144.039.29.075.434.11l.1.025c.146.034.292.065.438.1l.1.023c.126.025.255.05.384.073l.168.031c.1.017.194.03.292.046l.272.043.168.02c.119.016.238.032.357.046s.282.032.439.045l.047,0c.049,0,.1.009.152.011l.2.013H27.9c.613.034,1.337.042,2.048.044h.3q-.519.762-.981,1.562m3.9,7V36.672a.817.817,0,0,0-.015-.154s0-.01,0-.015,0-.018-.007-.027a.844.844,0,0,0-.81-.648h-.831l-.458,0h-.277c-.662,0-1.384,0-2.035-.011-.326-.007-.633-.018-.908-.036l-.1-.007-.077-.007c-.124-.009-.24-.021-.344-.035l-.018,0c-.13-.013-.259-.03-.388-.047l-.139-.018-.252-.039c-.088-.015-.176-.027-.263-.043-.048-.007-.1-.018-.143-.026-.121-.022-.242-.044-.361-.068l-.073-.016c-.141-.03-.282-.06-.422-.094-.019,0-.039-.01-.059-.015q-.215-.05-.428-.109c-.124-.034-.249-.07-.372-.106l-.111-.031q-.489-.148-.967-.327l-.024-.009-.013,0c-.176-.066-.35-.135-.523-.207l-.215-.092c-.11-.047-.218-.1-.327-.145l-.22-.1c-.118-.057-.237-.115-.353-.174l-.169-.086c-.161-.083-.321-.17-.479-.258l-.145-.083c-.128-.074-.256-.15-.381-.227l-.139-.085c-.138-.087-.275-.175-.411-.267l-.141-.094c-.145-.1-.29-.2-.432-.305l-.109-.079c-.153-.115-.3-.23-.455-.349,0,0,0,0,0,0l0,0a.272.272,0,0,0-.024-.02c-.113-.092-.227-.185-.338-.279-.013-.011-.028-.024-.042-.035q-.157-.134-.311-.272l-.018-.017c-.1-.092-.2-.186-.3-.28l-.04-.036c-.076-.073-.151-.148-.227-.221s-.176-.177-.264-.268l-.116-.119q-.181-.19-.353-.385c-.09-.1-.179-.2-.267-.306l-.032-.038c-.093-.111-.185-.223-.275-.335s-.174-.226-.26-.339c-.054-.073-.111-.142-.164-.216s-.105-.15-.157-.223c-.079-.111-.159-.222-.235-.335-.087-.129-.17-.263-.255-.4-.036-.059-.076-.116-.111-.175q-.181-.294-.35-.6a.209.209,0,0,0-.016-.028c-.051-.093-.1-.187-.151-.281l-.083-.159c-.031-.062-.063-.123-.093-.184-.062-.122-.122-.245-.181-.368-.017-.039-.035-.076-.052-.115-.067-.142-.13-.287-.193-.432l-.038-.091c-.058-.138-.114-.276-.168-.416l-.062-.159c-.035-.094-.069-.189-.1-.283-.041-.117-.083-.234-.121-.352a.114.114,0,0,1,0-.012,17.965,17.965,0,0,1-.816-6.208.265.265,0,0,0,0-.032V18.17l0-.044c0-.015,0-.028-.006-.041s0-.029-.007-.044-.006-.026-.01-.04-.009-.028-.012-.042-.009-.027-.014-.039a.113.113,0,0,0-.009-.019.131.131,0,0,0-.008-.021c-.006-.013-.011-.025-.017-.038s-.013-.025-.02-.039l-.02-.035-.025-.038c-.009-.011-.016-.023-.024-.032a.375.375,0,0,0-.029-.036l-.022-.025s0,0,0,0l0,0-.029-.028-.029-.026-.038-.029c-.01-.007-.019-.016-.03-.023l-.04-.025-.033-.019c-.015-.008-.029-.014-.043-.021l-.033-.016-.047-.018-.033-.012L11.9,17.4a.176.176,0,0,0-.032-.009l-.056-.008-.029,0a.775.775,0,0,0-.087,0H2.533l1.99-2.654H26.9c.153,0,.316.006.487.017.08,0,.16.011.24.018l.125.012c.084.01.17.021.254.033l.088.012c.1.016.208.034.311.054l.03.006a7.693,7.693,0,0,1,1.742.566c.068.03.134.063.2.1l.061.03.134.071.119.063.094.054c.05.029.1.056.149.087.029.017.056.035.084.053.052.031.1.063.152.1s.075.05.112.076.08.052.118.08c.058.041.114.082.17.124l.055.041c.15.114.3.234.439.36a7.555,7.555,0,0,1,.729.729l.029.033c.115.132.224.267.329.4l.022.029c.048.065.1.13.144.2l.06.089c.032.047.064.094.1.142s.052.081.077.122.049.076.071.115.049.084.074.126.046.077.068.117.037.071.056.106.053.1.077.146l.033.066c.031.065.064.13.094.2.054.117.1.235.153.355.007.019.015.038.022.059.041.1.08.206.116.311.006.017.011.035.017.052.037.11.072.221.1.333l.011.036q.051.179.092.359c0,.008,0,.014,0,.019a7.824,7.824,0,0,1,.176,1.182s0,.01,0,.015c.008.131.015.262.017.393a.011.011,0,0,1,0,.006c0,.074,0,.616,0,1.483v20.1l-1.149,1.532Zm.965,1.628,1.9-2.533h6.423l-1.9,2.533Zm9.288-4.282h-7V37.5c0-2.463,0-4.553,0-6.32,0-3.613,0-5.876,0-7.206V22.558c0-.21-.007-.428-.023-.667a.149.149,0,0,1,0-.02c0-.016,0-.03,0-.045-.023-.308-.063-.613-.115-.914,0-.01,0-.019-.006-.028-.026-.149-.055-.3-.089-.442l-.011-.047c-.032-.139-.068-.278-.106-.415l-.017-.06c-.028-.1-.058-.193-.089-.29-.01-.034-.021-.068-.033-.1s-.016-.047-.024-.071c-.043-.128-.09-.254-.14-.381l-.025-.065q-.083-.208-.177-.412a.111.111,0,0,0-.011-.025c-.072-.158-.151-.313-.232-.467-.027-.05-.05-.1-.078-.147a.157.157,0,0,0-.01-.018c-.108-.194-.221-.384-.342-.57-.05-.079-.1-.156-.156-.232l-.034-.05a9.077,9.077,0,0,0-.639-.812c-.125-.144-.256-.285-.392-.42l-.037-.04c-.148-.147-.3-.29-.456-.426l-.06-.052c-.154-.133-.312-.263-.474-.386l-.08-.058c-.065-.048-.129-.1-.2-.143a9.34,9.34,0,0,0-1.158-.7l-.021-.011-.026-.012c-.093-.047-.188-.093-.284-.137l-.025-.011a9.371,9.371,0,0,0-2.091-.676l-.05-.008c-.12-.024-.241-.045-.363-.064l-.125-.018c-.1-.014-.195-.025-.291-.036l-.168-.017-.142-.014-.2-.013h-.007l-.1,0q-.219-.011-.423-.011H4.946v-7H26.888l.931.029a16.369,16.369,0,0,1,3.191.486l.023.006a16.537,16.537,0,0,1,12.393,16V43.427Z" transform="translate(0 -0.001)" fill="#124582"/>
      <path id="Path_107673" data-name="Path 107673" d="M71.586,55.14a6.227,6.227,0,0,0-5.017-2.507H60.055a.845.845,0,0,0-.844.851c0,.113,0,.251,0,.4,0,.48,0,1.077.031,1.442a9.4,9.4,0,0,0,.84,3.216,9.546,9.546,0,0,0,2.378,3.183,9.391,9.391,0,0,0,2.278,1.484,11.187,11.187,0,0,0,5.143.894c.335,0,.667,0,.991-.007.395,0,.768-.009,1.119-.006a.831.831,0,0,0,.615-.257.848.848,0,0,0,.237-.622c-.01-.229,0-.77,0-1.4a23.993,23.993,0,0,0-.131-4.189,6.226,6.226,0,0,0-1.125-2.487M71.153,61.8c0,.218,0,.421-.005.606l-.3,0c-1.848.021-3.942.045-5.344-.7l-.046-.022a7.734,7.734,0,0,1-1.889-1.228,7.848,7.848,0,0,1-1.957-2.621,7.742,7.742,0,0,1-.691-2.655c-.019-.2-.024-.536-.025-.861h5.67a4.586,4.586,0,0,1,4.492,3.666c0,.02.009.039.014.058a34.822,34.822,0,0,1,.078,3.754" transform="translate(-39.669 -35.262)" fill="#124582"/>
      <path id="Path_107674" data-name="Path 107674" d="M171.108,24.936h0a1.442,1.442,0,0,1-.429-1.184.281.281,0,0,0-.28-.28h-.733a.281.281,0,0,0-.28.281,2.254,2.254,0,0,0,.621,1.725,1.235,1.235,0,0,1,.436.93,1.7,1.7,0,0,1-.28,1.093.784.784,0,0,1-.642.311.861.861,0,0,1-.668-.317,1.778,1.778,0,0,1-.3-1.168v-3.79a.28.28,0,0,0-.28-.28h-.7a.281.281,0,0,0-.28.28v3.794a3.378,3.378,0,0,0,.261,1.384,2.065,2.065,0,0,0,.8.933,2.276,2.276,0,0,0,2.341,0,2.073,2.073,0,0,0,.8-.933,3.17,3.17,0,0,0,.261-1.3,1.785,1.785,0,0,0-.64-1.476" transform="translate(-112.08 -14.911)" fill="#1c2133"/>
      <path id="Path_107675" data-name="Path 107675" d="M185.612,23.9a1.965,1.965,0,0,1-.838-1.428.281.281,0,0,0-.28-.278h-.709a.281.281,0,0,0-.28.278,2.647,2.647,0,0,0,1.01,2.077,2.332,2.332,0,0,1,.821,1.85,1.843,1.843,0,0,1-.325,1.119.81.81,0,0,1-.6.255.8.8,0,0,1-.629-.318,1.91,1.91,0,0,1-.288-1.2,3.686,3.686,0,0,1,.293-1.154.279.279,0,0,0-.12-.343l-.65-.378a.28.28,0,0,0-.218-.025.284.284,0,0,0-.17.141,3.655,3.655,0,0,0-.436,1.669,3.159,3.159,0,0,0,.58,1.911,2.045,2.045,0,0,0,3.32,0,3.073,3.073,0,0,0,.556-1.752,3.017,3.017,0,0,0-1.033-2.425" transform="translate(-122.061 -14.871)" fill="#1c2133"/>
      <path id="Path_107676" data-name="Path 107676" d="M199.3,24.036a2.363,2.363,0,0,0-1.25.3,1.9,1.9,0,0,0-.743.852,2.961,2.961,0,0,0-.239,1.229,2.921,2.921,0,0,0,.264,1.29,1.972,1.972,0,0,0,.8.859,2.437,2.437,0,0,0,2.327,0,1.972,1.972,0,0,0,.8-.86,2.92,2.92,0,0,0,.265-1.29V23.83a1.554,1.554,0,0,0-.626-1.248,2.3,2.3,0,0,0-1.488-.486,2.5,2.5,0,0,0-1.511.421,1.393,1.393,0,0,0-.6,1.18.278.278,0,0,0,.28.273h.729a.278.278,0,0,0,.28-.275.37.37,0,0,1,.165-.346,1.211,1.211,0,0,1,.652-.143,1.028,1.028,0,0,1,.643.19.49.49,0,0,1,.215.414v.507a1.8,1.8,0,0,0-.959-.281m.959,2.4a1.4,1.4,0,0,1-.286,1.006.936.936,0,0,1-.677.281.861.861,0,0,1-.651-.276,1.464,1.464,0,0,1-.272-1.012,1.433,1.433,0,0,1,.266-.981.841.841,0,0,1,.656-.275.915.915,0,0,1,.682.281,1.37,1.37,0,0,1,.281.975" transform="translate(-132.033 -14.804)" fill="#1c2133"/>
      <path id="Path_107677" data-name="Path 107677" d="M213.834,28.854h1a.28.28,0,0,0,.2-.481,4.3,4.3,0,0,1-1.515-3.042,3.117,3.117,0,0,1,.3-1.566.71.71,0,0,1,.622-.414.4.4,0,0,1,.31.11,1.276,1.276,0,0,1,.212.853v2.033a.28.28,0,0,0,.28.28h.749a.28.28,0,0,0,.281-.279l0-2.025c0-.971.4-.971.57-.971a.713.713,0,0,1,.626.414,3.12,3.12,0,0,1,.3,1.566,4.345,4.345,0,0,1-1.489,3.046.28.28,0,0,0,.2.477h.964a.28.28,0,0,0,.217-.1,5.4,5.4,0,0,0,1.415-3.315,5.131,5.131,0,0,0-.228-1.565,2.722,2.722,0,0,0-.711-1.182,1.767,1.767,0,0,0-1.248-.468,1.52,1.52,0,0,0-1.257.616,1.541,1.541,0,0,0-1.233-.616,1.767,1.767,0,0,0-1.248.468,2.728,2.728,0,0,0-.711,1.182,5.144,5.144,0,0,0-.228,1.565,5.4,5.4,0,0,0,1.415,3.315.278.278,0,0,0,.217.1" transform="translate(-142.168 -14.887)" fill="#1c2133"/>
      <path id="Path_107678" data-name="Path 107678" d="M235.969,25.82a.278.278,0,0,0-.151-.177l-.638-.3a.28.28,0,0,0-.362.121,2.939,2.939,0,0,0-.431,1.32,2.462,2.462,0,0,0,.233,1.088,1.774,1.774,0,0,0,.765.785,2.829,2.829,0,0,0,2.46,0,1.775,1.775,0,0,0,.765-.785,3.72,3.72,0,0,0,.233-1.546V22.5a.281.281,0,0,0-.28-.28h-.7a.28.28,0,0,0-.28.28v.463a1.945,1.945,0,0,0-1.133-.363,1.6,1.6,0,0,0-1.254.484,2.459,2.459,0,0,0-.415,1.648.281.281,0,0,0,.28.279h.729a.28.28,0,0,0,.28-.28,3.362,3.362,0,0,1,.073-.934c0-.013.072-.066.3-.066a1.056,1.056,0,0,1,.833.335,1.026,1.026,0,0,1,.309.646l0,1.64a4.038,4.038,0,0,1-.064.934.619.619,0,0,1-.263.344,1.1,1.1,0,0,1-.636.157.984.984,0,0,1-.673-.238.672.672,0,0,1-.253-.539,1.719,1.719,0,0,1,.24-.958.277.277,0,0,0,.037-.233" transform="translate(-157.032 -14.887)" fill="#1c2133"/>
      <path id="Path_107679" data-name="Path 107679" d="M251.744,28.93a1.926,1.926,0,0,0,1.684-.852,3.073,3.073,0,0,0,.556-1.752,3.017,3.017,0,0,0-1.033-2.425,1.962,1.962,0,0,1-.838-1.428.281.281,0,0,0-.28-.278h-.709a.281.281,0,0,0-.28.278,2.645,2.645,0,0,0,1.01,2.077,2.333,2.333,0,0,1,.821,1.85,1.845,1.845,0,0,1-.325,1.12.812.812,0,0,1-.6.255.8.8,0,0,1-.629-.318,1.909,1.909,0,0,1-.288-1.2,3.681,3.681,0,0,1,.293-1.155.279.279,0,0,0-.12-.343l-.65-.378a.279.279,0,0,0-.218-.025.283.283,0,0,0-.17.141,3.655,3.655,0,0,0-.436,1.669,3.16,3.16,0,0,0,.579,1.91,1.93,1.93,0,0,0,1.636.849" transform="translate(-167.176 -14.87)" fill="#1c2133"/>
      <path id="Path_107680" data-name="Path 107680" d="M265.656,26.9c-.077.012-.154.025-.228.039a.281.281,0,0,0-.226.275v.68a.28.28,0,0,0,.1.219.284.284,0,0,0,.237.054,10.243,10.243,0,0,1,2.266-.264,4.868,4.868,0,0,1,1.456.193c.335.106.53.256.582.446a.28.28,0,0,0,.27.207h1.009a.28.28,0,0,0,.277-.323c-.072-.464-.473-.867-1.193-1.2A7.557,7.557,0,0,0,267.5,26.7c-1.181-.595-1.781-1.323-1.784-2.165a1.489,1.489,0,0,1,.264-1,.75.75,0,0,1,.577-.278c.157,0,.526,0,.526.918V25.3a.28.28,0,0,0,.28.28h.745a.28.28,0,0,0,.28-.28V24.174c0-.959.352-.959.5-.959s.5,0,.5.959V25.3a.28.28,0,0,0,.28.28h.745a.281.281,0,0,0,.28-.28V24.174c0-.918.4-.918.574-.918a.784.784,0,0,1,.582.263,1.483,1.483,0,0,1,.259,1.015,2.331,2.331,0,0,1-1.135,1.776.28.28,0,0,0,.168.5h1.085a.282.282,0,0,0,.209-.093,3.311,3.311,0,0,0,.979-2.183,2.891,2.891,0,0,0-.241-1.231,2.091,2.091,0,0,0-.733-.852,2.062,2.062,0,0,0-1.172-.331,1.632,1.632,0,0,0-1.206.432,1.565,1.565,0,0,0-1.176-.473,1.49,1.49,0,0,0-1.14.483,1.65,1.65,0,0,0-1.192-.442,2,2,0,0,0-1.907,1.207,2.939,2.939,0,0,0,1,3.565" transform="translate(-177.147 -14.796)" fill="#1c2133"/>
      <path id="Path_107681" data-name="Path 107681" d="M295.315,28.93A1.927,1.927,0,0,0,297,28.078a3.071,3.071,0,0,0,.555-1.752,3.017,3.017,0,0,0-1.032-2.425,1.962,1.962,0,0,1-.838-1.428.281.281,0,0,0-.281-.278H294.7a.281.281,0,0,0-.28.278,2.644,2.644,0,0,0,1.011,2.077,2.333,2.333,0,0,1,.82,1.85,1.845,1.845,0,0,1-.324,1.12.812.812,0,0,1-.6.255.794.794,0,0,1-.629-.318,1.908,1.908,0,0,1-.288-1.2,3.679,3.679,0,0,1,.293-1.155.279.279,0,0,0-.121-.343l-.65-.378a.279.279,0,0,0-.218-.025.282.282,0,0,0-.17.141,3.657,3.657,0,0,0-.436,1.669,3.161,3.161,0,0,0,.58,1.91,1.929,1.929,0,0,0,1.636.849" transform="translate(-196.367 -14.87)" fill="#1c2133"/>
      <path id="Path_107682" data-name="Path 107682" d="M309.566,25.822a.277.277,0,0,0-.152-.178l-.638-.3a.28.28,0,0,0-.361.121,2.935,2.935,0,0,0-.431,1.32,2.463,2.463,0,0,0,.233,1.088,1.776,1.776,0,0,0,.765.785,2.829,2.829,0,0,0,2.46,0,1.775,1.775,0,0,0,.765-.785,3.726,3.726,0,0,0,.233-1.546V22.5a.28.28,0,0,0-.28-.28h-.7a.28.28,0,0,0-.28.28v.463a1.947,1.947,0,0,0-1.133-.362,1.6,1.6,0,0,0-1.254.484,2.456,2.456,0,0,0-.415,1.648.281.281,0,0,0,.28.278h.729a.28.28,0,0,0,.281-.28,3.363,3.363,0,0,1,.073-.934c0-.013.072-.066.3-.066a1.055,1.055,0,0,1,.832.335,1.026,1.026,0,0,1,.309.646l0,1.64a4.025,4.025,0,0,1-.064.934.622.622,0,0,1-.262.344,1.1,1.1,0,0,1-.636.157.982.982,0,0,1-.673-.238.672.672,0,0,1-.253-.539,1.719,1.719,0,0,1,.24-.957.274.274,0,0,0,.037-.232" transform="translate(-206.339 -14.887)" fill="#1c2133"/>
      <path id="Path_107683" data-name="Path 107683" d="M329.75,23.87h0a2.717,2.717,0,0,0-.712-1.182,1.765,1.765,0,0,0-1.247-.468,1.52,1.52,0,0,0-1.257.616,1.542,1.542,0,0,0-1.233-.616,1.768,1.768,0,0,0-1.248.468,2.722,2.722,0,0,0-.711,1.182,5.127,5.127,0,0,0-.228,1.565,5.4,5.4,0,0,0,1.415,3.315.28.28,0,0,0,.217.1h1a.28.28,0,0,0,.2-.481,4.3,4.3,0,0,1-1.515-3.042,3.118,3.118,0,0,1,.3-1.566.711.711,0,0,1,.622-.414.4.4,0,0,1,.31.11,1.271,1.271,0,0,1,.212.853v2.033a.28.28,0,0,0,.28.28h.749a.28.28,0,0,0,.28-.279l0-2.025c0-.971.4-.971.57-.971a.713.713,0,0,1,.626.414,3.12,3.12,0,0,1,.3,1.566,4.343,4.343,0,0,1-1.49,3.046.283.283,0,0,0-.059.306.28.28,0,0,0,.259.172h.963a.28.28,0,0,0,.217-.1,5.4,5.4,0,0,0,1.415-3.315,5.141,5.141,0,0,0-.228-1.565" transform="translate(-216.475 -14.887)" fill="#1c2133"/>
      <path id="Path_107684" data-name="Path 107684" d="M171.108,60.721h0a1.443,1.443,0,0,1-.429-1.184.281.281,0,0,0-.28-.28h-.733a.28.28,0,0,0-.28.281,2.254,2.254,0,0,0,.621,1.726,1.235,1.235,0,0,1,.436.93,1.7,1.7,0,0,1-.28,1.093.783.783,0,0,1-.642.312.86.86,0,0,1-.668-.317,1.776,1.776,0,0,1-.3-1.168v-3.79a.281.281,0,0,0-.28-.28h-.7a.281.281,0,0,0-.28.28v3.794a3.38,3.38,0,0,0,.261,1.384,2.065,2.065,0,0,0,.8.933,2.276,2.276,0,0,0,2.341,0,2.068,2.068,0,0,0,.8-.933,3.169,3.169,0,0,0,.261-1.3,1.786,1.786,0,0,0-.64-1.476" transform="translate(-112.08 -38.886)" fill="#1c2133"/>
      <path id="Path_107685" data-name="Path 107685" d="M185.612,59.687a1.967,1.967,0,0,1-.838-1.428.281.281,0,0,0-.28-.279h-.709a.281.281,0,0,0-.28.278,2.646,2.646,0,0,0,1.01,2.077,2.332,2.332,0,0,1,.821,1.851,1.845,1.845,0,0,1-.325,1.119.81.81,0,0,1-1.233-.063,1.913,1.913,0,0,1-.288-1.2,3.681,3.681,0,0,1,.293-1.155.279.279,0,0,0-.12-.343l-.649-.377a.277.277,0,0,0-.22-.026.286.286,0,0,0-.17.141,3.66,3.66,0,0,0-.436,1.67,3.157,3.157,0,0,0,.58,1.91,2.045,2.045,0,0,0,3.32,0,3.074,3.074,0,0,0,.556-1.752,3.017,3.017,0,0,0-1.033-2.424" transform="translate(-122.061 -38.845)" fill="#1c2133"/>
      <path id="Path_107686" data-name="Path 107686" d="M200.87,60.1l0,0-.005,0a1.848,1.848,0,0,0-.4-.181,1.363,1.363,0,0,0,.051-.371,1.574,1.574,0,0,0-.193-.766,1.548,1.548,0,0,0-.566-.579,1.847,1.847,0,0,0-.963-.227,1.873,1.873,0,0,0-.975.227,1.453,1.453,0,0,0-.573.649,1.833,1.833,0,0,0-.181.76,1.638,1.638,0,0,0,.585,1.345,3.363,3.363,0,0,0-.261,1.263,3.015,3.015,0,0,0,.265,1.314,1.988,1.988,0,0,0,.8.875,2.395,2.395,0,0,0,2.327,0,1.988,1.988,0,0,0,.8-.875,3.017,3.017,0,0,0,.265-1.314,3.071,3.071,0,0,0-.239-1.252,1.931,1.931,0,0,0-.744-.869m-1.566-.466a.385.385,0,0,1-.049.184,1.88,1.88,0,0,0-.8.231.544.544,0,0,1-.134-.376.638.638,0,0,1,.124-.432.471.471,0,0,1,.369-.126.6.6,0,0,1,.369.122.492.492,0,0,1,.124.4m-.336,1.6a.913.913,0,0,1,1.313,0,1.479,1.479,0,0,1,.266,1,1.508,1.508,0,0,1-.272,1.03.894.894,0,0,1-1.3,0,1.51,1.51,0,0,1-.272-1.03,1.479,1.479,0,0,1,.266-1" transform="translate(-132.033 -38.845)" fill="#1c2133"/>
      <path id="Path_107687" data-name="Path 107687" d="M219.575,59.656h0a2.714,2.714,0,0,0-.712-1.182,1.767,1.767,0,0,0-1.248-.468,1.521,1.521,0,0,0-1.257.616,1.542,1.542,0,0,0-1.233-.616,1.769,1.769,0,0,0-1.248.468,2.717,2.717,0,0,0-.711,1.182,5.139,5.139,0,0,0-.228,1.565,5.4,5.4,0,0,0,1.416,3.315.279.279,0,0,0,.217.1h1a.28.28,0,0,0,.2-.481,4.3,4.3,0,0,1-1.515-3.043,3.117,3.117,0,0,1,.3-1.565.71.71,0,0,1,.622-.414.4.4,0,0,1,.311.11,1.275,1.275,0,0,1,.211.852v2.033a.28.28,0,0,0,.28.28h.749a.28.28,0,0,0,.28-.279l0-2.025c0-.971.4-.971.57-.971a.713.713,0,0,1,.626.414,3.117,3.117,0,0,1,.3,1.565,4.346,4.346,0,0,1-1.489,3.046.28.28,0,0,0,.2.478h.963a.281.281,0,0,0,.218-.1,5.4,5.4,0,0,0,1.415-3.315,5.129,5.129,0,0,0-.228-1.565" transform="translate(-142.662 -38.862)" fill="#1c2133"/>
      <path id="Path_107688" data-name="Path 107688" d="M238.766,58.33h0a2.618,2.618,0,0,0-2.56.03,1.253,1.253,0,0,0-.572,1.117.279.279,0,0,0,.278.273l.7,0a.277.277,0,0,0,.28-.268.3.3,0,0,1,.118-.252.923.923,0,0,1,.517-.108.894.894,0,0,1,.487.1.227.227,0,0,1,.1.205.686.686,0,0,1-.075.3,3.528,3.528,0,0,0-.37-.019h-.056a2.372,2.372,0,0,0-1.8.739,2.422,2.422,0,0,0-.69,1.7,2.6,2.6,0,0,0,.675,1.864,2.42,2.42,0,0,0,1.832.718,2.4,2.4,0,0,0,2.507-2.582,2.35,2.35,0,0,0-.97-1.969,1.739,1.739,0,0,0,.193-.816,1.162,1.162,0,0,0-.594-1.039m.062,3.777a1.566,1.566,0,0,1-.336,1.131,1.152,1.152,0,0,1-.828.338,1.333,1.333,0,0,1-.872-.327,1.444,1.444,0,0,1-.365-1.129,1.4,1.4,0,0,1,.344-.953,1.1,1.1,0,0,1,.852-.372,1.068,1.068,0,0,1,.885.379,1.475,1.475,0,0,1,.319.932" transform="translate(-157.525 -38.866)" fill="#1c2133"/>
      <path id="Path_107689" data-name="Path 107689" d="M256.167,62.112a3.017,3.017,0,0,0-1.032-2.424,1.963,1.963,0,0,1-.838-1.428.281.281,0,0,0-.28-.278h-.709a.28.28,0,0,0-.28.278,2.644,2.644,0,0,0,1.01,2.077,2.332,2.332,0,0,1,.821,1.851,1.843,1.843,0,0,1-.325,1.119.81.81,0,0,1-1.233-.063,1.913,1.913,0,0,1-.288-1.2,3.691,3.691,0,0,1,.293-1.155.279.279,0,0,0-.12-.342l-.649-.377a.275.275,0,0,0-.22-.026.282.282,0,0,0-.17.141,3.657,3.657,0,0,0-.436,1.67,3.162,3.162,0,0,0,.579,1.91,2.045,2.045,0,0,0,3.321,0,3.078,3.078,0,0,0,.555-1.751Z" transform="translate(-168.639 -38.845)" fill="#1c2133"/>
      <path id="Path_107690" data-name="Path 107690" d="M272.043,64.509v0a.279.279,0,0,0,.028-.258,1.79,1.79,0,0,0-.83-.816,6.005,6.005,0,0,0-2.044-.555,3.014,3.014,0,0,1-1.289-2.3,1.794,1.794,0,0,1,.275-1.107.762.762,0,0,1,.643-.317,1.366,1.366,0,0,1,.464.086l-.006.012a3.425,3.425,0,0,0-.236,1.319,3.382,3.382,0,0,0,.261,1.384,2.07,2.07,0,0,0,.8.933,2.277,2.277,0,0,0,2.341,0,2.062,2.062,0,0,0,.8-.933,3.379,3.379,0,0,0,.261-1.384,3.428,3.428,0,0,0-.236-1.32,2.02,2.02,0,0,0-.738-.924,2.207,2.207,0,0,0-1.254-.332,2.4,2.4,0,0,0-1.215.319,2.37,2.37,0,0,0-1.239-.319,2.206,2.206,0,0,0-1.254.332,2.017,2.017,0,0,0-.738.924,3.429,3.429,0,0,0-.236,1.32,3.48,3.48,0,0,0,1.012,2.37,2.572,2.572,0,0,0-.281.04.281.281,0,0,0-.225.275v.68a.284.284,0,0,0,.11.223.273.273,0,0,0,.238.049,5.55,5.55,0,0,1,1.459-.153,3.8,3.8,0,0,1,1.256.129c.166.067.26.148.289.248a.282.282,0,0,0,.269.2h1.089a.28.28,0,0,0,.231-.121m-1.688-3.945a1.753,1.753,0,0,1,.272-1.118.86.86,0,0,1,1.3,0,1.759,1.759,0,0,1,.271,1.118,1.868,1.868,0,0,1-.28,1.174.817.817,0,0,1-1.284,0,1.866,1.866,0,0,1-.281-1.174" transform="translate(-178.611 -38.853)" fill="#1c2133"/>
      <path id="Path_107691" data-name="Path 107691" d="M290.229,61.116a3.116,3.116,0,0,1,.3-1.565.71.71,0,0,1,.622-.414.4.4,0,0,1,.31.11,1.273,1.273,0,0,1,.211.853v2.033a.28.28,0,0,0,.28.28h.749a.28.28,0,0,0,.28-.28l0-2.025c0-.971.4-.971.57-.971a.712.712,0,0,1,.626.414,3.117,3.117,0,0,1,.3,1.565,4.347,4.347,0,0,1-1.489,3.046.28.28,0,0,0,.2.478h.963a.28.28,0,0,0,.218-.1,5.4,5.4,0,0,0,1.415-3.314,5.152,5.152,0,0,0-.228-1.565,2.721,2.721,0,0,0-.712-1.182,1.767,1.767,0,0,0-1.247-.468,1.521,1.521,0,0,0-1.257.616,1.543,1.543,0,0,0-1.233-.616,1.766,1.766,0,0,0-1.247.468,2.713,2.713,0,0,0-.711,1.182,5.13,5.13,0,0,0-.228,1.565,5.4,5.4,0,0,0,1.415,3.315.279.279,0,0,0,.217.1h1a.281.281,0,0,0,.2-.481,4.3,4.3,0,0,1-1.515-3.043" transform="translate(-193.564 -38.861)" fill="#1c2133"/>
      <path id="Path_107692" data-name="Path 107692" d="M313.4,58.005a2.182,2.182,0,0,0-1.472.5,1.616,1.616,0,0,0-.6,1.263,2.2,2.2,0,0,0,.352,1.141.281.281,0,0,0,.368.1l.631-.327a.28.28,0,0,0,.091-.423.807.807,0,0,1-.154-.515.6.6,0,0,1,.191-.425.774.774,0,0,1,.578-.194.988.988,0,0,1,.6.2.493.493,0,0,1,.227.426v2.372a3.917,3.917,0,0,1-.06.932.641.641,0,0,1-.265.35,1,1,0,0,1-.594.16.916.916,0,0,1-.631-.241.682.682,0,0,1-.255-.544,1.333,1.333,0,0,1,.217-.8.279.279,0,0,0-.13-.429l-.659-.239a.281.281,0,0,0-.338.121,2.349,2.349,0,0,0-.395,1.126,2.458,2.458,0,0,0,.233,1.088,1.8,1.8,0,0,0,.763.788,2.621,2.621,0,0,0,2.382,0,1.8,1.8,0,0,0,.763-.788,3.662,3.662,0,0,0,.233-1.525V59.769a1.674,1.674,0,0,0-.573-1.239,2.118,2.118,0,0,0-1.5-.525" transform="translate(-208.426 -38.861)" fill="#1c2133"/>
      <path id="Path_107693" data-name="Path 107693" d="M329.523,60.163h0a2.194,2.194,0,0,0-.623-.262l.055-.287a1.063,1.063,0,0,0-.427-1.073c-.2-.126-.2-.214-.2-.248a.281.281,0,0,0-.28-.288h-.757a.281.281,0,0,0-.28.28,1.039,1.039,0,0,0,.556,1.05.25.25,0,0,1,.176.3l-.034.222a2.2,2.2,0,0,0-.791.293,1.834,1.834,0,0,0-.7.838,3.075,3.075,0,0,0-.239,1.252,3.021,3.021,0,0,0,.265,1.314,2,2,0,0,0,.8.875,2.395,2.395,0,0,0,2.327,0,2,2,0,0,0,.8-.876,3.021,3.021,0,0,0,.264-1.314,3.07,3.07,0,0,0-.239-1.252,1.806,1.806,0,0,0-.677-.826m-.389,2.094a1.509,1.509,0,0,1-.272,1.03.895.895,0,0,1-1.3,0,1.508,1.508,0,0,1-.272-1.03,1.478,1.478,0,0,1,.266-1,.959.959,0,0,1,.738-.278.763.763,0,0,1,.576.279,1.476,1.476,0,0,1,.266,1" transform="translate(-218.398 -38.861)" fill="#1c2133"/>
      <path id="Path_107694" data-name="Path 107694" d="M344.379,58.473h0a2,2,0,0,0-2.573,0,2.712,2.712,0,0,0-.712,1.227,5.1,5.1,0,0,0-.227,1.476,10.412,10.412,0,0,0,.762,3.275.281.281,0,0,0,.263.184h.838a.28.28,0,0,0,.253-.4,7.47,7.47,0,0,1-.811-3.151,3.052,3.052,0,0,1,.3-1.486c.176-.312.372-.457.616-.457s.442.141.621.457a3.056,3.056,0,0,1,.3,1.486,7.751,7.751,0,0,1-.777,3.156.28.28,0,0,0,.255.4h.8a.283.283,0,0,0,.264-.184,10.406,10.406,0,0,0,.762-3.275,5.124,5.124,0,0,0-.227-1.476,2.718,2.718,0,0,0-.712-1.227" transform="translate(-228.37 -38.861)" fill="#1c2133"/>
      <path id="Path_107695" data-name="Path 107695" d="M359.8,60.721h0a1.443,1.443,0,0,1-.429-1.184.28.28,0,0,0-.28-.28h-.733a.279.279,0,0,0-.28.281,2.254,2.254,0,0,0,.621,1.726,1.234,1.234,0,0,1,.436.93,1.7,1.7,0,0,1-.281,1.093.783.783,0,0,1-.642.312.861.861,0,0,1-.668-.317,1.775,1.775,0,0,1-.3-1.168v-3.79a.281.281,0,0,0-.28-.28h-.7a.281.281,0,0,0-.28.28v3.794a3.38,3.38,0,0,0,.261,1.384,2.067,2.067,0,0,0,.8.933,2.276,2.276,0,0,0,2.341,0,2.071,2.071,0,0,0,.8-.933,3.176,3.176,0,0,0,.261-1.3,1.787,1.787,0,0,0-.64-1.476" transform="translate(-238.499 -38.886)" fill="#1c2133"/>
      <path id="Path_107696" data-name="Path 107696" d="M170.559,94.258h0a2,2,0,0,0-2.573,0,2.717,2.717,0,0,0-.713,1.227,5.115,5.115,0,0,0-.226,1.476,10.4,10.4,0,0,0,.762,3.275.281.281,0,0,0,.263.183h.838a.28.28,0,0,0,.253-.4,7.472,7.472,0,0,1-.811-3.151,3.056,3.056,0,0,1,.3-1.486c.176-.312.372-.457.616-.457s.442.141.62.457a3.056,3.056,0,0,1,.3,1.486,7.756,7.756,0,0,1-.777,3.156.28.28,0,0,0,.255.4h.8a.281.281,0,0,0,.263-.184,10.392,10.392,0,0,0,.762-3.275,5.128,5.128,0,0,0-.227-1.476,2.715,2.715,0,0,0-.713-1.227" transform="translate(-111.916 -62.836)" fill="#1c2133"/>
      <path id="Path_107697" data-name="Path 107697" d="M185.637,96a2.312,2.312,0,0,0-1.242-.306,1.836,1.836,0,0,0-.967.277v-.462c0-.256.056-.316.06-.319a1.193,1.193,0,0,1,.559-.069h1.858a.28.28,0,0,0,.28-.28v-.632a.281.281,0,0,0-.28-.28h-1.68a2.549,2.549,0,0,0-1.568.366,1.458,1.458,0,0,0-.493,1.214v2.612a3.023,3.023,0,0,0,.264,1.314,1.992,1.992,0,0,0,.8.876,2.4,2.4,0,0,0,2.327,0,1.993,1.993,0,0,0,.8-.876,3.021,3.021,0,0,0,.264-1.314,3.061,3.061,0,0,0-.239-1.251,1.917,1.917,0,0,0-.743-.869m-1.928,1.143a.908.908,0,0,1,.683-.285.835.835,0,0,1,.656.279,1.481,1.481,0,0,1,.266,1,1.51,1.51,0,0,1-.272,1.031.853.853,0,0,1-.65.281.929.929,0,0,1-.677-.287,1.443,1.443,0,0,1-.286-1.025,1.415,1.415,0,0,1,.281-.993" transform="translate(-122.044 -62.927)" fill="#1c2133"/>
      <path id="Path_107698" data-name="Path 107698" d="M201.11,96.507a1.443,1.443,0,0,1-.429-1.184.281.281,0,0,0-.281-.281h-.733a.28.28,0,0,0-.28.281,2.252,2.252,0,0,0,.621,1.725,1.236,1.236,0,0,1,.436.93,1.7,1.7,0,0,1-.281,1.093.783.783,0,0,1-.642.311.86.86,0,0,1-.668-.317,1.779,1.779,0,0,1-.3-1.168v-3.79a.28.28,0,0,0-.28-.28h-.7a.28.28,0,0,0-.28.28V97.9a3.379,3.379,0,0,0,.261,1.384,2.065,2.065,0,0,0,.8.933,2.276,2.276,0,0,0,2.341,0,2.069,2.069,0,0,0,.8-.933,3.163,3.163,0,0,0,.261-1.3,1.784,1.784,0,0,0-.64-1.476" transform="translate(-132.181 -62.862)" fill="#1c2133"/>
      <path id="Path_107699" data-name="Path 107699" d="M215.586,94.244a.281.281,0,0,0-.273-.343h-.689a.28.28,0,0,0-.271.351,2.6,2.6,0,0,0-1.48.892,3.372,3.372,0,0,0-.7,2.232,3.472,3.472,0,0,0,.745,2.311,2.8,2.8,0,0,0,4.119,0,3.481,3.481,0,0,0,.742-2.308,3.378,3.378,0,0,0-.7-2.237,2.579,2.579,0,0,0-1.5-.9m-1.278,3.627a.284.284,0,0,0,.078.206h0a.279.279,0,0,0,.2.085h.765a.28.28,0,0,0,.279-.291l-.094-2.459a1.421,1.421,0,0,1,.551.483,3.051,3.051,0,0,1-.042,3.007,1.243,1.243,0,0,1-1.068.526,1.274,1.274,0,0,1-1.071-.533,2.507,2.507,0,0,1-.426-1.528,2.444,2.444,0,0,1,.375-1.471,1.483,1.483,0,0,1,.551-.475Z" transform="translate(-142.152 -62.911)" fill="#1c2133"/>
      <path id="Path_107700" data-name="Path 107700" d="M234.058,94.258h0a2,2,0,0,0-2.573,0,2.721,2.721,0,0,0-.712,1.227,5.105,5.105,0,0,0-.227,1.476,10.406,10.406,0,0,0,.762,3.275.281.281,0,0,0,.263.183h.838a.28.28,0,0,0,.253-.4,7.472,7.472,0,0,1-.811-3.151,3.052,3.052,0,0,1,.3-1.486c.176-.312.372-.457.616-.457s.442.141.621.457a3.055,3.055,0,0,1,.3,1.486,7.751,7.751,0,0,1-.777,3.156.28.28,0,0,0,.255.4h.8a.282.282,0,0,0,.264-.184A10.407,10.407,0,0,0,235,96.961a5.127,5.127,0,0,0-.227-1.476,2.724,2.724,0,0,0-.713-1.227" transform="translate(-154.458 -62.836)" fill="#1c2133"/>
      <path id="Path_107701" data-name="Path 107701" d="M248.825,94.244a.276.276,0,0,0-.053-.236.279.279,0,0,0-.22-.107h-.688a.28.28,0,0,0-.271.351,2.6,2.6,0,0,0-1.48.892,3.369,3.369,0,0,0-.7,2.232,3.473,3.473,0,0,0,.745,2.311,2.8,2.8,0,0,0,4.119,0,3.48,3.48,0,0,0,.742-2.308,3.378,3.378,0,0,0-.7-2.237,2.579,2.579,0,0,0-1.5-.9m-1.277,3.626a.283.283,0,0,0,.078.207h0a.278.278,0,0,0,.2.086h.765a.28.28,0,0,0,.28-.291l-.094-2.459a1.422,1.422,0,0,1,.551.483,3.048,3.048,0,0,1-.042,3.006,1.242,1.242,0,0,1-1.068.526,1.272,1.272,0,0,1-1.071-.533,2.507,2.507,0,0,1-.426-1.528A2.448,2.448,0,0,1,247.1,95.9a1.48,1.48,0,0,1,.551-.475Z" transform="translate(-164.421 -62.911)" fill="#1c2133"/>
      <path id="Path_107702" data-name="Path 107702" d="M268.01,93.926h0a1.546,1.546,0,0,0-1-.382,1.511,1.511,0,0,0-1,.327,1.155,1.155,0,0,0-.789-.287h-.462a.633.633,0,0,1-.332-.118.28.28,0,0,0-.41.134l-.211.534a.281.281,0,0,0,.109.338,1.534,1.534,0,0,0,.844.243h.457a.128.128,0,0,1,.089.042.093.093,0,0,1,.031.083v1.5a.28.28,0,0,0,.281.28h.709a.28.28,0,0,0,.28-.28v-1.5c0-.035.009-.059.058-.091a.468.468,0,0,1,.27-.075.331.331,0,0,1,.225.079.167.167,0,0,1,.07.144v2.775a4.166,4.166,0,0,1-.062.936.616.616,0,0,1-.261.343,1.1,1.1,0,0,1-.636.157.981.981,0,0,1-.673-.238.672.672,0,0,1-.253-.539,1.017,1.017,0,0,1,.214-.714.28.28,0,0,0-.09-.449l-.679-.3a.279.279,0,0,0-.356.114,2.343,2.343,0,0,0-.395,1.125,2.461,2.461,0,0,0,.233,1.089,1.789,1.789,0,0,0,.764.786,2.844,2.844,0,0,0,2.462,0,1.787,1.787,0,0,0,.764-.787,3.718,3.718,0,0,0,.233-1.542V94.881a1.214,1.214,0,0,0-.484-.954" transform="translate(-176.729 -62.59)" fill="#1c2133"/>
      <path id="Path_107703" data-name="Path 107703" d="M283.085,94.244a.275.275,0,0,0-.053-.236.281.281,0,0,0-.22-.107h-.688a.28.28,0,0,0-.271.351,2.6,2.6,0,0,0-1.48.892,3.37,3.37,0,0,0-.7,2.232,3.472,3.472,0,0,0,.745,2.311,2.8,2.8,0,0,0,4.119,0,3.483,3.483,0,0,0,.742-2.308,3.376,3.376,0,0,0-.7-2.237,2.575,2.575,0,0,0-1.5-.9m-1.278,3.627a.285.285,0,0,0,.078.206h0a.276.276,0,0,0,.2.085h.765a.281.281,0,0,0,.28-.291l-.094-2.459a1.426,1.426,0,0,1,.551.483,3.05,3.05,0,0,1-.041,3.007,1.244,1.244,0,0,1-1.068.526,1.274,1.274,0,0,1-1.072-.533,2.507,2.507,0,0,1-.426-1.528,2.45,2.45,0,0,1,.375-1.471,1.484,1.484,0,0,1,.552-.475Z" transform="translate(-187.375 -62.911)" fill="#1c2133"/>
      <path id="Path_107704" data-name="Path 107704" d="M301.558,94.258h0a2,2,0,0,0-2.573,0,2.721,2.721,0,0,0-.713,1.227,5.1,5.1,0,0,0-.227,1.476,10.406,10.406,0,0,0,.762,3.275.281.281,0,0,0,.263.183h.838a.28.28,0,0,0,.253-.4,7.472,7.472,0,0,1-.811-3.151,3.059,3.059,0,0,1,.3-1.486c.176-.312.372-.457.616-.457s.445.145.62.457a3.051,3.051,0,0,1,.3,1.486,7.754,7.754,0,0,1-.777,3.156.28.28,0,0,0,.255.4h.8a.281.281,0,0,0,.263-.184,10.4,10.4,0,0,0,.762-3.275,5.12,5.12,0,0,0-.226-1.476,2.72,2.72,0,0,0-.713-1.227" transform="translate(-199.681 -62.836)" fill="#1c2133"/>
    </g>
  </g>
</svg>
