<svg xmlns="http://www.w3.org/2000/svg" width="20.118" height="20.118" viewBox="0 0 20.118 20.118">
  <path id="search_FILL0_wght400_GRAD0_opsz48" d="M138.888-820.882l-7.349-7.349a6.161,6.161,0,0,1-1.955,1.132,6.913,6.913,0,0,1-2.376.405,6.955,6.955,0,0,1-5.116-2.1A6.9,6.9,0,0,1,120-833.847a6.892,6.892,0,0,1,2.1-5.057,6.908,6.908,0,0,1,5.071-2.1,6.862,6.862,0,0,1,5.057,2.1,6.92,6.92,0,0,1,2.082,5.062,6.958,6.958,0,0,1-.391,2.315,7.09,7.09,0,0,1-1.174,2.1l7.377,7.321Zm-11.707-7.488a5.226,5.226,0,0,0,3.859-1.607,5.3,5.3,0,0,0,1.589-3.87,5.3,5.3,0,0,0-1.589-3.87,5.226,5.226,0,0,0-3.859-1.607,5.306,5.306,0,0,0-3.9,1.607,5.277,5.277,0,0,0-1.605,3.87,5.277,5.277,0,0,0,1.605,3.87A5.306,5.306,0,0,0,127.181-828.37Z" transform="translate(-120 841)" fill="#707070"/>
</svg>
